M48
;DRILL file {KiCad 4.0.6} date Sat Mar 25 16:42:31 2017
;FORMAT={-:-/ absolute / metric / decimal}
FMAT,2
METRIC,TZ
T1C0.762
T2C1.000
T3C1.016
T4C1.100
T5C1.200
T6C3.500
%
G90
G05
M71
T1
X83.7Y-88.9
X88.7Y-88.9
X126.7Y-88.9
X131.7Y-88.9
X178.3Y-88.9
X183.3Y-88.9
T2
X44.37Y-52.1
X44.37Y-54.64
X44.37Y-57.18
X44.37Y-59.72
X44.37Y-62.26
X44.37Y-64.8
X44.37Y-67.34
X44.37Y-69.88
X44.37Y-72.42
X44.37Y-74.96
X44.37Y-77.5
X79.93Y-54.64
X79.93Y-57.18
X79.93Y-59.72
X79.93Y-62.26
X79.93Y-64.8
X79.93Y-67.34
X79.93Y-69.88
X79.93Y-72.42
X79.93Y-74.96
X82.47Y-54.64
X82.47Y-57.18
X82.47Y-59.72
X82.47Y-62.26
X82.47Y-64.8
X82.47Y-67.34
X82.47Y-69.88
X82.47Y-72.42
X82.47Y-74.96
X90.37Y-52.1
X90.37Y-54.64
X90.37Y-57.18
X90.37Y-59.72
X90.37Y-62.26
X90.37Y-64.8
X90.37Y-67.34
X90.37Y-69.88
X90.37Y-72.42
X90.37Y-74.96
X90.37Y-77.5
X125.93Y-54.64
X125.93Y-57.18
X125.93Y-59.72
X125.93Y-62.26
X125.93Y-64.8
X125.93Y-67.34
X125.93Y-69.88
X125.93Y-72.42
X125.93Y-74.96
X128.47Y-54.64
X128.47Y-57.18
X128.47Y-59.72
X128.47Y-62.26
X128.47Y-64.8
X128.47Y-67.34
X128.47Y-69.88
X128.47Y-72.42
X128.47Y-74.96
X136.37Y-52.1
X136.37Y-54.64
X136.37Y-57.18
X136.37Y-59.72
X136.37Y-62.26
X136.37Y-64.8
X136.37Y-67.34
X136.37Y-69.88
X136.37Y-72.42
X136.37Y-74.96
X136.37Y-77.5
X171.93Y-54.64
X171.93Y-57.18
X171.93Y-59.72
X171.93Y-62.26
X171.93Y-64.8
X171.93Y-67.34
X171.93Y-69.88
X171.93Y-72.42
X171.93Y-74.96
X174.47Y-54.64
X174.47Y-57.18
X174.47Y-59.72
X174.47Y-62.26
X174.47Y-64.8
X174.47Y-67.34
X174.47Y-69.88
X174.47Y-72.42
X174.47Y-74.96
T3
X53.19Y-86.26
X53.19Y-88.8
X55.73Y-86.26
X55.73Y-88.8
X58.27Y-86.26
X58.27Y-88.8
X60.81Y-86.26
X60.81Y-88.8
X84.44Y-37.4
X84.44Y-39.94
X86.98Y-37.4
X86.98Y-39.94
X89.52Y-37.4
X89.52Y-39.94
X92.06Y-37.4
X92.06Y-39.94
X94.6Y-37.4
X94.6Y-39.94
X97.14Y-37.4
X97.14Y-39.94
X99.68Y-37.4
X99.68Y-39.94
X100.19Y-86.26
X100.19Y-88.8
X102.22Y-37.4
X102.22Y-39.94
X102.73Y-86.26
X102.73Y-88.8
X104.76Y-37.4
X104.76Y-39.94
X105.27Y-86.26
X105.27Y-88.8
X107.3Y-37.4
X107.3Y-39.94
X107.81Y-86.26
X107.81Y-88.8
X109.84Y-37.4
X109.84Y-39.94
X112.38Y-37.4
X112.38Y-39.94
X114.92Y-37.4
X114.92Y-39.94
X117.46Y-37.4
X117.46Y-39.94
X120.Y-37.4
X120.Y-39.94
X122.54Y-37.4
X122.54Y-39.94
X125.08Y-37.4
X125.08Y-39.94
X127.62Y-37.4
X127.62Y-39.94
X130.16Y-37.4
X130.16Y-39.94
X132.7Y-37.4
X132.7Y-39.94
X141.5Y-86.26
X141.5Y-88.8
X144.04Y-86.26
X144.04Y-88.8
X146.58Y-86.26
X146.58Y-88.8
X149.12Y-86.26
X149.12Y-88.8
X151.66Y-86.26
X151.66Y-88.8
X154.2Y-86.26
X154.2Y-88.8
X156.74Y-86.26
X156.74Y-88.8
T4
X38.Y-45.6
X38.Y-62.2
X38.Y-81.1
X38.Y-115.6
X50.1Y-81.6
X50.5Y-128.
X60.Y-122.
X65.Y-66.9
X65.Y-79.6
X69.7Y-75.1
X72.5Y-123.4
X73.3Y-72.3
X76.9Y-69.8
X86.3Y-52.8
X86.3Y-57.3
X86.3Y-63.1
X94.5Y-61.5
X95.2Y-50.2
X95.9Y-81.4
X96.9Y-59.2
X99.Y-54.6
X99.1Y-51.9
X99.1Y-57.1
X99.5Y-128.
X106.Y-45.1
X108.7Y-121.6
X111.4Y-51.5
X113.Y-54.6
X113.Y-67.4
X114.2Y-48.8
X115.8Y-44.9
X115.9Y-75.
X119.6Y-72.3
X119.9Y-45.5
X120.5Y-123.7
X122.5Y-45.5
X122.9Y-69.9
X125.1Y-45.5
X127.7Y-45.5
X130.5Y-45.5
X132.4Y-52.8
X132.4Y-57.3
X132.4Y-63.1
X133.5Y-45.5
X136.45Y-81.5
X149.9Y-74.2
X151.4Y-128.
X151.95Y-72.55
X157.4Y-36.6
X159.9Y-121.7
X161.7Y-75.2
X165.3Y-72.4
X168.9Y-69.9
X171.6Y-123.6
X173.1Y-94.9
X175.2Y-97.
X178.3Y-36.6
X178.9Y-97.
X184.5Y-119.
X184.5Y-122.5
X184.5Y-126.
X189.95Y-113.6
X191.1Y-49.3
X191.1Y-66.2
X191.1Y-77.7
X191.1Y-88.4
X193.Y-113.6
T5
X56.5Y-128.
X60.Y-128.
X63.5Y-128.
X67.Y-128.
X105.2Y-128.
X108.7Y-128.
X112.2Y-128.
X115.7Y-128.
X156.4Y-128.
X159.9Y-128.
X163.4Y-128.
X166.9Y-128.
X190.75Y-117.95
X190.75Y-121.45
T6
X40.001Y-36.999
X40.001Y-126.999
X190.001Y-36.999
X190.001Y-126.999
T0
M30
