G04 #@! TF.FileFunction,Copper,L2,Bot,Signal*
%FSLAX46Y46*%
G04 Gerber Fmt 4.6, Leading zero omitted, Abs format (unit mm)*
G04 Created by KiCad (PCBNEW 4.0.6) date Sat Mar 25 16:42:17 2017*
%MOMM*%
%LPD*%
G01*
G04 APERTURE LIST*
%ADD10C,0.100000*%
%ADD11C,1.700000*%
%ADD12R,1.727200X1.727200*%
%ADD13O,1.727200X1.727200*%
%ADD14R,1.800000X3.600000*%
%ADD15O,1.800000X3.600000*%
%ADD16R,3.600000X1.800000*%
%ADD17O,3.600000X1.800000*%
%ADD18R,2.000000X2.000000*%
%ADD19C,2.000000*%
%ADD20C,4.000000*%
%ADD21C,3.000000*%
%ADD22C,1.000000*%
%ADD23C,0.350000*%
%ADD24C,0.406400*%
G04 APERTURE END LIST*
D10*
D11*
X174470000Y-74960000D03*
X171930000Y-74960000D03*
X174470000Y-72420000D03*
X171930000Y-72420000D03*
X174470000Y-69880000D03*
X171930000Y-69880000D03*
X174470000Y-67340000D03*
X171930000Y-67340000D03*
X174470000Y-64800000D03*
X171930000Y-64800000D03*
X174470000Y-62260000D03*
X171930000Y-62260000D03*
X174470000Y-59720000D03*
X171930000Y-59720000D03*
X174470000Y-57180000D03*
X171930000Y-57180000D03*
X174470000Y-54640000D03*
X171930000Y-54640000D03*
X136370000Y-52100000D03*
X136370000Y-54640000D03*
X136370000Y-57180000D03*
X136370000Y-59720000D03*
X136370000Y-62260000D03*
X136370000Y-64800000D03*
X136370000Y-67340000D03*
X136370000Y-69880000D03*
X136370000Y-72420000D03*
X136370000Y-74960000D03*
X136370000Y-77500000D03*
D12*
X100190000Y-88800000D03*
D13*
X100190000Y-86260000D03*
X102730000Y-88800000D03*
X102730000Y-86260000D03*
X105270000Y-88800000D03*
X105270000Y-86260000D03*
X107810000Y-88800000D03*
X107810000Y-86260000D03*
D12*
X53190000Y-88800000D03*
D13*
X53190000Y-86260000D03*
X55730000Y-88800000D03*
X55730000Y-86260000D03*
X58270000Y-88800000D03*
X58270000Y-86260000D03*
X60810000Y-88800000D03*
X60810000Y-86260000D03*
D12*
X132700000Y-37400000D03*
D13*
X132700000Y-39940000D03*
X130160000Y-37400000D03*
X130160000Y-39940000D03*
X127620000Y-37400000D03*
X127620000Y-39940000D03*
X125080000Y-37400000D03*
X125080000Y-39940000D03*
X122540000Y-37400000D03*
X122540000Y-39940000D03*
X120000000Y-37400000D03*
X120000000Y-39940000D03*
X117460000Y-37400000D03*
X117460000Y-39940000D03*
X114920000Y-37400000D03*
X114920000Y-39940000D03*
X112380000Y-37400000D03*
X112380000Y-39940000D03*
X109840000Y-37400000D03*
X109840000Y-39940000D03*
X107300000Y-37400000D03*
X107300000Y-39940000D03*
X104760000Y-37400000D03*
X104760000Y-39940000D03*
X102220000Y-37400000D03*
X102220000Y-39940000D03*
X99680000Y-37400000D03*
X99680000Y-39940000D03*
X97140000Y-37400000D03*
X97140000Y-39940000D03*
X94600000Y-37400000D03*
X94600000Y-39940000D03*
X92060000Y-37400000D03*
X92060000Y-39940000D03*
X89520000Y-37400000D03*
X89520000Y-39940000D03*
X86980000Y-37400000D03*
X86980000Y-39940000D03*
X84440000Y-37400000D03*
X84440000Y-39940000D03*
D14*
X156400000Y-128000000D03*
D15*
X159900000Y-128000000D03*
X163400000Y-128000000D03*
X166900000Y-128000000D03*
D14*
X105200000Y-128000000D03*
D15*
X108700000Y-128000000D03*
X112200000Y-128000000D03*
X115700000Y-128000000D03*
D16*
X190750000Y-121450000D03*
D17*
X190750000Y-117950000D03*
D14*
X56500000Y-128000000D03*
D15*
X60000000Y-128000000D03*
X63500000Y-128000000D03*
X67000000Y-128000000D03*
D11*
X128470000Y-74960000D03*
X125930000Y-74960000D03*
X128470000Y-72420000D03*
X125930000Y-72420000D03*
X128470000Y-69880000D03*
X125930000Y-69880000D03*
X128470000Y-67340000D03*
X125930000Y-67340000D03*
X128470000Y-64800000D03*
X125930000Y-64800000D03*
X128470000Y-62260000D03*
X125930000Y-62260000D03*
X128470000Y-59720000D03*
X125930000Y-59720000D03*
X128470000Y-57180000D03*
X125930000Y-57180000D03*
X128470000Y-54640000D03*
X125930000Y-54640000D03*
X90370000Y-52100000D03*
X90370000Y-54640000D03*
X90370000Y-57180000D03*
X90370000Y-59720000D03*
X90370000Y-62260000D03*
X90370000Y-64800000D03*
X90370000Y-67340000D03*
X90370000Y-69880000D03*
X90370000Y-72420000D03*
X90370000Y-74960000D03*
X90370000Y-77500000D03*
X82470000Y-74960000D03*
X79930000Y-74960000D03*
X82470000Y-72420000D03*
X79930000Y-72420000D03*
X82470000Y-69880000D03*
X79930000Y-69880000D03*
X82470000Y-67340000D03*
X79930000Y-67340000D03*
X82470000Y-64800000D03*
X79930000Y-64800000D03*
X82470000Y-62260000D03*
X79930000Y-62260000D03*
X82470000Y-59720000D03*
X79930000Y-59720000D03*
X82470000Y-57180000D03*
X79930000Y-57180000D03*
X82470000Y-54640000D03*
X79930000Y-54640000D03*
X44370000Y-52100000D03*
X44370000Y-54640000D03*
X44370000Y-57180000D03*
X44370000Y-59720000D03*
X44370000Y-62260000D03*
X44370000Y-64800000D03*
X44370000Y-67340000D03*
X44370000Y-69880000D03*
X44370000Y-72420000D03*
X44370000Y-74960000D03*
X44370000Y-77500000D03*
D18*
X178300000Y-88900000D03*
D19*
X183300000Y-88900000D03*
D18*
X131700000Y-88900000D03*
D19*
X126700000Y-88900000D03*
D18*
X83700000Y-88900000D03*
D19*
X88700000Y-88900000D03*
D12*
X141500000Y-88800000D03*
D13*
X141500000Y-86260000D03*
X144040000Y-88800000D03*
X144040000Y-86260000D03*
X146580000Y-88800000D03*
X146580000Y-86260000D03*
X149120000Y-88800000D03*
X149120000Y-86260000D03*
X151660000Y-88800000D03*
X151660000Y-86260000D03*
X154200000Y-88800000D03*
X154200000Y-86260000D03*
X156740000Y-88800000D03*
X156740000Y-86260000D03*
D20*
X40001260Y-36998920D03*
X190000960Y-36998920D03*
X190000960Y-126998740D03*
X40001260Y-126998740D03*
D19*
X50500000Y-128000000D03*
X184500000Y-119000000D03*
X184500000Y-126000000D03*
X184500000Y-122500000D03*
X38000000Y-115600000D03*
X157400000Y-36600000D03*
X178300000Y-36600000D03*
X191100000Y-49300000D03*
X191100000Y-66200000D03*
X191100000Y-77700000D03*
X191100000Y-88400000D03*
X86300000Y-63100000D03*
X86300000Y-57300000D03*
X86300000Y-52800000D03*
X132400000Y-52800000D03*
X132400000Y-57300000D03*
X132400000Y-63100000D03*
X38000000Y-81100000D03*
X38000000Y-45600000D03*
X38000000Y-62200000D03*
X60000000Y-122000000D03*
X72500000Y-123400000D03*
X50100000Y-81600000D03*
X99500000Y-128000000D03*
X108700000Y-121600000D03*
X120500000Y-123700000D03*
X95900000Y-81400000D03*
X151400000Y-128000000D03*
X159900000Y-121700000D03*
X171600000Y-123600000D03*
X136450000Y-81500000D03*
X65000000Y-66900000D03*
X106000000Y-45100000D03*
X96900000Y-59200000D03*
X111400000Y-51500000D03*
X99100000Y-57100000D03*
X99000000Y-54600000D03*
X114200000Y-48800000D03*
X99100000Y-51900000D03*
X115800000Y-44900000D03*
X94500000Y-61500000D03*
X95200000Y-50200000D03*
X113000000Y-54600000D03*
X130500000Y-45500000D03*
X127700000Y-45500000D03*
X125100000Y-45500000D03*
X122500000Y-45500000D03*
X133500000Y-45500000D03*
X65000000Y-79600000D03*
X113000000Y-67400000D03*
X149900000Y-74200000D03*
X173100000Y-94900000D03*
X175200000Y-97000000D03*
X178900000Y-97000000D03*
X69700000Y-75100000D03*
X73300000Y-72300000D03*
X76900000Y-69800000D03*
X115900000Y-75000000D03*
X119600000Y-72300000D03*
X122900000Y-69900000D03*
X161700000Y-75200000D03*
X165300000Y-72400000D03*
X168900000Y-69900000D03*
X193000000Y-113600000D03*
X189950000Y-113600000D03*
X151950000Y-72550000D03*
X119900000Y-45500000D03*
D21*
X50600000Y-128000000D02*
X50500000Y-128000000D01*
X50600000Y-128000000D02*
X56500000Y-128000000D01*
D22*
X190750000Y-121450000D02*
X185550000Y-121450000D01*
X184500000Y-126000000D02*
X184500000Y-119000000D01*
X185550000Y-121450000D02*
X184500000Y-122500000D01*
X178300000Y-36600000D02*
X157400000Y-36600000D01*
X191100000Y-66200000D02*
X191100000Y-49300000D01*
X191100000Y-88400000D02*
X191100000Y-77700000D01*
X84600000Y-64800000D02*
X86300000Y-63100000D01*
X86300000Y-57300000D02*
X86300000Y-52800000D01*
X82370000Y-64800000D02*
X84600000Y-64800000D01*
X128470000Y-64800000D02*
X130700000Y-64800000D01*
X132400000Y-57300000D02*
X132400000Y-52800000D01*
X130700000Y-64800000D02*
X132400000Y-63100000D01*
X44370000Y-62260000D02*
X38060000Y-62260000D01*
X38000000Y-45600000D02*
X38000000Y-81100000D01*
X38060000Y-62260000D02*
X38000000Y-62200000D01*
D21*
X60000000Y-128000000D02*
X60000000Y-122000000D01*
X64600000Y-123400000D02*
X72500000Y-123400000D01*
X63500000Y-128000000D02*
X63500000Y-124500000D01*
X63500000Y-124500000D02*
X64600000Y-123400000D01*
X64600000Y-123400000D02*
X64500000Y-123500000D01*
D23*
X53190000Y-88790000D02*
X50100000Y-85700000D01*
X50100000Y-85700000D02*
X50100000Y-81600000D01*
X53190000Y-88790000D02*
X53190000Y-88800000D01*
X58270000Y-86260000D02*
X58270000Y-86930000D01*
X58270000Y-86930000D02*
X57000000Y-88200000D01*
X57000000Y-88200000D02*
X57000000Y-89500000D01*
X57000000Y-89500000D02*
X56200000Y-90300000D01*
X56200000Y-90300000D02*
X54690000Y-90300000D01*
X54690000Y-90300000D02*
X53190000Y-88800000D01*
X82470000Y-62260000D02*
X82470000Y-61970000D01*
X82470000Y-61970000D02*
X81500000Y-61000000D01*
X81500000Y-61000000D02*
X76000000Y-61000000D01*
X76000000Y-61000000D02*
X58270000Y-78730000D01*
X58270000Y-78730000D02*
X58270000Y-86260000D01*
D21*
X99500000Y-128000000D02*
X105200000Y-128000000D01*
X108700000Y-128000000D02*
X108700000Y-121600000D01*
X112200000Y-128000000D02*
X112200000Y-124600000D01*
X113100000Y-123700000D02*
X120500000Y-123700000D01*
X112200000Y-124600000D02*
X113100000Y-123700000D01*
D23*
X95900000Y-81400000D02*
X96100000Y-81600000D01*
X96100000Y-81600000D02*
X96100000Y-84710000D01*
X96100000Y-84710000D02*
X100190000Y-88800000D01*
X124900000Y-61000000D02*
X114200000Y-61000000D01*
X124900000Y-61000000D02*
X127210000Y-61000000D01*
X128470000Y-62260000D02*
X127210000Y-61000000D01*
X105270000Y-80630000D02*
X105270000Y-86260000D01*
X105270000Y-69930000D02*
X105270000Y-80630000D01*
X114200000Y-61000000D02*
X105270000Y-69930000D01*
X105270000Y-86260000D02*
X105270000Y-87030000D01*
X105270000Y-87030000D02*
X104000000Y-88300000D01*
X101590000Y-90200000D02*
X100190000Y-88800000D01*
X103100000Y-90200000D02*
X101590000Y-90200000D01*
X104000000Y-89300000D02*
X103100000Y-90200000D01*
X104000000Y-88300000D02*
X104000000Y-89300000D01*
D21*
X151400000Y-128000000D02*
X156400000Y-128000000D01*
X159900000Y-128000000D02*
X159900000Y-121700000D01*
X163400000Y-128000000D02*
X163400000Y-124600000D01*
X164400000Y-123600000D02*
X171600000Y-123600000D01*
X163400000Y-124600000D02*
X164400000Y-123600000D01*
D23*
X146580000Y-86260000D02*
X146580000Y-74020000D01*
X146580000Y-74020000D02*
X150200000Y-70400000D01*
X150200000Y-70400000D02*
X159600000Y-61000000D01*
X159600000Y-61000000D02*
X170400000Y-61000000D01*
X173500000Y-61000000D02*
X170400000Y-61000000D01*
X173500000Y-61000000D02*
X174470000Y-61970000D01*
X136400000Y-81400000D02*
X139400000Y-84400000D01*
X139400000Y-84400000D02*
X139400000Y-86700000D01*
X139400000Y-86700000D02*
X141500000Y-88800000D01*
X136475000Y-81475000D02*
X136400000Y-81400000D01*
X136450000Y-81500000D02*
X136475000Y-81475000D01*
X151660000Y-88800000D02*
X151550000Y-88800000D01*
X151050000Y-88900000D02*
X149700000Y-87550000D01*
X149700000Y-87550000D02*
X148400000Y-87550000D01*
X148400000Y-87550000D02*
X147850000Y-88100000D01*
X147850000Y-88100000D02*
X147850000Y-89600000D01*
X147850000Y-89600000D02*
X147400000Y-90050000D01*
X147400000Y-90050000D02*
X144600000Y-90050000D01*
X141500000Y-88800000D02*
X141500000Y-88850000D01*
X141500000Y-88850000D02*
X142700000Y-90050000D01*
X145300000Y-88300000D02*
X146580000Y-87020000D01*
X145300000Y-89350000D02*
X145300000Y-88300000D01*
X144600000Y-90050000D02*
X145300000Y-89350000D01*
X142700000Y-90050000D02*
X144600000Y-90050000D01*
X146580000Y-87020000D02*
X146580000Y-86260000D01*
X174470000Y-62260000D02*
X174470000Y-61970000D01*
X58780000Y-59720000D02*
X44370000Y-59720000D01*
X89520000Y-37400000D02*
X89520000Y-37020000D01*
X89520000Y-37020000D02*
X87900000Y-35400000D01*
X87900000Y-35400000D02*
X83100000Y-35400000D01*
X83100000Y-35400000D02*
X58780000Y-59720000D01*
X44370000Y-57180000D02*
X60120000Y-57180000D01*
X89460000Y-34800000D02*
X92060000Y-37400000D01*
X82500000Y-34800000D02*
X89460000Y-34800000D01*
X60120000Y-57180000D02*
X82500000Y-34800000D01*
X94600000Y-37400000D02*
X94600000Y-37300000D01*
X94600000Y-37300000D02*
X91500000Y-34200000D01*
X91500000Y-34200000D02*
X81900000Y-34200000D01*
X81900000Y-34200000D02*
X61460000Y-54640000D01*
X61460000Y-54640000D02*
X44370000Y-54640000D01*
X44370000Y-52100000D02*
X62800000Y-52100000D01*
X62800000Y-52100000D02*
X81300000Y-33600000D01*
X93340000Y-33600000D02*
X97140000Y-37400000D01*
X81300000Y-33600000D02*
X93340000Y-33600000D01*
X44370000Y-77500000D02*
X49800000Y-77500000D01*
X49800000Y-77500000D02*
X78600000Y-48700000D01*
X92060000Y-40040000D02*
X92060000Y-39940000D01*
X83400000Y-48700000D02*
X92060000Y-40040000D01*
X78600000Y-48700000D02*
X83400000Y-48700000D01*
X89520000Y-39940000D02*
X89520000Y-40080000D01*
X89520000Y-40080000D02*
X81700000Y-47900000D01*
X51240000Y-74960000D02*
X78300000Y-47900000D01*
X78300000Y-47900000D02*
X81700000Y-47900000D01*
X51240000Y-74960000D02*
X44370000Y-74960000D01*
X86980000Y-39940000D02*
X86980000Y-40020000D01*
X86980000Y-40020000D02*
X79900000Y-47100000D01*
X52680000Y-72420000D02*
X44370000Y-72420000D01*
X78000000Y-47100000D02*
X52680000Y-72420000D01*
X79900000Y-47100000D02*
X78000000Y-47100000D01*
X44370000Y-69880000D02*
X54120000Y-69880000D01*
X54120000Y-69880000D02*
X77700000Y-46300000D01*
X84440000Y-39560000D02*
X84440000Y-39940000D01*
X77700000Y-46300000D02*
X84440000Y-39560000D01*
X77700000Y-46300000D02*
X77700000Y-46300000D01*
X84440000Y-37400000D02*
X83700000Y-37400000D01*
X83700000Y-37400000D02*
X53760000Y-67340000D01*
X53760000Y-67340000D02*
X44370000Y-67340000D01*
X86980000Y-37400000D02*
X86900000Y-37400000D01*
X86900000Y-37400000D02*
X85500000Y-36000000D01*
X85500000Y-36000000D02*
X83700000Y-36000000D01*
X83700000Y-36000000D02*
X54900000Y-64800000D01*
X54900000Y-64800000D02*
X44370000Y-64800000D01*
X94600000Y-40200000D02*
X94600000Y-39940000D01*
X85300000Y-49500000D02*
X94600000Y-40200000D01*
X82400000Y-49500000D02*
X85300000Y-49500000D01*
X65000000Y-66900000D02*
X82400000Y-49500000D01*
X107300000Y-37400000D02*
X107200000Y-37400000D01*
X107200000Y-37400000D02*
X106000000Y-38600000D01*
X106000000Y-38600000D02*
X106000000Y-45100000D01*
X96900000Y-59200000D02*
X96380000Y-59720000D01*
X96380000Y-59720000D02*
X90370000Y-59720000D01*
X90370000Y-57180000D02*
X99080000Y-57180000D01*
X111100000Y-38660000D02*
X109840000Y-37400000D01*
X111100000Y-51200000D02*
X111100000Y-38660000D01*
X111400000Y-51500000D02*
X111100000Y-51200000D01*
X99100000Y-57160000D02*
X99100000Y-57100000D01*
X99080000Y-57180000D02*
X99100000Y-57160000D01*
X98960000Y-54640000D02*
X99000000Y-54600000D01*
X90370000Y-54640000D02*
X98960000Y-54640000D01*
X113700000Y-48300000D02*
X114200000Y-48800000D01*
X113700000Y-38400000D02*
X113700000Y-48300000D01*
X113700000Y-38400000D02*
X112700000Y-37400000D01*
X112380000Y-37400000D02*
X112700000Y-37400000D01*
X114920000Y-37400000D02*
X114920000Y-37620000D01*
X114920000Y-37620000D02*
X116200000Y-38900000D01*
X98900000Y-52100000D02*
X90370000Y-52100000D01*
X99100000Y-51900000D02*
X98900000Y-52100000D01*
X116200000Y-44500000D02*
X115800000Y-44900000D01*
X116200000Y-38900000D02*
X116200000Y-44500000D01*
X114920000Y-37400000D02*
X115200000Y-37400000D01*
X90370000Y-77500000D02*
X91600000Y-77500000D01*
X109840000Y-59260000D02*
X109840000Y-39940000D01*
X91600000Y-77500000D02*
X109840000Y-59260000D01*
X107300000Y-39940000D02*
X107300000Y-40440000D01*
X107300000Y-40440000D02*
X108700000Y-41840000D01*
X90370000Y-74960000D02*
X91640000Y-74960000D01*
X108700000Y-57900000D02*
X108700000Y-41840000D01*
X91640000Y-74960000D02*
X108700000Y-57900000D01*
X103200000Y-42340000D02*
X103200000Y-41500000D01*
X91680000Y-72420000D02*
X103200000Y-60900000D01*
X103200000Y-60900000D02*
X103200000Y-42340000D01*
X90370000Y-72420000D02*
X91680000Y-72420000D01*
X103200000Y-41500000D02*
X104760000Y-39940000D01*
X90370000Y-69880000D02*
X91620000Y-69880000D01*
X102220000Y-59280000D02*
X102220000Y-39940000D01*
X91620000Y-69880000D02*
X102220000Y-59280000D01*
X90370000Y-67340000D02*
X91760000Y-67340000D01*
X101000000Y-38620000D02*
X102220000Y-37400000D01*
X101000000Y-58100000D02*
X101000000Y-38620000D01*
X91760000Y-67340000D02*
X101000000Y-58100000D01*
X90370000Y-64800000D02*
X91200000Y-64800000D01*
X91200000Y-64800000D02*
X94500000Y-61500000D01*
X95200000Y-50200000D02*
X98400000Y-47000000D01*
X98400000Y-47000000D02*
X98400000Y-36600000D01*
X98400000Y-36600000D02*
X99000000Y-36000000D01*
X99000000Y-36000000D02*
X103360000Y-36000000D01*
X103360000Y-36000000D02*
X104760000Y-37400000D01*
X112380000Y-49880000D02*
X113200000Y-50700000D01*
X112380000Y-49880000D02*
X112380000Y-39940000D01*
X113200000Y-54400000D02*
X113200000Y-50700000D01*
X125080000Y-37400000D02*
X125080000Y-36220000D01*
X139800000Y-56290000D02*
X136370000Y-59720000D01*
X139800000Y-38900000D02*
X139800000Y-56290000D01*
X135700000Y-34800000D02*
X139800000Y-38900000D01*
X126500000Y-34800000D02*
X135700000Y-34800000D01*
X125080000Y-36220000D02*
X126500000Y-34800000D01*
X127620000Y-37400000D02*
X127620000Y-36980000D01*
X127620000Y-36980000D02*
X129200000Y-35400000D01*
X129200000Y-35400000D02*
X135400000Y-35400000D01*
X135400000Y-35400000D02*
X138900000Y-38900000D01*
X136370000Y-57180000D02*
X136620000Y-57180000D01*
X136620000Y-57180000D02*
X138900000Y-54900000D01*
X138900000Y-54900000D02*
X138900000Y-38900000D01*
X130160000Y-37400000D02*
X130160000Y-36840000D01*
X130160000Y-36840000D02*
X131000000Y-36000000D01*
X131000000Y-36000000D02*
X135000000Y-36000000D01*
X135000000Y-36000000D02*
X138000000Y-39000000D01*
X138000000Y-39000000D02*
X138000000Y-53010000D01*
X138000000Y-53010000D02*
X136370000Y-54640000D01*
X132700000Y-37400000D02*
X135100000Y-37400000D01*
X136370000Y-38670000D02*
X136370000Y-52100000D01*
X135100000Y-37400000D02*
X136370000Y-38670000D01*
X130160000Y-39940000D02*
X130160000Y-45160000D01*
X130160000Y-45160000D02*
X130500000Y-45500000D01*
X127620000Y-45420000D02*
X127620000Y-39940000D01*
X127700000Y-45500000D02*
X127620000Y-45420000D01*
X125080000Y-39940000D02*
X125080000Y-45480000D01*
X125080000Y-45480000D02*
X125100000Y-45500000D01*
X122500000Y-45500000D02*
X122540000Y-45460000D01*
X122540000Y-45460000D02*
X122540000Y-39940000D01*
X120000000Y-37400000D02*
X120300000Y-37400000D01*
X120300000Y-37400000D02*
X124000000Y-33700000D01*
X124000000Y-33700000D02*
X136400000Y-33700000D01*
X136400000Y-33700000D02*
X141600000Y-38900000D01*
X141600000Y-38900000D02*
X141600000Y-62110000D01*
X141600000Y-62110000D02*
X136370000Y-67340000D01*
X136370000Y-64800000D02*
X137600000Y-64800000D01*
X122540000Y-36160000D02*
X122540000Y-37400000D01*
X124400000Y-34300000D02*
X122540000Y-36160000D01*
X136100000Y-34300000D02*
X124400000Y-34300000D01*
X140700000Y-38900000D02*
X136100000Y-34300000D01*
X140700000Y-61700000D02*
X140700000Y-38900000D01*
X137600000Y-64800000D02*
X140700000Y-61700000D01*
X133500000Y-45500000D02*
X133400000Y-45500000D01*
X132700000Y-44800000D02*
X132700000Y-39940000D01*
X133400000Y-45500000D02*
X132700000Y-44800000D01*
X82470000Y-59720000D02*
X82470000Y-59570000D01*
X82470000Y-59570000D02*
X81300000Y-58400000D01*
X81300000Y-58400000D02*
X77500000Y-58400000D01*
X77500000Y-58400000D02*
X57000000Y-78900000D01*
X57000000Y-78900000D02*
X57000000Y-87000000D01*
X57000000Y-87000000D02*
X55965000Y-88035000D01*
X55730000Y-86260000D02*
X55730000Y-79070000D01*
X81190000Y-55900000D02*
X82470000Y-57180000D01*
X78900000Y-55900000D02*
X81190000Y-55900000D01*
X55730000Y-79070000D02*
X78900000Y-55900000D01*
X58270000Y-88800000D02*
X58270000Y-88730000D01*
X58270000Y-88730000D02*
X59500000Y-87500000D01*
X59500000Y-87500000D02*
X59500000Y-78500000D01*
X59500000Y-78500000D02*
X74500000Y-63500000D01*
X74500000Y-63500000D02*
X83300000Y-63500000D01*
X83300000Y-63500000D02*
X83800000Y-63000000D01*
X83800000Y-63000000D02*
X83800000Y-55970000D01*
X83800000Y-55970000D02*
X82470000Y-54640000D01*
X60810000Y-86260000D02*
X60810000Y-83790000D01*
X60810000Y-83790000D02*
X65000000Y-79600000D01*
X104000000Y-81200000D02*
X104000000Y-69400000D01*
X127200000Y-58500000D02*
X125100000Y-58500000D01*
X128420000Y-59720000D02*
X127200000Y-58500000D01*
X104000000Y-87000000D02*
X104000000Y-81200000D01*
X104000000Y-87000000D02*
X102730000Y-88270000D01*
X114900000Y-58500000D02*
X125100000Y-58500000D01*
X104000000Y-69400000D02*
X114900000Y-58500000D01*
X102730000Y-88800000D02*
X102730000Y-88270000D01*
X128470000Y-59720000D02*
X128420000Y-59720000D01*
X102730000Y-81900000D02*
X102730000Y-68770000D01*
X125000000Y-55900000D02*
X127190000Y-55900000D01*
X127190000Y-55900000D02*
X128470000Y-57180000D01*
X115600000Y-55900000D02*
X125000000Y-55900000D01*
X102730000Y-68770000D02*
X115600000Y-55900000D01*
X102730000Y-86260000D02*
X102730000Y-81900000D01*
X102730000Y-81900000D02*
X102730000Y-81770000D01*
X105270000Y-88800000D02*
X105400000Y-88800000D01*
X105400000Y-88800000D02*
X106500000Y-87700000D01*
X106500000Y-87700000D02*
X106500000Y-71000000D01*
X106500000Y-71000000D02*
X114000000Y-63500000D01*
X114000000Y-63500000D02*
X129000000Y-63500000D01*
X129000000Y-63500000D02*
X129900000Y-62600000D01*
X129900000Y-62600000D02*
X129900000Y-56070000D01*
X129900000Y-56070000D02*
X128470000Y-54640000D01*
X113000000Y-67400000D02*
X112900000Y-67400000D01*
X107810000Y-72490000D02*
X107810000Y-86260000D01*
X112900000Y-67400000D02*
X107810000Y-72490000D01*
X107940000Y-86260000D02*
X107810000Y-86260000D01*
X145300000Y-74100000D02*
X145300000Y-86850000D01*
X174470000Y-59270000D02*
X173700000Y-58500000D01*
X173700000Y-58500000D02*
X170700000Y-58500000D01*
X160900000Y-58500000D02*
X170700000Y-58500000D01*
X148850000Y-70550000D02*
X160900000Y-58500000D01*
X145300000Y-74100000D02*
X148850000Y-70550000D01*
X145300000Y-86850000D02*
X143950000Y-88200000D01*
X144040000Y-88800000D02*
X144100000Y-88800000D01*
X174470000Y-59720000D02*
X174470000Y-59270000D01*
X144040000Y-86260000D02*
X144040000Y-74260000D01*
X144040000Y-74260000D02*
X147640000Y-70660000D01*
X162400000Y-55900000D02*
X171100000Y-55900000D01*
X147640000Y-70660000D02*
X162400000Y-55900000D01*
X174470000Y-57180000D02*
X174470000Y-56970000D01*
X174470000Y-56970000D02*
X173400000Y-55900000D01*
X173400000Y-55900000D02*
X171100000Y-55900000D01*
X171100000Y-55900000D02*
X171000000Y-55900000D01*
X147850000Y-86850000D02*
X147850000Y-73950000D01*
X174470000Y-54640000D02*
X176100000Y-56270000D01*
X176100000Y-62700000D02*
X176100000Y-56270000D01*
X175300000Y-63500000D02*
X176100000Y-62700000D01*
X170000000Y-63500000D02*
X175300000Y-63500000D01*
X158300000Y-63500000D02*
X170000000Y-63500000D01*
X151400000Y-70400000D02*
X158300000Y-63500000D01*
X147850000Y-73950000D02*
X151400000Y-70400000D01*
X147850000Y-86850000D02*
X146480000Y-88220000D01*
X146580000Y-88800000D02*
X146580000Y-88120000D01*
X149120000Y-86260000D02*
X149120000Y-75600000D01*
X149120000Y-75600000D02*
X149120000Y-74980000D01*
X149120000Y-74980000D02*
X149900000Y-74200000D01*
X149120000Y-75600000D02*
X149120000Y-75580000D01*
D22*
X178300000Y-88300000D02*
X178300000Y-96400000D01*
X175200000Y-97000000D02*
X173100000Y-94900000D01*
X178300000Y-96400000D02*
X178900000Y-97000000D01*
X69700000Y-75100000D02*
X69840000Y-74960000D01*
X82470000Y-74960000D02*
X69840000Y-74960000D01*
X73300000Y-72300000D02*
X73420000Y-72420000D01*
X82470000Y-72420000D02*
X73420000Y-72420000D01*
X76900000Y-69800000D02*
X76920000Y-69780000D01*
X76920000Y-69780000D02*
X82470000Y-69880000D01*
X125930000Y-74960000D02*
X128470000Y-74960000D01*
X115900000Y-75000000D02*
X116040000Y-74860000D01*
X116040000Y-74860000D02*
X125930000Y-74960000D01*
X119600000Y-72300000D02*
X119680000Y-72220000D01*
X119680000Y-72220000D02*
X128470000Y-72420000D01*
X122920000Y-69880000D02*
X128470000Y-69880000D01*
X122900000Y-69900000D02*
X122920000Y-69880000D01*
X161940000Y-74960000D02*
X174470000Y-74960000D01*
X161700000Y-75200000D02*
X161940000Y-74960000D01*
X165300000Y-72400000D02*
X165380000Y-72320000D01*
X165380000Y-72320000D02*
X174470000Y-72420000D01*
X168900000Y-69900000D02*
X168980000Y-69980000D01*
X168980000Y-69980000D02*
X174470000Y-69880000D01*
X190750000Y-117950000D02*
X190750000Y-114400000D01*
X193000000Y-113600000D02*
X193000000Y-113550000D01*
X190750000Y-114400000D02*
X189950000Y-113600000D01*
D23*
X150400000Y-86950000D02*
X150400000Y-76050000D01*
X150450000Y-76050000D02*
X151950000Y-74550000D01*
X151950000Y-74550000D02*
X151950000Y-72550000D01*
X152900000Y-87550000D02*
X154150000Y-88800000D01*
X152900000Y-87550000D02*
X151000000Y-87550000D01*
X151000000Y-87550000D02*
X150400000Y-86950000D01*
X150400000Y-76050000D02*
X150450000Y-76050000D01*
X154200000Y-88800000D02*
X154150000Y-88800000D01*
X120000000Y-39940000D02*
X120000000Y-45400000D01*
X120000000Y-45400000D02*
X119900000Y-45500000D01*
D24*
G36*
X83296800Y-76096800D02*
X68403200Y-76096800D01*
X68403200Y-74003200D01*
X83296800Y-74003200D01*
X83296800Y-76096800D01*
X83296800Y-76096800D01*
G37*
X83296800Y-76096800D02*
X68403200Y-76096800D01*
X68403200Y-74003200D01*
X83296800Y-74003200D01*
X83296800Y-76096800D01*
G36*
X83296800Y-73096800D02*
X72003200Y-73096800D01*
X72003200Y-71503200D01*
X83296800Y-71503200D01*
X83296800Y-73096800D01*
X83296800Y-73096800D01*
G37*
X83296800Y-73096800D02*
X72003200Y-73096800D01*
X72003200Y-71503200D01*
X83296800Y-71503200D01*
X83296800Y-73096800D01*
G36*
X83296800Y-70596800D02*
X75603200Y-70596800D01*
X75603200Y-69003200D01*
X83296800Y-69003200D01*
X83296800Y-70596800D01*
X83296800Y-70596800D01*
G37*
X83296800Y-70596800D02*
X75603200Y-70596800D01*
X75603200Y-69003200D01*
X83296800Y-69003200D01*
X83296800Y-70596800D01*
G36*
X180696800Y-99897198D02*
X79203200Y-100096400D01*
X79203200Y-89089900D01*
X82040400Y-89089900D01*
X82040400Y-90031202D01*
X82140818Y-90273633D01*
X82326366Y-90459182D01*
X82568797Y-90559600D01*
X83510100Y-90559600D01*
X83675000Y-90394700D01*
X83675000Y-88925000D01*
X83725000Y-88925000D01*
X83725000Y-90394700D01*
X83889900Y-90559600D01*
X84831203Y-90559600D01*
X85073634Y-90459182D01*
X85259182Y-90273633D01*
X85359600Y-90031202D01*
X85359600Y-89089900D01*
X85194700Y-88925000D01*
X83725000Y-88925000D01*
X83675000Y-88925000D01*
X82205300Y-88925000D01*
X82040400Y-89089900D01*
X79203200Y-89089900D01*
X79203200Y-87768798D01*
X82040400Y-87768798D01*
X82040400Y-88710100D01*
X82205300Y-88875000D01*
X83675000Y-88875000D01*
X83675000Y-87405300D01*
X83725000Y-87405300D01*
X83725000Y-88875000D01*
X85194700Y-88875000D01*
X85359600Y-88710100D01*
X85359600Y-87768798D01*
X85259182Y-87526367D01*
X85073634Y-87340818D01*
X84831203Y-87240400D01*
X83889900Y-87240400D01*
X83725000Y-87405300D01*
X83675000Y-87405300D01*
X83510100Y-87240400D01*
X82568797Y-87240400D01*
X82326366Y-87340818D01*
X82140818Y-87526367D01*
X82040400Y-87768798D01*
X79203200Y-87768798D01*
X79203200Y-77003200D01*
X84000000Y-77003200D01*
X84079056Y-76987191D01*
X84145655Y-76941685D01*
X84189303Y-76873855D01*
X84203200Y-76800000D01*
X84203200Y-68300000D01*
X84187191Y-68220944D01*
X84141685Y-68154345D01*
X84073855Y-68110697D01*
X84000000Y-68096800D01*
X78803200Y-68096800D01*
X78803200Y-66503200D01*
X85796800Y-66503200D01*
X85796800Y-94500000D01*
X85812809Y-94579056D01*
X85858315Y-94645655D01*
X85926145Y-94689303D01*
X86000406Y-94703200D01*
X128800406Y-94617636D01*
X128879430Y-94601468D01*
X128945938Y-94555830D01*
X128989451Y-94487912D01*
X129003200Y-94414436D01*
X129003200Y-89089900D01*
X130040400Y-89089900D01*
X130040400Y-90031202D01*
X130140818Y-90273633D01*
X130326366Y-90459182D01*
X130568797Y-90559600D01*
X131510100Y-90559600D01*
X131675000Y-90394700D01*
X131675000Y-88925000D01*
X130205300Y-88925000D01*
X130040400Y-89089900D01*
X129003200Y-89089900D01*
X129003200Y-87768798D01*
X130040400Y-87768798D01*
X130040400Y-88710100D01*
X130205300Y-88875000D01*
X131675000Y-88875000D01*
X131675000Y-87405300D01*
X131510100Y-87240400D01*
X130568797Y-87240400D01*
X130326366Y-87340818D01*
X130140818Y-87526367D01*
X130040400Y-87768798D01*
X129003200Y-87768798D01*
X129003200Y-76803200D01*
X130400000Y-76803200D01*
X130479056Y-76787191D01*
X130545655Y-76741685D01*
X130589303Y-76673855D01*
X130603200Y-76600000D01*
X130603200Y-68300000D01*
X130587191Y-68220944D01*
X130541685Y-68154345D01*
X130473855Y-68110697D01*
X130400000Y-68096800D01*
X124903200Y-68096800D01*
X124903200Y-66403200D01*
X132496800Y-66403200D01*
X132496800Y-87240400D01*
X131889900Y-87240400D01*
X131725000Y-87405300D01*
X131725000Y-88875000D01*
X131745000Y-88875000D01*
X131745000Y-88925000D01*
X131725000Y-88925000D01*
X131725000Y-90394700D01*
X131889900Y-90559600D01*
X132831203Y-90559600D01*
X133073634Y-90459182D01*
X133259182Y-90273633D01*
X133359600Y-90031202D01*
X133359600Y-89146968D01*
X138556316Y-94343684D01*
X138623537Y-94388265D01*
X138699251Y-94403199D01*
X171299251Y-94523431D01*
X171378365Y-94507713D01*
X171445132Y-94462454D01*
X171489030Y-94394784D01*
X171503200Y-94320232D01*
X171503200Y-89089900D01*
X176640400Y-89089900D01*
X176640400Y-90031202D01*
X176740818Y-90273633D01*
X176926366Y-90459182D01*
X177168797Y-90559600D01*
X178110100Y-90559600D01*
X178275000Y-90394700D01*
X178275000Y-88925000D01*
X178325000Y-88925000D01*
X178325000Y-90394700D01*
X178489900Y-90559600D01*
X179431203Y-90559600D01*
X179673634Y-90459182D01*
X179859182Y-90273633D01*
X179959600Y-90031202D01*
X179959600Y-89089900D01*
X179794700Y-88925000D01*
X178325000Y-88925000D01*
X178275000Y-88925000D01*
X176805300Y-88925000D01*
X176640400Y-89089900D01*
X171503200Y-89089900D01*
X171503200Y-87768798D01*
X176640400Y-87768798D01*
X176640400Y-88710100D01*
X176805300Y-88875000D01*
X178275000Y-88875000D01*
X178275000Y-87405300D01*
X178325000Y-87405300D01*
X178325000Y-88875000D01*
X179794700Y-88875000D01*
X179959600Y-88710100D01*
X179959600Y-87768798D01*
X179859182Y-87526367D01*
X179673634Y-87340818D01*
X179431203Y-87240400D01*
X178489900Y-87240400D01*
X178325000Y-87405300D01*
X178275000Y-87405300D01*
X178110100Y-87240400D01*
X177168797Y-87240400D01*
X176926366Y-87340818D01*
X176740818Y-87526367D01*
X176640400Y-87768798D01*
X171503200Y-87768798D01*
X171503200Y-77003200D01*
X176600000Y-77003200D01*
X176679056Y-76987191D01*
X176745655Y-76941685D01*
X176789303Y-76873855D01*
X176803200Y-76800000D01*
X176803200Y-68300000D01*
X176787191Y-68220944D01*
X176741685Y-68154345D01*
X176673855Y-68110697D01*
X176600000Y-68096800D01*
X170903200Y-68096800D01*
X170903200Y-66303200D01*
X180696800Y-66303200D01*
X180696800Y-99897198D01*
X180696800Y-99897198D01*
G37*
X180696800Y-99897198D02*
X79203200Y-100096400D01*
X79203200Y-89089900D01*
X82040400Y-89089900D01*
X82040400Y-90031202D01*
X82140818Y-90273633D01*
X82326366Y-90459182D01*
X82568797Y-90559600D01*
X83510100Y-90559600D01*
X83675000Y-90394700D01*
X83675000Y-88925000D01*
X83725000Y-88925000D01*
X83725000Y-90394700D01*
X83889900Y-90559600D01*
X84831203Y-90559600D01*
X85073634Y-90459182D01*
X85259182Y-90273633D01*
X85359600Y-90031202D01*
X85359600Y-89089900D01*
X85194700Y-88925000D01*
X83725000Y-88925000D01*
X83675000Y-88925000D01*
X82205300Y-88925000D01*
X82040400Y-89089900D01*
X79203200Y-89089900D01*
X79203200Y-87768798D01*
X82040400Y-87768798D01*
X82040400Y-88710100D01*
X82205300Y-88875000D01*
X83675000Y-88875000D01*
X83675000Y-87405300D01*
X83725000Y-87405300D01*
X83725000Y-88875000D01*
X85194700Y-88875000D01*
X85359600Y-88710100D01*
X85359600Y-87768798D01*
X85259182Y-87526367D01*
X85073634Y-87340818D01*
X84831203Y-87240400D01*
X83889900Y-87240400D01*
X83725000Y-87405300D01*
X83675000Y-87405300D01*
X83510100Y-87240400D01*
X82568797Y-87240400D01*
X82326366Y-87340818D01*
X82140818Y-87526367D01*
X82040400Y-87768798D01*
X79203200Y-87768798D01*
X79203200Y-77003200D01*
X84000000Y-77003200D01*
X84079056Y-76987191D01*
X84145655Y-76941685D01*
X84189303Y-76873855D01*
X84203200Y-76800000D01*
X84203200Y-68300000D01*
X84187191Y-68220944D01*
X84141685Y-68154345D01*
X84073855Y-68110697D01*
X84000000Y-68096800D01*
X78803200Y-68096800D01*
X78803200Y-66503200D01*
X85796800Y-66503200D01*
X85796800Y-94500000D01*
X85812809Y-94579056D01*
X85858315Y-94645655D01*
X85926145Y-94689303D01*
X86000406Y-94703200D01*
X128800406Y-94617636D01*
X128879430Y-94601468D01*
X128945938Y-94555830D01*
X128989451Y-94487912D01*
X129003200Y-94414436D01*
X129003200Y-89089900D01*
X130040400Y-89089900D01*
X130040400Y-90031202D01*
X130140818Y-90273633D01*
X130326366Y-90459182D01*
X130568797Y-90559600D01*
X131510100Y-90559600D01*
X131675000Y-90394700D01*
X131675000Y-88925000D01*
X130205300Y-88925000D01*
X130040400Y-89089900D01*
X129003200Y-89089900D01*
X129003200Y-87768798D01*
X130040400Y-87768798D01*
X130040400Y-88710100D01*
X130205300Y-88875000D01*
X131675000Y-88875000D01*
X131675000Y-87405300D01*
X131510100Y-87240400D01*
X130568797Y-87240400D01*
X130326366Y-87340818D01*
X130140818Y-87526367D01*
X130040400Y-87768798D01*
X129003200Y-87768798D01*
X129003200Y-76803200D01*
X130400000Y-76803200D01*
X130479056Y-76787191D01*
X130545655Y-76741685D01*
X130589303Y-76673855D01*
X130603200Y-76600000D01*
X130603200Y-68300000D01*
X130587191Y-68220944D01*
X130541685Y-68154345D01*
X130473855Y-68110697D01*
X130400000Y-68096800D01*
X124903200Y-68096800D01*
X124903200Y-66403200D01*
X132496800Y-66403200D01*
X132496800Y-87240400D01*
X131889900Y-87240400D01*
X131725000Y-87405300D01*
X131725000Y-88875000D01*
X131745000Y-88875000D01*
X131745000Y-88925000D01*
X131725000Y-88925000D01*
X131725000Y-90394700D01*
X131889900Y-90559600D01*
X132831203Y-90559600D01*
X133073634Y-90459182D01*
X133259182Y-90273633D01*
X133359600Y-90031202D01*
X133359600Y-89146968D01*
X138556316Y-94343684D01*
X138623537Y-94388265D01*
X138699251Y-94403199D01*
X171299251Y-94523431D01*
X171378365Y-94507713D01*
X171445132Y-94462454D01*
X171489030Y-94394784D01*
X171503200Y-94320232D01*
X171503200Y-89089900D01*
X176640400Y-89089900D01*
X176640400Y-90031202D01*
X176740818Y-90273633D01*
X176926366Y-90459182D01*
X177168797Y-90559600D01*
X178110100Y-90559600D01*
X178275000Y-90394700D01*
X178275000Y-88925000D01*
X178325000Y-88925000D01*
X178325000Y-90394700D01*
X178489900Y-90559600D01*
X179431203Y-90559600D01*
X179673634Y-90459182D01*
X179859182Y-90273633D01*
X179959600Y-90031202D01*
X179959600Y-89089900D01*
X179794700Y-88925000D01*
X178325000Y-88925000D01*
X178275000Y-88925000D01*
X176805300Y-88925000D01*
X176640400Y-89089900D01*
X171503200Y-89089900D01*
X171503200Y-87768798D01*
X176640400Y-87768798D01*
X176640400Y-88710100D01*
X176805300Y-88875000D01*
X178275000Y-88875000D01*
X178275000Y-87405300D01*
X178325000Y-87405300D01*
X178325000Y-88875000D01*
X179794700Y-88875000D01*
X179959600Y-88710100D01*
X179959600Y-87768798D01*
X179859182Y-87526367D01*
X179673634Y-87340818D01*
X179431203Y-87240400D01*
X178489900Y-87240400D01*
X178325000Y-87405300D01*
X178275000Y-87405300D01*
X178110100Y-87240400D01*
X177168797Y-87240400D01*
X176926366Y-87340818D01*
X176740818Y-87526367D01*
X176640400Y-87768798D01*
X171503200Y-87768798D01*
X171503200Y-77003200D01*
X176600000Y-77003200D01*
X176679056Y-76987191D01*
X176745655Y-76941685D01*
X176789303Y-76873855D01*
X176803200Y-76800000D01*
X176803200Y-68300000D01*
X176787191Y-68220944D01*
X176741685Y-68154345D01*
X176673855Y-68110697D01*
X176600000Y-68096800D01*
X170903200Y-68096800D01*
X170903200Y-66303200D01*
X180696800Y-66303200D01*
X180696800Y-99897198D01*
G36*
X36000760Y-32993900D02*
X80522716Y-32993900D01*
X62394816Y-51121800D01*
X45729446Y-51121800D01*
X45307685Y-50699303D01*
X44700284Y-50447088D01*
X44042601Y-50446514D01*
X43434761Y-50697668D01*
X42969303Y-51162315D01*
X42717088Y-51769716D01*
X42716514Y-52427399D01*
X42967668Y-53035239D01*
X43302022Y-53370176D01*
X42969303Y-53702315D01*
X42717088Y-54309716D01*
X42716514Y-54967399D01*
X42967668Y-55575239D01*
X43302022Y-55910176D01*
X42969303Y-56242315D01*
X42717088Y-56849716D01*
X42716514Y-57507399D01*
X42967668Y-58115239D01*
X43302022Y-58450176D01*
X42969303Y-58782315D01*
X42717088Y-59389716D01*
X42716514Y-60047399D01*
X42967668Y-60655239D01*
X43432315Y-61120697D01*
X43452507Y-61129081D01*
X43416079Y-61270724D01*
X44370000Y-62224645D01*
X45323921Y-61270724D01*
X45287629Y-61129608D01*
X45305239Y-61122332D01*
X45730111Y-60698200D01*
X57618416Y-60698200D01*
X54494816Y-63821800D01*
X45729446Y-63821800D01*
X45307685Y-63399303D01*
X45287493Y-63390919D01*
X45323921Y-63249276D01*
X44370000Y-62295355D01*
X43416079Y-63249276D01*
X43452371Y-63390392D01*
X43434761Y-63397668D01*
X42969303Y-63862315D01*
X42717088Y-64469716D01*
X42716514Y-65127399D01*
X42967668Y-65735239D01*
X43302022Y-66070176D01*
X42969303Y-66402315D01*
X42717088Y-67009716D01*
X42716514Y-67667399D01*
X42967668Y-68275239D01*
X43302022Y-68610176D01*
X42969303Y-68942315D01*
X42717088Y-69549716D01*
X42716514Y-70207399D01*
X42967668Y-70815239D01*
X43302022Y-71150176D01*
X42969303Y-71482315D01*
X42717088Y-72089716D01*
X42716514Y-72747399D01*
X42967668Y-73355239D01*
X43302022Y-73690176D01*
X42969303Y-74022315D01*
X42717088Y-74629716D01*
X42716514Y-75287399D01*
X42967668Y-75895239D01*
X43302022Y-76230176D01*
X42969303Y-76562315D01*
X42717088Y-77169716D01*
X42716514Y-77827399D01*
X42967668Y-78435239D01*
X43432315Y-78900697D01*
X44039716Y-79152912D01*
X44697399Y-79153486D01*
X45305239Y-78902332D01*
X45730111Y-78478200D01*
X49800000Y-78478200D01*
X50174341Y-78403739D01*
X50491692Y-78191692D01*
X79005184Y-49678200D01*
X80838416Y-49678200D01*
X65402118Y-65114498D01*
X65360252Y-65097113D01*
X64642895Y-65096487D01*
X63979904Y-65370430D01*
X63472213Y-65877235D01*
X63197113Y-66539748D01*
X63196487Y-67257105D01*
X63470430Y-67920096D01*
X63977235Y-68427787D01*
X64639748Y-68702887D01*
X64713664Y-68702952D01*
X55038308Y-78378308D01*
X54826261Y-78695659D01*
X54751800Y-79070000D01*
X54751800Y-84925668D01*
X54518739Y-85081394D01*
X54362988Y-85314492D01*
X54007080Y-84974493D01*
X53452941Y-84759664D01*
X53215000Y-84901903D01*
X53215000Y-86235000D01*
X53235000Y-86235000D01*
X53235000Y-86285000D01*
X53215000Y-86285000D01*
X53215000Y-86305000D01*
X53165000Y-86305000D01*
X53165000Y-86285000D01*
X53145000Y-86285000D01*
X53145000Y-86235000D01*
X53165000Y-86235000D01*
X53165000Y-84901903D01*
X52927059Y-84759664D01*
X52372920Y-84974493D01*
X51943174Y-85385029D01*
X51705974Y-85922590D01*
X51078200Y-85294816D01*
X51078200Y-83146881D01*
X51120096Y-83129570D01*
X51627787Y-82622765D01*
X51902887Y-81960252D01*
X51903513Y-81242895D01*
X51629570Y-80579904D01*
X51122765Y-80072213D01*
X50460252Y-79797113D01*
X49742895Y-79796487D01*
X49079904Y-80070430D01*
X48572213Y-80577235D01*
X48297113Y-81239748D01*
X48296487Y-81957105D01*
X48570430Y-82620096D01*
X49077235Y-83127787D01*
X49121800Y-83146292D01*
X49121800Y-85700000D01*
X49196261Y-86074341D01*
X49408308Y-86391692D01*
X51507465Y-88490849D01*
X51507465Y-89663600D01*
X51563471Y-89961248D01*
X51739381Y-90234619D01*
X52007788Y-90418014D01*
X52326400Y-90482535D01*
X53489151Y-90482535D01*
X53998308Y-90991692D01*
X54315659Y-91203739D01*
X54690000Y-91278200D01*
X56200000Y-91278200D01*
X56574341Y-91203739D01*
X56891692Y-90991692D01*
X57565903Y-90317481D01*
X57599488Y-90339922D01*
X58237345Y-90466800D01*
X58302655Y-90466800D01*
X58940512Y-90339922D01*
X59481261Y-89978606D01*
X59637012Y-89745508D01*
X59992920Y-90085507D01*
X60547059Y-90300336D01*
X60785000Y-90158097D01*
X60785000Y-88825000D01*
X60835000Y-88825000D01*
X60835000Y-90158097D01*
X61072941Y-90300336D01*
X61627080Y-90085507D01*
X62056826Y-89674971D01*
X62296754Y-89131228D01*
X62310334Y-89062941D01*
X62168070Y-88825000D01*
X60835000Y-88825000D01*
X60785000Y-88825000D01*
X60765000Y-88825000D01*
X60765000Y-88775000D01*
X60785000Y-88775000D01*
X60785000Y-88755000D01*
X60835000Y-88755000D01*
X60835000Y-88775000D01*
X62168070Y-88775000D01*
X62310334Y-88537059D01*
X62296754Y-88468772D01*
X62056826Y-87925029D01*
X61742570Y-87624821D01*
X62021261Y-87438606D01*
X62382577Y-86897857D01*
X62509455Y-86260000D01*
X62382577Y-85622143D01*
X62021261Y-85081394D01*
X61788200Y-84925668D01*
X61788200Y-84195184D01*
X64597882Y-81385502D01*
X64639748Y-81402887D01*
X65357105Y-81403513D01*
X66020096Y-81129570D01*
X66527787Y-80622765D01*
X66802887Y-79960252D01*
X66803513Y-79242895D01*
X66529570Y-78579904D01*
X66022765Y-78072213D01*
X65360252Y-77797113D01*
X64642895Y-77796487D01*
X63979904Y-78070430D01*
X63472213Y-78577235D01*
X63197113Y-79239748D01*
X63196487Y-79957105D01*
X63214914Y-80001702D01*
X60478200Y-82738416D01*
X60478200Y-78905184D01*
X65583384Y-73800000D01*
X67396800Y-73800000D01*
X67396800Y-76300000D01*
X67451730Y-76591929D01*
X67624260Y-76860048D01*
X67887510Y-77039919D01*
X68200000Y-77103200D01*
X78196800Y-77103200D01*
X78196800Y-100300000D01*
X78252305Y-100593397D01*
X78425360Y-100861177D01*
X78688963Y-101040531D01*
X79001576Y-101103198D01*
X180901576Y-100903198D01*
X181191929Y-100848270D01*
X181460048Y-100675740D01*
X181639919Y-100412490D01*
X181703200Y-100100000D01*
X181703200Y-89997435D01*
X182237920Y-89997435D01*
X182325735Y-90283493D01*
X182929336Y-90551017D01*
X183589367Y-90567187D01*
X184205345Y-90329544D01*
X184274265Y-90283493D01*
X184362080Y-89997435D01*
X183300000Y-88935355D01*
X182237920Y-89997435D01*
X181703200Y-89997435D01*
X181703200Y-89371812D01*
X181870456Y-89805345D01*
X181916507Y-89874265D01*
X182202565Y-89962080D01*
X183264645Y-88900000D01*
X183335355Y-88900000D01*
X184397435Y-89962080D01*
X184683493Y-89874265D01*
X184951017Y-89270664D01*
X184967187Y-88610633D01*
X184729544Y-87994655D01*
X184683493Y-87925735D01*
X184397435Y-87837920D01*
X183335355Y-88900000D01*
X183264645Y-88900000D01*
X182202565Y-87837920D01*
X181916507Y-87925735D01*
X181703200Y-88407009D01*
X181703200Y-87802565D01*
X182237920Y-87802565D01*
X183300000Y-88864645D01*
X184362080Y-87802565D01*
X184274265Y-87516507D01*
X183670664Y-87248983D01*
X183010633Y-87232813D01*
X182394655Y-87470456D01*
X182325735Y-87516507D01*
X182237920Y-87802565D01*
X181703200Y-87802565D01*
X181703200Y-66100000D01*
X181648270Y-65808071D01*
X181475740Y-65539952D01*
X181212490Y-65360081D01*
X180900000Y-65296800D01*
X170700000Y-65296800D01*
X170408071Y-65351730D01*
X170139952Y-65524260D01*
X169960081Y-65787510D01*
X169896800Y-66100000D01*
X169896800Y-67996800D01*
X167400000Y-67996800D01*
X167108071Y-68051730D01*
X166839952Y-68224260D01*
X166660081Y-68487510D01*
X166596800Y-68800000D01*
X166596800Y-70596800D01*
X165301573Y-70596800D01*
X164942895Y-70596487D01*
X164942137Y-70596800D01*
X163800000Y-70596800D01*
X163508071Y-70651730D01*
X163239952Y-70824260D01*
X163060081Y-71087510D01*
X162996800Y-71400000D01*
X162996800Y-73196800D01*
X160200000Y-73196800D01*
X159908071Y-73251730D01*
X159639952Y-73424260D01*
X159460081Y-73687510D01*
X159396800Y-74000000D01*
X159396800Y-76200000D01*
X159451730Y-76491929D01*
X159624260Y-76760048D01*
X159887510Y-76939919D01*
X160200000Y-77003200D01*
X161698426Y-77003200D01*
X162057105Y-77003513D01*
X162057863Y-77003200D01*
X170496800Y-77003200D01*
X170496800Y-93514064D01*
X139033922Y-93398026D01*
X133515004Y-87879108D01*
X133503200Y-87816375D01*
X133503200Y-81857105D01*
X134646487Y-81857105D01*
X134920430Y-82520096D01*
X135427235Y-83027787D01*
X136089748Y-83302887D01*
X136807105Y-83303513D01*
X136887083Y-83270467D01*
X138421800Y-84805184D01*
X138421800Y-86700000D01*
X138496261Y-87074341D01*
X138708308Y-87391692D01*
X139817465Y-88500849D01*
X139817465Y-89663600D01*
X139873471Y-89961248D01*
X140049381Y-90234619D01*
X140317788Y-90418014D01*
X140636400Y-90482535D01*
X141749151Y-90482535D01*
X142008308Y-90741692D01*
X142325659Y-90953739D01*
X142700000Y-91028200D01*
X147400000Y-91028200D01*
X147774341Y-90953739D01*
X148091692Y-90741692D01*
X148541692Y-90291692D01*
X148601989Y-90201450D01*
X148857059Y-90300336D01*
X149095000Y-90158097D01*
X149095000Y-88825000D01*
X149075000Y-88825000D01*
X149075000Y-88775000D01*
X149095000Y-88775000D01*
X149095000Y-88755000D01*
X149145000Y-88755000D01*
X149145000Y-88775000D01*
X149165000Y-88775000D01*
X149165000Y-88825000D01*
X149145000Y-88825000D01*
X149145000Y-90158097D01*
X149382941Y-90300336D01*
X149937080Y-90085507D01*
X150292988Y-89745508D01*
X150448739Y-89978606D01*
X150989488Y-90339922D01*
X151627345Y-90466800D01*
X151692655Y-90466800D01*
X152330512Y-90339922D01*
X152871261Y-89978606D01*
X152930000Y-89890697D01*
X152988739Y-89978606D01*
X153529488Y-90339922D01*
X154167345Y-90466800D01*
X154232655Y-90466800D01*
X154870512Y-90339922D01*
X155411261Y-89978606D01*
X155470000Y-89890697D01*
X155528739Y-89978606D01*
X156069488Y-90339922D01*
X156707345Y-90466800D01*
X156772655Y-90466800D01*
X157410512Y-90339922D01*
X157951261Y-89978606D01*
X158312577Y-89437857D01*
X158439455Y-88800000D01*
X158312577Y-88162143D01*
X157951261Y-87621394D01*
X157814480Y-87530000D01*
X157951261Y-87438606D01*
X158312577Y-86897857D01*
X158439455Y-86260000D01*
X158312577Y-85622143D01*
X157951261Y-85081394D01*
X157410512Y-84720078D01*
X156772655Y-84593200D01*
X156707345Y-84593200D01*
X156069488Y-84720078D01*
X155528739Y-85081394D01*
X155470000Y-85169303D01*
X155411261Y-85081394D01*
X154870512Y-84720078D01*
X154232655Y-84593200D01*
X154167345Y-84593200D01*
X153529488Y-84720078D01*
X152988739Y-85081394D01*
X152832988Y-85314492D01*
X152477080Y-84974493D01*
X151922941Y-84759664D01*
X151685000Y-84901903D01*
X151685000Y-86235000D01*
X151705000Y-86235000D01*
X151705000Y-86285000D01*
X151685000Y-86285000D01*
X151685000Y-86305000D01*
X151635000Y-86305000D01*
X151635000Y-86285000D01*
X151615000Y-86285000D01*
X151615000Y-86235000D01*
X151635000Y-86235000D01*
X151635000Y-84901903D01*
X151397059Y-84759664D01*
X151378200Y-84766975D01*
X151378200Y-76505184D01*
X152641692Y-75241692D01*
X152853739Y-74924341D01*
X152928200Y-74550000D01*
X152928200Y-74096881D01*
X152970096Y-74079570D01*
X153477787Y-73572765D01*
X153752887Y-72910252D01*
X153753513Y-72192895D01*
X153479570Y-71529904D01*
X152972765Y-71022213D01*
X152399296Y-70784088D01*
X158705184Y-64478200D01*
X175300000Y-64478200D01*
X175674341Y-64403739D01*
X175991692Y-64191692D01*
X176791692Y-63391692D01*
X177003739Y-63074341D01*
X177078200Y-62700000D01*
X177078200Y-56270000D01*
X177003739Y-55895659D01*
X176791692Y-55578308D01*
X176122965Y-54909581D01*
X176123486Y-54312601D01*
X175872332Y-53704761D01*
X175407685Y-53239303D01*
X174800284Y-52987088D01*
X174142601Y-52986514D01*
X173534761Y-53237668D01*
X173199824Y-53572022D01*
X172867685Y-53239303D01*
X172260284Y-52987088D01*
X171602601Y-52986514D01*
X170994761Y-53237668D01*
X170529303Y-53702315D01*
X170277088Y-54309716D01*
X170276554Y-54921800D01*
X162400000Y-54921800D01*
X162025659Y-54996261D01*
X161708308Y-55208308D01*
X143348308Y-73568308D01*
X143136261Y-73885659D01*
X143061800Y-74260000D01*
X143061800Y-84925668D01*
X142828739Y-85081394D01*
X142672988Y-85314492D01*
X142317080Y-84974493D01*
X141762941Y-84759664D01*
X141525000Y-84901903D01*
X141525000Y-86235000D01*
X141545000Y-86235000D01*
X141545000Y-86285000D01*
X141525000Y-86285000D01*
X141525000Y-86305000D01*
X141475000Y-86305000D01*
X141475000Y-86285000D01*
X141455000Y-86285000D01*
X141455000Y-86235000D01*
X141475000Y-86235000D01*
X141475000Y-84901903D01*
X141237059Y-84759664D01*
X140682920Y-84974493D01*
X140378200Y-85265592D01*
X140378200Y-84400000D01*
X140303739Y-84025659D01*
X140091692Y-83708308D01*
X138250173Y-81866789D01*
X138252887Y-81860252D01*
X138253513Y-81142895D01*
X137979570Y-80479904D01*
X137472765Y-79972213D01*
X136810252Y-79697113D01*
X136092895Y-79696487D01*
X135429904Y-79970430D01*
X134922213Y-80477235D01*
X134647113Y-81139748D01*
X134646487Y-81857105D01*
X133503200Y-81857105D01*
X133503200Y-66200000D01*
X133448270Y-65908071D01*
X133275740Y-65639952D01*
X133012490Y-65460081D01*
X132700000Y-65396800D01*
X124700000Y-65396800D01*
X124408071Y-65451730D01*
X124139952Y-65624260D01*
X123960081Y-65887510D01*
X123896800Y-66200000D01*
X123896800Y-67996800D01*
X121500000Y-67996800D01*
X121208071Y-68051730D01*
X120939952Y-68224260D01*
X120760081Y-68487510D01*
X120696800Y-68800000D01*
X120696800Y-70596800D01*
X120200324Y-70596800D01*
X119960252Y-70497113D01*
X119242895Y-70496487D01*
X119000120Y-70596800D01*
X118000000Y-70596800D01*
X117708071Y-70651730D01*
X117439952Y-70824260D01*
X117260081Y-71087510D01*
X117196800Y-71400000D01*
X117196800Y-73096800D01*
X114400000Y-73096800D01*
X114108071Y-73151730D01*
X113839952Y-73324260D01*
X113660081Y-73587510D01*
X113596800Y-73900000D01*
X113596800Y-76000000D01*
X113651730Y-76291929D01*
X113824260Y-76560048D01*
X114087510Y-76739919D01*
X114400000Y-76803200D01*
X115898426Y-76803200D01*
X116257105Y-76803513D01*
X116257863Y-76803200D01*
X127996800Y-76803200D01*
X127996800Y-87899122D01*
X127797435Y-87837920D01*
X126735355Y-88900000D01*
X127797435Y-89962080D01*
X127996800Y-89900878D01*
X127996800Y-93612841D01*
X86803200Y-93695193D01*
X86803200Y-89997435D01*
X87637920Y-89997435D01*
X87725735Y-90283493D01*
X88329336Y-90551017D01*
X88989367Y-90567187D01*
X89605345Y-90329544D01*
X89674265Y-90283493D01*
X89762080Y-89997435D01*
X88700000Y-88935355D01*
X87637920Y-89997435D01*
X86803200Y-89997435D01*
X86803200Y-89189367D01*
X87032813Y-89189367D01*
X87270456Y-89805345D01*
X87316507Y-89874265D01*
X87602565Y-89962080D01*
X88664645Y-88900000D01*
X88735355Y-88900000D01*
X89797435Y-89962080D01*
X90083493Y-89874265D01*
X90351017Y-89270664D01*
X90367187Y-88610633D01*
X90129544Y-87994655D01*
X90083493Y-87925735D01*
X89797435Y-87837920D01*
X88735355Y-88900000D01*
X88664645Y-88900000D01*
X87602565Y-87837920D01*
X87316507Y-87925735D01*
X87048983Y-88529336D01*
X87032813Y-89189367D01*
X86803200Y-89189367D01*
X86803200Y-87802565D01*
X87637920Y-87802565D01*
X88700000Y-88864645D01*
X89762080Y-87802565D01*
X89674265Y-87516507D01*
X89070664Y-87248983D01*
X88410633Y-87232813D01*
X87794655Y-87470456D01*
X87725735Y-87516507D01*
X87637920Y-87802565D01*
X86803200Y-87802565D01*
X86803200Y-66300000D01*
X86748270Y-66008071D01*
X86575740Y-65739952D01*
X86312490Y-65560081D01*
X86000000Y-65496800D01*
X78600000Y-65496800D01*
X78308071Y-65551730D01*
X78039952Y-65724260D01*
X77860081Y-65987510D01*
X77796800Y-66300000D01*
X77796800Y-67996800D01*
X76901573Y-67996800D01*
X76542895Y-67996487D01*
X76542137Y-67996800D01*
X75400000Y-67996800D01*
X75108071Y-68051730D01*
X74839952Y-68224260D01*
X74660081Y-68487510D01*
X74596800Y-68800000D01*
X74596800Y-70496800D01*
X73301573Y-70496800D01*
X72942895Y-70496487D01*
X72942137Y-70496800D01*
X71800000Y-70496800D01*
X71508071Y-70551730D01*
X71239952Y-70724260D01*
X71060081Y-70987510D01*
X70996800Y-71300000D01*
X70996800Y-72996800D01*
X68200000Y-72996800D01*
X67908071Y-73051730D01*
X67639952Y-73224260D01*
X67460081Y-73487510D01*
X67396800Y-73800000D01*
X65583384Y-73800000D01*
X74905184Y-64478200D01*
X83300000Y-64478200D01*
X83674341Y-64403739D01*
X83991692Y-64191692D01*
X84491692Y-63691692D01*
X84703739Y-63374341D01*
X84778200Y-63000000D01*
X84778200Y-62525440D01*
X88853886Y-62525440D01*
X89070873Y-63085426D01*
X89110251Y-63144360D01*
X89380724Y-63213921D01*
X90334645Y-62260000D01*
X89380724Y-61306079D01*
X89110251Y-61375640D01*
X88867714Y-61925043D01*
X88853886Y-62525440D01*
X84778200Y-62525440D01*
X84778200Y-55970000D01*
X84703739Y-55595659D01*
X84491692Y-55278308D01*
X84122965Y-54909581D01*
X84123486Y-54312601D01*
X83872332Y-53704761D01*
X83407685Y-53239303D01*
X82800284Y-52987088D01*
X82142601Y-52986514D01*
X81534761Y-53237668D01*
X81199824Y-53572022D01*
X80867685Y-53239303D01*
X80285730Y-52997654D01*
X82805184Y-50478200D01*
X85300000Y-50478200D01*
X85674341Y-50403739D01*
X85991692Y-50191692D01*
X94576584Y-41606800D01*
X94632655Y-41606800D01*
X95270512Y-41479922D01*
X95811261Y-41118606D01*
X95967012Y-40885508D01*
X96322920Y-41225507D01*
X96877059Y-41440336D01*
X97115000Y-41298097D01*
X97115000Y-39965000D01*
X97095000Y-39965000D01*
X97095000Y-39915000D01*
X97115000Y-39915000D01*
X97115000Y-39895000D01*
X97165000Y-39895000D01*
X97165000Y-39915000D01*
X97185000Y-39915000D01*
X97185000Y-39965000D01*
X97165000Y-39965000D01*
X97165000Y-41298097D01*
X97402941Y-41440336D01*
X97421800Y-41433025D01*
X97421800Y-46594816D01*
X95602118Y-48414498D01*
X95560252Y-48397113D01*
X94842895Y-48396487D01*
X94179904Y-48670430D01*
X93672213Y-49177235D01*
X93397113Y-49839748D01*
X93396487Y-50557105D01*
X93629815Y-51121800D01*
X91729446Y-51121800D01*
X91307685Y-50699303D01*
X90700284Y-50447088D01*
X90042601Y-50446514D01*
X89434761Y-50697668D01*
X88969303Y-51162315D01*
X88717088Y-51769716D01*
X88716514Y-52427399D01*
X88967668Y-53035239D01*
X89302022Y-53370176D01*
X88969303Y-53702315D01*
X88717088Y-54309716D01*
X88716514Y-54967399D01*
X88967668Y-55575239D01*
X89302022Y-55910176D01*
X88969303Y-56242315D01*
X88717088Y-56849716D01*
X88716514Y-57507399D01*
X88967668Y-58115239D01*
X89302022Y-58450176D01*
X88969303Y-58782315D01*
X88717088Y-59389716D01*
X88716514Y-60047399D01*
X88967668Y-60655239D01*
X89432315Y-61120697D01*
X89452507Y-61129081D01*
X89416079Y-61270724D01*
X90370000Y-62224645D01*
X91323921Y-61270724D01*
X91287629Y-61129608D01*
X91305239Y-61122332D01*
X91730111Y-60698200D01*
X92880460Y-60698200D01*
X92697113Y-61139748D01*
X92696487Y-61857105D01*
X92714914Y-61901702D01*
X91754226Y-62862390D01*
X91872286Y-62594957D01*
X91886114Y-61994560D01*
X91669127Y-61434574D01*
X91629749Y-61375640D01*
X91359276Y-61306079D01*
X90405355Y-62260000D01*
X90419498Y-62274143D01*
X90384143Y-62309498D01*
X90370000Y-62295355D01*
X89416079Y-63249276D01*
X89452371Y-63390392D01*
X89434761Y-63397668D01*
X88969303Y-63862315D01*
X88717088Y-64469716D01*
X88716514Y-65127399D01*
X88967668Y-65735239D01*
X89302022Y-66070176D01*
X88969303Y-66402315D01*
X88717088Y-67009716D01*
X88716514Y-67667399D01*
X88967668Y-68275239D01*
X89302022Y-68610176D01*
X88969303Y-68942315D01*
X88717088Y-69549716D01*
X88716514Y-70207399D01*
X88967668Y-70815239D01*
X89302022Y-71150176D01*
X88969303Y-71482315D01*
X88717088Y-72089716D01*
X88716514Y-72747399D01*
X88967668Y-73355239D01*
X89302022Y-73690176D01*
X88969303Y-74022315D01*
X88717088Y-74629716D01*
X88716514Y-75287399D01*
X88967668Y-75895239D01*
X89302022Y-76230176D01*
X88969303Y-76562315D01*
X88717088Y-77169716D01*
X88716514Y-77827399D01*
X88967668Y-78435239D01*
X89432315Y-78900697D01*
X90039716Y-79152912D01*
X90697399Y-79153486D01*
X91305239Y-78902332D01*
X91762489Y-78445879D01*
X91974341Y-78403739D01*
X92291692Y-78191692D01*
X101761339Y-68722045D01*
X101751800Y-68770000D01*
X101751800Y-84925668D01*
X101518739Y-85081394D01*
X101362988Y-85314492D01*
X101007080Y-84974493D01*
X100452941Y-84759664D01*
X100215000Y-84901903D01*
X100215000Y-86235000D01*
X100235000Y-86235000D01*
X100235000Y-86285000D01*
X100215000Y-86285000D01*
X100215000Y-86305000D01*
X100165000Y-86305000D01*
X100165000Y-86285000D01*
X100145000Y-86285000D01*
X100145000Y-86235000D01*
X100165000Y-86235000D01*
X100165000Y-84901903D01*
X99927059Y-84759664D01*
X99372920Y-84974493D01*
X98943174Y-85385029D01*
X98703246Y-85928772D01*
X98703065Y-85929681D01*
X97078200Y-84304816D01*
X97078200Y-82771742D01*
X97427787Y-82422765D01*
X97702887Y-81760252D01*
X97703513Y-81042895D01*
X97429570Y-80379904D01*
X96922765Y-79872213D01*
X96260252Y-79597113D01*
X95542895Y-79596487D01*
X94879904Y-79870430D01*
X94372213Y-80377235D01*
X94097113Y-81039748D01*
X94096487Y-81757105D01*
X94370430Y-82420096D01*
X94877235Y-82927787D01*
X95121800Y-83029339D01*
X95121800Y-84710000D01*
X95196261Y-85084341D01*
X95408308Y-85401692D01*
X98507465Y-88500849D01*
X98507465Y-89663600D01*
X98563471Y-89961248D01*
X98739381Y-90234619D01*
X99007788Y-90418014D01*
X99326400Y-90482535D01*
X100489151Y-90482535D01*
X100898308Y-90891692D01*
X101215659Y-91103739D01*
X101590000Y-91178200D01*
X103100000Y-91178200D01*
X103474341Y-91103739D01*
X103791692Y-90891692D01*
X104446011Y-90237373D01*
X104599488Y-90339922D01*
X105237345Y-90466800D01*
X105302655Y-90466800D01*
X105940512Y-90339922D01*
X106481261Y-89978606D01*
X106637012Y-89745508D01*
X106992920Y-90085507D01*
X107547059Y-90300336D01*
X107785000Y-90158097D01*
X107785000Y-88825000D01*
X107835000Y-88825000D01*
X107835000Y-90158097D01*
X108072941Y-90300336D01*
X108627080Y-90085507D01*
X108719273Y-89997435D01*
X125637920Y-89997435D01*
X125725735Y-90283493D01*
X126329336Y-90551017D01*
X126989367Y-90567187D01*
X127605345Y-90329544D01*
X127674265Y-90283493D01*
X127762080Y-89997435D01*
X126700000Y-88935355D01*
X125637920Y-89997435D01*
X108719273Y-89997435D01*
X109056826Y-89674971D01*
X109271100Y-89189367D01*
X125032813Y-89189367D01*
X125270456Y-89805345D01*
X125316507Y-89874265D01*
X125602565Y-89962080D01*
X126664645Y-88900000D01*
X125602565Y-87837920D01*
X125316507Y-87925735D01*
X125048983Y-88529336D01*
X125032813Y-89189367D01*
X109271100Y-89189367D01*
X109296754Y-89131228D01*
X109310334Y-89062941D01*
X109168070Y-88825000D01*
X107835000Y-88825000D01*
X107785000Y-88825000D01*
X107765000Y-88825000D01*
X107765000Y-88775000D01*
X107785000Y-88775000D01*
X107785000Y-88755000D01*
X107835000Y-88755000D01*
X107835000Y-88775000D01*
X109168070Y-88775000D01*
X109310334Y-88537059D01*
X109296754Y-88468772D01*
X109056826Y-87925029D01*
X108928632Y-87802565D01*
X125637920Y-87802565D01*
X126700000Y-88864645D01*
X127762080Y-87802565D01*
X127674265Y-87516507D01*
X127070664Y-87248983D01*
X126410633Y-87232813D01*
X125794655Y-87470456D01*
X125725735Y-87516507D01*
X125637920Y-87802565D01*
X108928632Y-87802565D01*
X108742570Y-87624821D01*
X109021261Y-87438606D01*
X109382577Y-86897857D01*
X109509455Y-86260000D01*
X109382577Y-85622143D01*
X109021261Y-85081394D01*
X108788200Y-84925668D01*
X108788200Y-72895184D01*
X112527222Y-69156162D01*
X112639748Y-69202887D01*
X113357105Y-69203513D01*
X114020096Y-68929570D01*
X114527787Y-68422765D01*
X114802887Y-67760252D01*
X114803513Y-67042895D01*
X114529570Y-66379904D01*
X114022765Y-65872213D01*
X113360252Y-65597113D01*
X113286336Y-65597048D01*
X114405184Y-64478200D01*
X129000000Y-64478200D01*
X129374341Y-64403739D01*
X129691692Y-64191692D01*
X130591692Y-63291692D01*
X130803739Y-62974341D01*
X130878200Y-62600000D01*
X130878200Y-62525440D01*
X134853886Y-62525440D01*
X135070873Y-63085426D01*
X135110251Y-63144360D01*
X135380724Y-63213921D01*
X136334645Y-62260000D01*
X136405355Y-62260000D01*
X137359276Y-63213921D01*
X137629749Y-63144360D01*
X137872286Y-62594957D01*
X137886114Y-61994560D01*
X137669127Y-61434574D01*
X137629749Y-61375640D01*
X137359276Y-61306079D01*
X136405355Y-62260000D01*
X136334645Y-62260000D01*
X135380724Y-61306079D01*
X135110251Y-61375640D01*
X134867714Y-61925043D01*
X134853886Y-62525440D01*
X130878200Y-62525440D01*
X130878200Y-56070000D01*
X130803739Y-55695659D01*
X130591692Y-55378308D01*
X130122965Y-54909581D01*
X130123486Y-54312601D01*
X129872332Y-53704761D01*
X129407685Y-53239303D01*
X128800284Y-52987088D01*
X128142601Y-52986514D01*
X127534761Y-53237668D01*
X127199824Y-53572022D01*
X126867685Y-53239303D01*
X126260284Y-52987088D01*
X125602601Y-52986514D01*
X124994761Y-53237668D01*
X124529303Y-53702315D01*
X124277088Y-54309716D01*
X124276554Y-54921800D01*
X115600005Y-54921800D01*
X115600000Y-54921799D01*
X115225659Y-54996261D01*
X114908308Y-55208308D01*
X114551885Y-55564731D01*
X114802887Y-54960252D01*
X114803513Y-54242895D01*
X114529570Y-53579904D01*
X114178200Y-53227920D01*
X114178200Y-50700000D01*
X114158938Y-50603166D01*
X114557105Y-50603513D01*
X115220096Y-50329570D01*
X115727787Y-49822765D01*
X116002887Y-49160252D01*
X116003513Y-48442895D01*
X115729570Y-47779904D01*
X115222765Y-47272213D01*
X114678200Y-47046089D01*
X114678200Y-46328579D01*
X114777235Y-46427787D01*
X115439748Y-46702887D01*
X116157105Y-46703513D01*
X116820096Y-46429570D01*
X117327787Y-45922765D01*
X117602887Y-45260252D01*
X117603513Y-44542895D01*
X117329570Y-43879904D01*
X117178200Y-43728269D01*
X117178200Y-41433025D01*
X117197059Y-41440336D01*
X117435000Y-41298097D01*
X117435000Y-39965000D01*
X117415000Y-39965000D01*
X117415000Y-39915000D01*
X117435000Y-39915000D01*
X117435000Y-37425000D01*
X117415000Y-37425000D01*
X117415000Y-37375000D01*
X117435000Y-37375000D01*
X117435000Y-36041903D01*
X117197059Y-35899664D01*
X116642920Y-36114493D01*
X116287012Y-36454492D01*
X116131261Y-36221394D01*
X115590512Y-35860078D01*
X114952655Y-35733200D01*
X114887345Y-35733200D01*
X114249488Y-35860078D01*
X113708739Y-36221394D01*
X113650000Y-36309303D01*
X113591261Y-36221394D01*
X113050512Y-35860078D01*
X112412655Y-35733200D01*
X112347345Y-35733200D01*
X111709488Y-35860078D01*
X111168739Y-36221394D01*
X111110000Y-36309303D01*
X111051261Y-36221394D01*
X110510512Y-35860078D01*
X109872655Y-35733200D01*
X109807345Y-35733200D01*
X109169488Y-35860078D01*
X108628739Y-36221394D01*
X108570000Y-36309303D01*
X108511261Y-36221394D01*
X107970512Y-35860078D01*
X107332655Y-35733200D01*
X107267345Y-35733200D01*
X106629488Y-35860078D01*
X106088739Y-36221394D01*
X106030000Y-36309303D01*
X105971261Y-36221394D01*
X105430512Y-35860078D01*
X104792655Y-35733200D01*
X104727345Y-35733200D01*
X104518188Y-35774804D01*
X104051692Y-35308308D01*
X103734341Y-35096261D01*
X103360000Y-35021800D01*
X99000000Y-35021800D01*
X98625659Y-35096261D01*
X98308308Y-35308308D01*
X97765493Y-35851123D01*
X97172655Y-35733200D01*
X97107345Y-35733200D01*
X96898188Y-35774804D01*
X94117284Y-32993900D01*
X123329871Y-32993900D01*
X123308308Y-33008308D01*
X120492039Y-35824577D01*
X120032655Y-35733200D01*
X119967345Y-35733200D01*
X119329488Y-35860078D01*
X118788739Y-36221394D01*
X118632988Y-36454492D01*
X118277080Y-36114493D01*
X117722941Y-35899664D01*
X117485000Y-36041903D01*
X117485000Y-37375000D01*
X117505000Y-37375000D01*
X117505000Y-37425000D01*
X117485000Y-37425000D01*
X117485000Y-39915000D01*
X117505000Y-39915000D01*
X117505000Y-39965000D01*
X117485000Y-39965000D01*
X117485000Y-41298097D01*
X117722941Y-41440336D01*
X118277080Y-41225507D01*
X118632988Y-40885508D01*
X118788739Y-41118606D01*
X119021800Y-41274332D01*
X119021800Y-43911800D01*
X118879904Y-43970430D01*
X118372213Y-44477235D01*
X118097113Y-45139748D01*
X118096487Y-45857105D01*
X118370430Y-46520096D01*
X118877235Y-47027787D01*
X119539748Y-47302887D01*
X120257105Y-47303513D01*
X120920096Y-47029570D01*
X121200044Y-46750111D01*
X121477235Y-47027787D01*
X122139748Y-47302887D01*
X122857105Y-47303513D01*
X123520096Y-47029570D01*
X123800044Y-46750111D01*
X124077235Y-47027787D01*
X124739748Y-47302887D01*
X125457105Y-47303513D01*
X126120096Y-47029570D01*
X126400044Y-46750111D01*
X126677235Y-47027787D01*
X127339748Y-47302887D01*
X128057105Y-47303513D01*
X128720096Y-47029570D01*
X129100218Y-46650111D01*
X129477235Y-47027787D01*
X130139748Y-47302887D01*
X130857105Y-47303513D01*
X131520096Y-47029570D01*
X132000393Y-46550111D01*
X132477235Y-47027787D01*
X133139748Y-47302887D01*
X133857105Y-47303513D01*
X134520096Y-47029570D01*
X135027787Y-46522765D01*
X135302887Y-45860252D01*
X135303513Y-45142895D01*
X135029570Y-44479904D01*
X134522765Y-43972213D01*
X133860252Y-43697113D01*
X133678200Y-43696954D01*
X133678200Y-41274332D01*
X133911261Y-41118606D01*
X134272577Y-40577857D01*
X134399455Y-39940000D01*
X134272577Y-39302143D01*
X134020112Y-38924302D01*
X134134619Y-38850619D01*
X134318014Y-38582212D01*
X134359328Y-38378200D01*
X134694816Y-38378200D01*
X135391800Y-39075184D01*
X135391800Y-50740554D01*
X134969303Y-51162315D01*
X134717088Y-51769716D01*
X134716514Y-52427399D01*
X134967668Y-53035239D01*
X135302022Y-53370176D01*
X134969303Y-53702315D01*
X134717088Y-54309716D01*
X134716514Y-54967399D01*
X134967668Y-55575239D01*
X135302022Y-55910176D01*
X134969303Y-56242315D01*
X134717088Y-56849716D01*
X134716514Y-57507399D01*
X134967668Y-58115239D01*
X135302022Y-58450176D01*
X134969303Y-58782315D01*
X134717088Y-59389716D01*
X134716514Y-60047399D01*
X134967668Y-60655239D01*
X135432315Y-61120697D01*
X135452507Y-61129081D01*
X135416079Y-61270724D01*
X136370000Y-62224645D01*
X137323921Y-61270724D01*
X137287629Y-61129608D01*
X137305239Y-61122332D01*
X137770697Y-60657685D01*
X138022912Y-60050284D01*
X138023436Y-59449948D01*
X139721800Y-57751584D01*
X139721800Y-61294816D01*
X137462364Y-63554252D01*
X137307685Y-63399303D01*
X137287493Y-63390919D01*
X137323921Y-63249276D01*
X136370000Y-62295355D01*
X135416079Y-63249276D01*
X135452371Y-63390392D01*
X135434761Y-63397668D01*
X134969303Y-63862315D01*
X134717088Y-64469716D01*
X134716514Y-65127399D01*
X134967668Y-65735239D01*
X135302022Y-66070176D01*
X134969303Y-66402315D01*
X134717088Y-67009716D01*
X134716514Y-67667399D01*
X134967668Y-68275239D01*
X135302022Y-68610176D01*
X134969303Y-68942315D01*
X134717088Y-69549716D01*
X134716514Y-70207399D01*
X134967668Y-70815239D01*
X135302022Y-71150176D01*
X134969303Y-71482315D01*
X134717088Y-72089716D01*
X134716514Y-72747399D01*
X134967668Y-73355239D01*
X135302022Y-73690176D01*
X134969303Y-74022315D01*
X134717088Y-74629716D01*
X134716514Y-75287399D01*
X134967668Y-75895239D01*
X135302022Y-76230176D01*
X134969303Y-76562315D01*
X134717088Y-77169716D01*
X134716514Y-77827399D01*
X134967668Y-78435239D01*
X135432315Y-78900697D01*
X136039716Y-79152912D01*
X136697399Y-79153486D01*
X137305239Y-78902332D01*
X137770697Y-78437685D01*
X138022912Y-77830284D01*
X138023486Y-77172601D01*
X137772332Y-76564761D01*
X137437978Y-76229824D01*
X137770697Y-75897685D01*
X138022912Y-75290284D01*
X138023486Y-74632601D01*
X137772332Y-74024761D01*
X137437978Y-73689824D01*
X137770697Y-73357685D01*
X138022912Y-72750284D01*
X138023486Y-72092601D01*
X137772332Y-71484761D01*
X137437978Y-71149824D01*
X137770697Y-70817685D01*
X138022912Y-70210284D01*
X138023486Y-69552601D01*
X137772332Y-68944761D01*
X137437978Y-68609824D01*
X137770697Y-68277685D01*
X138022912Y-67670284D01*
X138023436Y-67069948D01*
X142291692Y-62801692D01*
X142503739Y-62484341D01*
X142578200Y-62110000D01*
X142578200Y-38997382D01*
X188422237Y-38997382D01*
X188656752Y-39354009D01*
X189660328Y-39689145D01*
X190715762Y-39614719D01*
X191345168Y-39354009D01*
X191579683Y-38997382D01*
X190000960Y-37418659D01*
X188422237Y-38997382D01*
X142578200Y-38997382D01*
X142578200Y-38900005D01*
X142578201Y-38900000D01*
X142503739Y-38525659D01*
X142291692Y-38208308D01*
X140741672Y-36658288D01*
X187310735Y-36658288D01*
X187385161Y-37713722D01*
X187645871Y-38343128D01*
X188002498Y-38577643D01*
X189581221Y-36998920D01*
X190420699Y-36998920D01*
X191999422Y-38577643D01*
X192356049Y-38343128D01*
X192691185Y-37339552D01*
X192616759Y-36284118D01*
X192356049Y-35654712D01*
X191999422Y-35420197D01*
X190420699Y-36998920D01*
X189581221Y-36998920D01*
X188002498Y-35420197D01*
X187645871Y-35654712D01*
X187310735Y-36658288D01*
X140741672Y-36658288D01*
X139083842Y-35000458D01*
X188422237Y-35000458D01*
X190000960Y-36579181D01*
X191579683Y-35000458D01*
X191345168Y-34643831D01*
X190341592Y-34308695D01*
X189286158Y-34383121D01*
X188656752Y-34643831D01*
X188422237Y-35000458D01*
X139083842Y-35000458D01*
X137091692Y-33008308D01*
X137070129Y-32993900D01*
X194005980Y-32993900D01*
X194005980Y-110396800D01*
X188400000Y-110396800D01*
X188108071Y-110451730D01*
X187839952Y-110624260D01*
X187660081Y-110887510D01*
X187596800Y-111200000D01*
X187596800Y-119600000D01*
X187651730Y-119891929D01*
X187824260Y-120160048D01*
X188087510Y-120339919D01*
X188400000Y-120403200D01*
X194005980Y-120403200D01*
X194005980Y-131006300D01*
X35993700Y-131006300D01*
X35993700Y-128997202D01*
X38422537Y-128997202D01*
X38657052Y-129353829D01*
X39660628Y-129688965D01*
X40716062Y-129614539D01*
X41345468Y-129353829D01*
X41579983Y-128997202D01*
X40001260Y-127418479D01*
X38422537Y-128997202D01*
X35993700Y-128997202D01*
X35993700Y-126658108D01*
X37311035Y-126658108D01*
X37385461Y-127713542D01*
X37646171Y-128342948D01*
X38002798Y-128577463D01*
X39581521Y-126998740D01*
X40420999Y-126998740D01*
X41999722Y-128577463D01*
X42356349Y-128342948D01*
X42470873Y-128000000D01*
X48196800Y-128000000D01*
X48372121Y-128881396D01*
X48871392Y-129628608D01*
X49618604Y-130127879D01*
X50500000Y-130303200D01*
X54969341Y-130303200D01*
X55012981Y-130371019D01*
X55281388Y-130554414D01*
X55600000Y-130618935D01*
X57400000Y-130618935D01*
X57697648Y-130562929D01*
X57971019Y-130387019D01*
X58154414Y-130118612D01*
X58218935Y-129800000D01*
X58218935Y-129493424D01*
X58250000Y-129446932D01*
X58371392Y-129628608D01*
X58502024Y-129715894D01*
X58795656Y-130155344D01*
X59348214Y-130524552D01*
X60000000Y-130654200D01*
X60651786Y-130524552D01*
X61204344Y-130155344D01*
X61497976Y-129715894D01*
X61628608Y-129628608D01*
X61750000Y-129446932D01*
X61871392Y-129628608D01*
X62002024Y-129715894D01*
X62295656Y-130155344D01*
X62848214Y-130524552D01*
X63500000Y-130654200D01*
X64151786Y-130524552D01*
X64704344Y-130155344D01*
X64997976Y-129715894D01*
X65128608Y-129628608D01*
X65362081Y-129279191D01*
X65426448Y-129602786D01*
X65795656Y-130155344D01*
X66348214Y-130524552D01*
X67000000Y-130654200D01*
X67651786Y-130524552D01*
X68204344Y-130155344D01*
X68573552Y-129602786D01*
X68703200Y-128951000D01*
X68703200Y-128000000D01*
X97196800Y-128000000D01*
X97372121Y-128881396D01*
X97871392Y-129628608D01*
X98618604Y-130127879D01*
X99500000Y-130303200D01*
X103669341Y-130303200D01*
X103712981Y-130371019D01*
X103981388Y-130554414D01*
X104300000Y-130618935D01*
X106100000Y-130618935D01*
X106397648Y-130562929D01*
X106671019Y-130387019D01*
X106854414Y-130118612D01*
X106918935Y-129800000D01*
X106918935Y-129493424D01*
X106950000Y-129446932D01*
X107071392Y-129628608D01*
X107202024Y-129715894D01*
X107495656Y-130155344D01*
X108048214Y-130524552D01*
X108700000Y-130654200D01*
X109351786Y-130524552D01*
X109904344Y-130155344D01*
X110197976Y-129715894D01*
X110328608Y-129628608D01*
X110450000Y-129446932D01*
X110571392Y-129628608D01*
X110702024Y-129715894D01*
X110995656Y-130155344D01*
X111548214Y-130524552D01*
X112200000Y-130654200D01*
X112851786Y-130524552D01*
X113404344Y-130155344D01*
X113697976Y-129715894D01*
X113828608Y-129628608D01*
X114062081Y-129279191D01*
X114126448Y-129602786D01*
X114495656Y-130155344D01*
X115048214Y-130524552D01*
X115700000Y-130654200D01*
X116351786Y-130524552D01*
X116904344Y-130155344D01*
X117273552Y-129602786D01*
X117403200Y-128951000D01*
X117403200Y-128000000D01*
X149096800Y-128000000D01*
X149272121Y-128881396D01*
X149771392Y-129628608D01*
X150518604Y-130127879D01*
X151400000Y-130303200D01*
X154869341Y-130303200D01*
X154912981Y-130371019D01*
X155181388Y-130554414D01*
X155500000Y-130618935D01*
X157300000Y-130618935D01*
X157597648Y-130562929D01*
X157871019Y-130387019D01*
X158054414Y-130118612D01*
X158118935Y-129800000D01*
X158118935Y-129493424D01*
X158150000Y-129446932D01*
X158271392Y-129628608D01*
X158402024Y-129715894D01*
X158695656Y-130155344D01*
X159248214Y-130524552D01*
X159900000Y-130654200D01*
X160551786Y-130524552D01*
X161104344Y-130155344D01*
X161397976Y-129715894D01*
X161528608Y-129628608D01*
X161650000Y-129446932D01*
X161771392Y-129628608D01*
X161902024Y-129715894D01*
X162195656Y-130155344D01*
X162748214Y-130524552D01*
X163400000Y-130654200D01*
X164051786Y-130524552D01*
X164604344Y-130155344D01*
X164897976Y-129715894D01*
X165028608Y-129628608D01*
X165262081Y-129279191D01*
X165326448Y-129602786D01*
X165695656Y-130155344D01*
X166248214Y-130524552D01*
X166900000Y-130654200D01*
X167551786Y-130524552D01*
X168104344Y-130155344D01*
X168473552Y-129602786D01*
X168594009Y-128997202D01*
X188422237Y-128997202D01*
X188656752Y-129353829D01*
X189660328Y-129688965D01*
X190715762Y-129614539D01*
X191345168Y-129353829D01*
X191579683Y-128997202D01*
X190000960Y-127418479D01*
X188422237Y-128997202D01*
X168594009Y-128997202D01*
X168603200Y-128951000D01*
X168603200Y-127049000D01*
X168525447Y-126658108D01*
X187310735Y-126658108D01*
X187385161Y-127713542D01*
X187645871Y-128342948D01*
X188002498Y-128577463D01*
X189581221Y-126998740D01*
X190420699Y-126998740D01*
X191999422Y-128577463D01*
X192356049Y-128342948D01*
X192691185Y-127339372D01*
X192616759Y-126283938D01*
X192356049Y-125654532D01*
X191999422Y-125420017D01*
X190420699Y-126998740D01*
X189581221Y-126998740D01*
X188002498Y-125420017D01*
X187645871Y-125654532D01*
X187310735Y-126658108D01*
X168525447Y-126658108D01*
X168473552Y-126397214D01*
X168143462Y-125903200D01*
X171600000Y-125903200D01*
X172481396Y-125727879D01*
X173228608Y-125228608D01*
X173381173Y-125000278D01*
X188422237Y-125000278D01*
X190000960Y-126579001D01*
X191579683Y-125000278D01*
X191345168Y-124643651D01*
X190341592Y-124308515D01*
X189286158Y-124382941D01*
X188656752Y-124643651D01*
X188422237Y-125000278D01*
X173381173Y-125000278D01*
X173727879Y-124481396D01*
X173903200Y-123600000D01*
X173727879Y-122718604D01*
X173228608Y-121971392D01*
X172481396Y-121472121D01*
X171600000Y-121296800D01*
X164400000Y-121296800D01*
X163518604Y-121472121D01*
X162771392Y-121971391D01*
X162203200Y-122539584D01*
X162203200Y-121700000D01*
X162027879Y-120818604D01*
X161528608Y-120071392D01*
X160781396Y-119572121D01*
X159900000Y-119396800D01*
X159018604Y-119572121D01*
X158271392Y-120071392D01*
X157772121Y-120818604D01*
X157596800Y-121700000D01*
X157596800Y-125441169D01*
X157300000Y-125381065D01*
X155500000Y-125381065D01*
X155202352Y-125437071D01*
X154928981Y-125612981D01*
X154871710Y-125696800D01*
X151400000Y-125696800D01*
X150518604Y-125872121D01*
X149771392Y-126371392D01*
X149272121Y-127118604D01*
X149096800Y-128000000D01*
X117403200Y-128000000D01*
X117403200Y-127049000D01*
X117273552Y-126397214D01*
X117010280Y-126003200D01*
X120500000Y-126003200D01*
X121381396Y-125827879D01*
X122128608Y-125328608D01*
X122627879Y-124581396D01*
X122803200Y-123700000D01*
X122627879Y-122818604D01*
X122128608Y-122071392D01*
X121381396Y-121572121D01*
X120500000Y-121396800D01*
X113100000Y-121396800D01*
X112364836Y-121543033D01*
X112218603Y-121572121D01*
X111471392Y-122071392D01*
X111003200Y-122539584D01*
X111003200Y-121600000D01*
X110827879Y-120718604D01*
X110328608Y-119971392D01*
X109581396Y-119472121D01*
X108700000Y-119296800D01*
X107818604Y-119472121D01*
X107071392Y-119971392D01*
X106572121Y-120718604D01*
X106396800Y-121600000D01*
X106396800Y-125441169D01*
X106100000Y-125381065D01*
X104300000Y-125381065D01*
X104002352Y-125437071D01*
X103728981Y-125612981D01*
X103671710Y-125696800D01*
X99500000Y-125696800D01*
X98618604Y-125872121D01*
X97871392Y-126371392D01*
X97372121Y-127118604D01*
X97196800Y-128000000D01*
X68703200Y-128000000D01*
X68703200Y-127049000D01*
X68573552Y-126397214D01*
X68204344Y-125844656D01*
X67992640Y-125703200D01*
X72500000Y-125703200D01*
X73381396Y-125527879D01*
X74128608Y-125028608D01*
X74627879Y-124281396D01*
X74803200Y-123400000D01*
X74627879Y-122518604D01*
X74128608Y-121771392D01*
X73381396Y-121272121D01*
X72500000Y-121096800D01*
X64600000Y-121096800D01*
X63718603Y-121272121D01*
X62971391Y-121771392D01*
X62872354Y-121870430D01*
X62303200Y-122439584D01*
X62303200Y-122000000D01*
X62127879Y-121118604D01*
X61628608Y-120371392D01*
X60881396Y-119872121D01*
X60000000Y-119696800D01*
X59118604Y-119872121D01*
X58371392Y-120371392D01*
X57872121Y-121118604D01*
X57696800Y-122000000D01*
X57696800Y-125441169D01*
X57400000Y-125381065D01*
X55600000Y-125381065D01*
X55302352Y-125437071D01*
X55028981Y-125612981D01*
X54971710Y-125696800D01*
X50500000Y-125696800D01*
X49618604Y-125872121D01*
X48871392Y-126371392D01*
X48372121Y-127118604D01*
X48196800Y-128000000D01*
X42470873Y-128000000D01*
X42691485Y-127339372D01*
X42617059Y-126283938D01*
X42356349Y-125654532D01*
X41999722Y-125420017D01*
X40420999Y-126998740D01*
X39581521Y-126998740D01*
X38002798Y-125420017D01*
X37646171Y-125654532D01*
X37311035Y-126658108D01*
X35993700Y-126658108D01*
X35993700Y-125000278D01*
X38422537Y-125000278D01*
X40001260Y-126579001D01*
X41579983Y-125000278D01*
X41345468Y-124643651D01*
X40341892Y-124308515D01*
X39286458Y-124382941D01*
X38657052Y-124643651D01*
X38422537Y-125000278D01*
X35993700Y-125000278D01*
X35993700Y-62525440D01*
X42853886Y-62525440D01*
X43070873Y-63085426D01*
X43110251Y-63144360D01*
X43380724Y-63213921D01*
X44334645Y-62260000D01*
X44405355Y-62260000D01*
X45359276Y-63213921D01*
X45629749Y-63144360D01*
X45872286Y-62594957D01*
X45886114Y-61994560D01*
X45669127Y-61434574D01*
X45629749Y-61375640D01*
X45359276Y-61306079D01*
X44405355Y-62260000D01*
X44334645Y-62260000D01*
X43380724Y-61306079D01*
X43110251Y-61375640D01*
X42867714Y-61925043D01*
X42853886Y-62525440D01*
X35993700Y-62525440D01*
X35993700Y-38997382D01*
X38422537Y-38997382D01*
X38657052Y-39354009D01*
X39660628Y-39689145D01*
X40716062Y-39614719D01*
X41345468Y-39354009D01*
X41579983Y-38997382D01*
X40001260Y-37418659D01*
X38422537Y-38997382D01*
X35993700Y-38997382D01*
X35993700Y-36658288D01*
X37311035Y-36658288D01*
X37385461Y-37713722D01*
X37646171Y-38343128D01*
X38002798Y-38577643D01*
X39581521Y-36998920D01*
X40420999Y-36998920D01*
X41999722Y-38577643D01*
X42356349Y-38343128D01*
X42691485Y-37339552D01*
X42617059Y-36284118D01*
X42356349Y-35654712D01*
X41999722Y-35420197D01*
X40420999Y-36998920D01*
X39581521Y-36998920D01*
X38002798Y-35420197D01*
X37646171Y-35654712D01*
X37311035Y-36658288D01*
X35993700Y-36658288D01*
X35993700Y-35000458D01*
X38422537Y-35000458D01*
X40001260Y-36579181D01*
X41579983Y-35000458D01*
X41345468Y-34643831D01*
X40341892Y-34308695D01*
X39286458Y-34383121D01*
X38657052Y-34643831D01*
X38422537Y-35000458D01*
X35993700Y-35000458D01*
X35993700Y-32992496D01*
X36000760Y-32993900D01*
X36000760Y-32993900D01*
G37*
X36000760Y-32993900D02*
X80522716Y-32993900D01*
X62394816Y-51121800D01*
X45729446Y-51121800D01*
X45307685Y-50699303D01*
X44700284Y-50447088D01*
X44042601Y-50446514D01*
X43434761Y-50697668D01*
X42969303Y-51162315D01*
X42717088Y-51769716D01*
X42716514Y-52427399D01*
X42967668Y-53035239D01*
X43302022Y-53370176D01*
X42969303Y-53702315D01*
X42717088Y-54309716D01*
X42716514Y-54967399D01*
X42967668Y-55575239D01*
X43302022Y-55910176D01*
X42969303Y-56242315D01*
X42717088Y-56849716D01*
X42716514Y-57507399D01*
X42967668Y-58115239D01*
X43302022Y-58450176D01*
X42969303Y-58782315D01*
X42717088Y-59389716D01*
X42716514Y-60047399D01*
X42967668Y-60655239D01*
X43432315Y-61120697D01*
X43452507Y-61129081D01*
X43416079Y-61270724D01*
X44370000Y-62224645D01*
X45323921Y-61270724D01*
X45287629Y-61129608D01*
X45305239Y-61122332D01*
X45730111Y-60698200D01*
X57618416Y-60698200D01*
X54494816Y-63821800D01*
X45729446Y-63821800D01*
X45307685Y-63399303D01*
X45287493Y-63390919D01*
X45323921Y-63249276D01*
X44370000Y-62295355D01*
X43416079Y-63249276D01*
X43452371Y-63390392D01*
X43434761Y-63397668D01*
X42969303Y-63862315D01*
X42717088Y-64469716D01*
X42716514Y-65127399D01*
X42967668Y-65735239D01*
X43302022Y-66070176D01*
X42969303Y-66402315D01*
X42717088Y-67009716D01*
X42716514Y-67667399D01*
X42967668Y-68275239D01*
X43302022Y-68610176D01*
X42969303Y-68942315D01*
X42717088Y-69549716D01*
X42716514Y-70207399D01*
X42967668Y-70815239D01*
X43302022Y-71150176D01*
X42969303Y-71482315D01*
X42717088Y-72089716D01*
X42716514Y-72747399D01*
X42967668Y-73355239D01*
X43302022Y-73690176D01*
X42969303Y-74022315D01*
X42717088Y-74629716D01*
X42716514Y-75287399D01*
X42967668Y-75895239D01*
X43302022Y-76230176D01*
X42969303Y-76562315D01*
X42717088Y-77169716D01*
X42716514Y-77827399D01*
X42967668Y-78435239D01*
X43432315Y-78900697D01*
X44039716Y-79152912D01*
X44697399Y-79153486D01*
X45305239Y-78902332D01*
X45730111Y-78478200D01*
X49800000Y-78478200D01*
X50174341Y-78403739D01*
X50491692Y-78191692D01*
X79005184Y-49678200D01*
X80838416Y-49678200D01*
X65402118Y-65114498D01*
X65360252Y-65097113D01*
X64642895Y-65096487D01*
X63979904Y-65370430D01*
X63472213Y-65877235D01*
X63197113Y-66539748D01*
X63196487Y-67257105D01*
X63470430Y-67920096D01*
X63977235Y-68427787D01*
X64639748Y-68702887D01*
X64713664Y-68702952D01*
X55038308Y-78378308D01*
X54826261Y-78695659D01*
X54751800Y-79070000D01*
X54751800Y-84925668D01*
X54518739Y-85081394D01*
X54362988Y-85314492D01*
X54007080Y-84974493D01*
X53452941Y-84759664D01*
X53215000Y-84901903D01*
X53215000Y-86235000D01*
X53235000Y-86235000D01*
X53235000Y-86285000D01*
X53215000Y-86285000D01*
X53215000Y-86305000D01*
X53165000Y-86305000D01*
X53165000Y-86285000D01*
X53145000Y-86285000D01*
X53145000Y-86235000D01*
X53165000Y-86235000D01*
X53165000Y-84901903D01*
X52927059Y-84759664D01*
X52372920Y-84974493D01*
X51943174Y-85385029D01*
X51705974Y-85922590D01*
X51078200Y-85294816D01*
X51078200Y-83146881D01*
X51120096Y-83129570D01*
X51627787Y-82622765D01*
X51902887Y-81960252D01*
X51903513Y-81242895D01*
X51629570Y-80579904D01*
X51122765Y-80072213D01*
X50460252Y-79797113D01*
X49742895Y-79796487D01*
X49079904Y-80070430D01*
X48572213Y-80577235D01*
X48297113Y-81239748D01*
X48296487Y-81957105D01*
X48570430Y-82620096D01*
X49077235Y-83127787D01*
X49121800Y-83146292D01*
X49121800Y-85700000D01*
X49196261Y-86074341D01*
X49408308Y-86391692D01*
X51507465Y-88490849D01*
X51507465Y-89663600D01*
X51563471Y-89961248D01*
X51739381Y-90234619D01*
X52007788Y-90418014D01*
X52326400Y-90482535D01*
X53489151Y-90482535D01*
X53998308Y-90991692D01*
X54315659Y-91203739D01*
X54690000Y-91278200D01*
X56200000Y-91278200D01*
X56574341Y-91203739D01*
X56891692Y-90991692D01*
X57565903Y-90317481D01*
X57599488Y-90339922D01*
X58237345Y-90466800D01*
X58302655Y-90466800D01*
X58940512Y-90339922D01*
X59481261Y-89978606D01*
X59637012Y-89745508D01*
X59992920Y-90085507D01*
X60547059Y-90300336D01*
X60785000Y-90158097D01*
X60785000Y-88825000D01*
X60835000Y-88825000D01*
X60835000Y-90158097D01*
X61072941Y-90300336D01*
X61627080Y-90085507D01*
X62056826Y-89674971D01*
X62296754Y-89131228D01*
X62310334Y-89062941D01*
X62168070Y-88825000D01*
X60835000Y-88825000D01*
X60785000Y-88825000D01*
X60765000Y-88825000D01*
X60765000Y-88775000D01*
X60785000Y-88775000D01*
X60785000Y-88755000D01*
X60835000Y-88755000D01*
X60835000Y-88775000D01*
X62168070Y-88775000D01*
X62310334Y-88537059D01*
X62296754Y-88468772D01*
X62056826Y-87925029D01*
X61742570Y-87624821D01*
X62021261Y-87438606D01*
X62382577Y-86897857D01*
X62509455Y-86260000D01*
X62382577Y-85622143D01*
X62021261Y-85081394D01*
X61788200Y-84925668D01*
X61788200Y-84195184D01*
X64597882Y-81385502D01*
X64639748Y-81402887D01*
X65357105Y-81403513D01*
X66020096Y-81129570D01*
X66527787Y-80622765D01*
X66802887Y-79960252D01*
X66803513Y-79242895D01*
X66529570Y-78579904D01*
X66022765Y-78072213D01*
X65360252Y-77797113D01*
X64642895Y-77796487D01*
X63979904Y-78070430D01*
X63472213Y-78577235D01*
X63197113Y-79239748D01*
X63196487Y-79957105D01*
X63214914Y-80001702D01*
X60478200Y-82738416D01*
X60478200Y-78905184D01*
X65583384Y-73800000D01*
X67396800Y-73800000D01*
X67396800Y-76300000D01*
X67451730Y-76591929D01*
X67624260Y-76860048D01*
X67887510Y-77039919D01*
X68200000Y-77103200D01*
X78196800Y-77103200D01*
X78196800Y-100300000D01*
X78252305Y-100593397D01*
X78425360Y-100861177D01*
X78688963Y-101040531D01*
X79001576Y-101103198D01*
X180901576Y-100903198D01*
X181191929Y-100848270D01*
X181460048Y-100675740D01*
X181639919Y-100412490D01*
X181703200Y-100100000D01*
X181703200Y-89997435D01*
X182237920Y-89997435D01*
X182325735Y-90283493D01*
X182929336Y-90551017D01*
X183589367Y-90567187D01*
X184205345Y-90329544D01*
X184274265Y-90283493D01*
X184362080Y-89997435D01*
X183300000Y-88935355D01*
X182237920Y-89997435D01*
X181703200Y-89997435D01*
X181703200Y-89371812D01*
X181870456Y-89805345D01*
X181916507Y-89874265D01*
X182202565Y-89962080D01*
X183264645Y-88900000D01*
X183335355Y-88900000D01*
X184397435Y-89962080D01*
X184683493Y-89874265D01*
X184951017Y-89270664D01*
X184967187Y-88610633D01*
X184729544Y-87994655D01*
X184683493Y-87925735D01*
X184397435Y-87837920D01*
X183335355Y-88900000D01*
X183264645Y-88900000D01*
X182202565Y-87837920D01*
X181916507Y-87925735D01*
X181703200Y-88407009D01*
X181703200Y-87802565D01*
X182237920Y-87802565D01*
X183300000Y-88864645D01*
X184362080Y-87802565D01*
X184274265Y-87516507D01*
X183670664Y-87248983D01*
X183010633Y-87232813D01*
X182394655Y-87470456D01*
X182325735Y-87516507D01*
X182237920Y-87802565D01*
X181703200Y-87802565D01*
X181703200Y-66100000D01*
X181648270Y-65808071D01*
X181475740Y-65539952D01*
X181212490Y-65360081D01*
X180900000Y-65296800D01*
X170700000Y-65296800D01*
X170408071Y-65351730D01*
X170139952Y-65524260D01*
X169960081Y-65787510D01*
X169896800Y-66100000D01*
X169896800Y-67996800D01*
X167400000Y-67996800D01*
X167108071Y-68051730D01*
X166839952Y-68224260D01*
X166660081Y-68487510D01*
X166596800Y-68800000D01*
X166596800Y-70596800D01*
X165301573Y-70596800D01*
X164942895Y-70596487D01*
X164942137Y-70596800D01*
X163800000Y-70596800D01*
X163508071Y-70651730D01*
X163239952Y-70824260D01*
X163060081Y-71087510D01*
X162996800Y-71400000D01*
X162996800Y-73196800D01*
X160200000Y-73196800D01*
X159908071Y-73251730D01*
X159639952Y-73424260D01*
X159460081Y-73687510D01*
X159396800Y-74000000D01*
X159396800Y-76200000D01*
X159451730Y-76491929D01*
X159624260Y-76760048D01*
X159887510Y-76939919D01*
X160200000Y-77003200D01*
X161698426Y-77003200D01*
X162057105Y-77003513D01*
X162057863Y-77003200D01*
X170496800Y-77003200D01*
X170496800Y-93514064D01*
X139033922Y-93398026D01*
X133515004Y-87879108D01*
X133503200Y-87816375D01*
X133503200Y-81857105D01*
X134646487Y-81857105D01*
X134920430Y-82520096D01*
X135427235Y-83027787D01*
X136089748Y-83302887D01*
X136807105Y-83303513D01*
X136887083Y-83270467D01*
X138421800Y-84805184D01*
X138421800Y-86700000D01*
X138496261Y-87074341D01*
X138708308Y-87391692D01*
X139817465Y-88500849D01*
X139817465Y-89663600D01*
X139873471Y-89961248D01*
X140049381Y-90234619D01*
X140317788Y-90418014D01*
X140636400Y-90482535D01*
X141749151Y-90482535D01*
X142008308Y-90741692D01*
X142325659Y-90953739D01*
X142700000Y-91028200D01*
X147400000Y-91028200D01*
X147774341Y-90953739D01*
X148091692Y-90741692D01*
X148541692Y-90291692D01*
X148601989Y-90201450D01*
X148857059Y-90300336D01*
X149095000Y-90158097D01*
X149095000Y-88825000D01*
X149075000Y-88825000D01*
X149075000Y-88775000D01*
X149095000Y-88775000D01*
X149095000Y-88755000D01*
X149145000Y-88755000D01*
X149145000Y-88775000D01*
X149165000Y-88775000D01*
X149165000Y-88825000D01*
X149145000Y-88825000D01*
X149145000Y-90158097D01*
X149382941Y-90300336D01*
X149937080Y-90085507D01*
X150292988Y-89745508D01*
X150448739Y-89978606D01*
X150989488Y-90339922D01*
X151627345Y-90466800D01*
X151692655Y-90466800D01*
X152330512Y-90339922D01*
X152871261Y-89978606D01*
X152930000Y-89890697D01*
X152988739Y-89978606D01*
X153529488Y-90339922D01*
X154167345Y-90466800D01*
X154232655Y-90466800D01*
X154870512Y-90339922D01*
X155411261Y-89978606D01*
X155470000Y-89890697D01*
X155528739Y-89978606D01*
X156069488Y-90339922D01*
X156707345Y-90466800D01*
X156772655Y-90466800D01*
X157410512Y-90339922D01*
X157951261Y-89978606D01*
X158312577Y-89437857D01*
X158439455Y-88800000D01*
X158312577Y-88162143D01*
X157951261Y-87621394D01*
X157814480Y-87530000D01*
X157951261Y-87438606D01*
X158312577Y-86897857D01*
X158439455Y-86260000D01*
X158312577Y-85622143D01*
X157951261Y-85081394D01*
X157410512Y-84720078D01*
X156772655Y-84593200D01*
X156707345Y-84593200D01*
X156069488Y-84720078D01*
X155528739Y-85081394D01*
X155470000Y-85169303D01*
X155411261Y-85081394D01*
X154870512Y-84720078D01*
X154232655Y-84593200D01*
X154167345Y-84593200D01*
X153529488Y-84720078D01*
X152988739Y-85081394D01*
X152832988Y-85314492D01*
X152477080Y-84974493D01*
X151922941Y-84759664D01*
X151685000Y-84901903D01*
X151685000Y-86235000D01*
X151705000Y-86235000D01*
X151705000Y-86285000D01*
X151685000Y-86285000D01*
X151685000Y-86305000D01*
X151635000Y-86305000D01*
X151635000Y-86285000D01*
X151615000Y-86285000D01*
X151615000Y-86235000D01*
X151635000Y-86235000D01*
X151635000Y-84901903D01*
X151397059Y-84759664D01*
X151378200Y-84766975D01*
X151378200Y-76505184D01*
X152641692Y-75241692D01*
X152853739Y-74924341D01*
X152928200Y-74550000D01*
X152928200Y-74096881D01*
X152970096Y-74079570D01*
X153477787Y-73572765D01*
X153752887Y-72910252D01*
X153753513Y-72192895D01*
X153479570Y-71529904D01*
X152972765Y-71022213D01*
X152399296Y-70784088D01*
X158705184Y-64478200D01*
X175300000Y-64478200D01*
X175674341Y-64403739D01*
X175991692Y-64191692D01*
X176791692Y-63391692D01*
X177003739Y-63074341D01*
X177078200Y-62700000D01*
X177078200Y-56270000D01*
X177003739Y-55895659D01*
X176791692Y-55578308D01*
X176122965Y-54909581D01*
X176123486Y-54312601D01*
X175872332Y-53704761D01*
X175407685Y-53239303D01*
X174800284Y-52987088D01*
X174142601Y-52986514D01*
X173534761Y-53237668D01*
X173199824Y-53572022D01*
X172867685Y-53239303D01*
X172260284Y-52987088D01*
X171602601Y-52986514D01*
X170994761Y-53237668D01*
X170529303Y-53702315D01*
X170277088Y-54309716D01*
X170276554Y-54921800D01*
X162400000Y-54921800D01*
X162025659Y-54996261D01*
X161708308Y-55208308D01*
X143348308Y-73568308D01*
X143136261Y-73885659D01*
X143061800Y-74260000D01*
X143061800Y-84925668D01*
X142828739Y-85081394D01*
X142672988Y-85314492D01*
X142317080Y-84974493D01*
X141762941Y-84759664D01*
X141525000Y-84901903D01*
X141525000Y-86235000D01*
X141545000Y-86235000D01*
X141545000Y-86285000D01*
X141525000Y-86285000D01*
X141525000Y-86305000D01*
X141475000Y-86305000D01*
X141475000Y-86285000D01*
X141455000Y-86285000D01*
X141455000Y-86235000D01*
X141475000Y-86235000D01*
X141475000Y-84901903D01*
X141237059Y-84759664D01*
X140682920Y-84974493D01*
X140378200Y-85265592D01*
X140378200Y-84400000D01*
X140303739Y-84025659D01*
X140091692Y-83708308D01*
X138250173Y-81866789D01*
X138252887Y-81860252D01*
X138253513Y-81142895D01*
X137979570Y-80479904D01*
X137472765Y-79972213D01*
X136810252Y-79697113D01*
X136092895Y-79696487D01*
X135429904Y-79970430D01*
X134922213Y-80477235D01*
X134647113Y-81139748D01*
X134646487Y-81857105D01*
X133503200Y-81857105D01*
X133503200Y-66200000D01*
X133448270Y-65908071D01*
X133275740Y-65639952D01*
X133012490Y-65460081D01*
X132700000Y-65396800D01*
X124700000Y-65396800D01*
X124408071Y-65451730D01*
X124139952Y-65624260D01*
X123960081Y-65887510D01*
X123896800Y-66200000D01*
X123896800Y-67996800D01*
X121500000Y-67996800D01*
X121208071Y-68051730D01*
X120939952Y-68224260D01*
X120760081Y-68487510D01*
X120696800Y-68800000D01*
X120696800Y-70596800D01*
X120200324Y-70596800D01*
X119960252Y-70497113D01*
X119242895Y-70496487D01*
X119000120Y-70596800D01*
X118000000Y-70596800D01*
X117708071Y-70651730D01*
X117439952Y-70824260D01*
X117260081Y-71087510D01*
X117196800Y-71400000D01*
X117196800Y-73096800D01*
X114400000Y-73096800D01*
X114108071Y-73151730D01*
X113839952Y-73324260D01*
X113660081Y-73587510D01*
X113596800Y-73900000D01*
X113596800Y-76000000D01*
X113651730Y-76291929D01*
X113824260Y-76560048D01*
X114087510Y-76739919D01*
X114400000Y-76803200D01*
X115898426Y-76803200D01*
X116257105Y-76803513D01*
X116257863Y-76803200D01*
X127996800Y-76803200D01*
X127996800Y-87899122D01*
X127797435Y-87837920D01*
X126735355Y-88900000D01*
X127797435Y-89962080D01*
X127996800Y-89900878D01*
X127996800Y-93612841D01*
X86803200Y-93695193D01*
X86803200Y-89997435D01*
X87637920Y-89997435D01*
X87725735Y-90283493D01*
X88329336Y-90551017D01*
X88989367Y-90567187D01*
X89605345Y-90329544D01*
X89674265Y-90283493D01*
X89762080Y-89997435D01*
X88700000Y-88935355D01*
X87637920Y-89997435D01*
X86803200Y-89997435D01*
X86803200Y-89189367D01*
X87032813Y-89189367D01*
X87270456Y-89805345D01*
X87316507Y-89874265D01*
X87602565Y-89962080D01*
X88664645Y-88900000D01*
X88735355Y-88900000D01*
X89797435Y-89962080D01*
X90083493Y-89874265D01*
X90351017Y-89270664D01*
X90367187Y-88610633D01*
X90129544Y-87994655D01*
X90083493Y-87925735D01*
X89797435Y-87837920D01*
X88735355Y-88900000D01*
X88664645Y-88900000D01*
X87602565Y-87837920D01*
X87316507Y-87925735D01*
X87048983Y-88529336D01*
X87032813Y-89189367D01*
X86803200Y-89189367D01*
X86803200Y-87802565D01*
X87637920Y-87802565D01*
X88700000Y-88864645D01*
X89762080Y-87802565D01*
X89674265Y-87516507D01*
X89070664Y-87248983D01*
X88410633Y-87232813D01*
X87794655Y-87470456D01*
X87725735Y-87516507D01*
X87637920Y-87802565D01*
X86803200Y-87802565D01*
X86803200Y-66300000D01*
X86748270Y-66008071D01*
X86575740Y-65739952D01*
X86312490Y-65560081D01*
X86000000Y-65496800D01*
X78600000Y-65496800D01*
X78308071Y-65551730D01*
X78039952Y-65724260D01*
X77860081Y-65987510D01*
X77796800Y-66300000D01*
X77796800Y-67996800D01*
X76901573Y-67996800D01*
X76542895Y-67996487D01*
X76542137Y-67996800D01*
X75400000Y-67996800D01*
X75108071Y-68051730D01*
X74839952Y-68224260D01*
X74660081Y-68487510D01*
X74596800Y-68800000D01*
X74596800Y-70496800D01*
X73301573Y-70496800D01*
X72942895Y-70496487D01*
X72942137Y-70496800D01*
X71800000Y-70496800D01*
X71508071Y-70551730D01*
X71239952Y-70724260D01*
X71060081Y-70987510D01*
X70996800Y-71300000D01*
X70996800Y-72996800D01*
X68200000Y-72996800D01*
X67908071Y-73051730D01*
X67639952Y-73224260D01*
X67460081Y-73487510D01*
X67396800Y-73800000D01*
X65583384Y-73800000D01*
X74905184Y-64478200D01*
X83300000Y-64478200D01*
X83674341Y-64403739D01*
X83991692Y-64191692D01*
X84491692Y-63691692D01*
X84703739Y-63374341D01*
X84778200Y-63000000D01*
X84778200Y-62525440D01*
X88853886Y-62525440D01*
X89070873Y-63085426D01*
X89110251Y-63144360D01*
X89380724Y-63213921D01*
X90334645Y-62260000D01*
X89380724Y-61306079D01*
X89110251Y-61375640D01*
X88867714Y-61925043D01*
X88853886Y-62525440D01*
X84778200Y-62525440D01*
X84778200Y-55970000D01*
X84703739Y-55595659D01*
X84491692Y-55278308D01*
X84122965Y-54909581D01*
X84123486Y-54312601D01*
X83872332Y-53704761D01*
X83407685Y-53239303D01*
X82800284Y-52987088D01*
X82142601Y-52986514D01*
X81534761Y-53237668D01*
X81199824Y-53572022D01*
X80867685Y-53239303D01*
X80285730Y-52997654D01*
X82805184Y-50478200D01*
X85300000Y-50478200D01*
X85674341Y-50403739D01*
X85991692Y-50191692D01*
X94576584Y-41606800D01*
X94632655Y-41606800D01*
X95270512Y-41479922D01*
X95811261Y-41118606D01*
X95967012Y-40885508D01*
X96322920Y-41225507D01*
X96877059Y-41440336D01*
X97115000Y-41298097D01*
X97115000Y-39965000D01*
X97095000Y-39965000D01*
X97095000Y-39915000D01*
X97115000Y-39915000D01*
X97115000Y-39895000D01*
X97165000Y-39895000D01*
X97165000Y-39915000D01*
X97185000Y-39915000D01*
X97185000Y-39965000D01*
X97165000Y-39965000D01*
X97165000Y-41298097D01*
X97402941Y-41440336D01*
X97421800Y-41433025D01*
X97421800Y-46594816D01*
X95602118Y-48414498D01*
X95560252Y-48397113D01*
X94842895Y-48396487D01*
X94179904Y-48670430D01*
X93672213Y-49177235D01*
X93397113Y-49839748D01*
X93396487Y-50557105D01*
X93629815Y-51121800D01*
X91729446Y-51121800D01*
X91307685Y-50699303D01*
X90700284Y-50447088D01*
X90042601Y-50446514D01*
X89434761Y-50697668D01*
X88969303Y-51162315D01*
X88717088Y-51769716D01*
X88716514Y-52427399D01*
X88967668Y-53035239D01*
X89302022Y-53370176D01*
X88969303Y-53702315D01*
X88717088Y-54309716D01*
X88716514Y-54967399D01*
X88967668Y-55575239D01*
X89302022Y-55910176D01*
X88969303Y-56242315D01*
X88717088Y-56849716D01*
X88716514Y-57507399D01*
X88967668Y-58115239D01*
X89302022Y-58450176D01*
X88969303Y-58782315D01*
X88717088Y-59389716D01*
X88716514Y-60047399D01*
X88967668Y-60655239D01*
X89432315Y-61120697D01*
X89452507Y-61129081D01*
X89416079Y-61270724D01*
X90370000Y-62224645D01*
X91323921Y-61270724D01*
X91287629Y-61129608D01*
X91305239Y-61122332D01*
X91730111Y-60698200D01*
X92880460Y-60698200D01*
X92697113Y-61139748D01*
X92696487Y-61857105D01*
X92714914Y-61901702D01*
X91754226Y-62862390D01*
X91872286Y-62594957D01*
X91886114Y-61994560D01*
X91669127Y-61434574D01*
X91629749Y-61375640D01*
X91359276Y-61306079D01*
X90405355Y-62260000D01*
X90419498Y-62274143D01*
X90384143Y-62309498D01*
X90370000Y-62295355D01*
X89416079Y-63249276D01*
X89452371Y-63390392D01*
X89434761Y-63397668D01*
X88969303Y-63862315D01*
X88717088Y-64469716D01*
X88716514Y-65127399D01*
X88967668Y-65735239D01*
X89302022Y-66070176D01*
X88969303Y-66402315D01*
X88717088Y-67009716D01*
X88716514Y-67667399D01*
X88967668Y-68275239D01*
X89302022Y-68610176D01*
X88969303Y-68942315D01*
X88717088Y-69549716D01*
X88716514Y-70207399D01*
X88967668Y-70815239D01*
X89302022Y-71150176D01*
X88969303Y-71482315D01*
X88717088Y-72089716D01*
X88716514Y-72747399D01*
X88967668Y-73355239D01*
X89302022Y-73690176D01*
X88969303Y-74022315D01*
X88717088Y-74629716D01*
X88716514Y-75287399D01*
X88967668Y-75895239D01*
X89302022Y-76230176D01*
X88969303Y-76562315D01*
X88717088Y-77169716D01*
X88716514Y-77827399D01*
X88967668Y-78435239D01*
X89432315Y-78900697D01*
X90039716Y-79152912D01*
X90697399Y-79153486D01*
X91305239Y-78902332D01*
X91762489Y-78445879D01*
X91974341Y-78403739D01*
X92291692Y-78191692D01*
X101761339Y-68722045D01*
X101751800Y-68770000D01*
X101751800Y-84925668D01*
X101518739Y-85081394D01*
X101362988Y-85314492D01*
X101007080Y-84974493D01*
X100452941Y-84759664D01*
X100215000Y-84901903D01*
X100215000Y-86235000D01*
X100235000Y-86235000D01*
X100235000Y-86285000D01*
X100215000Y-86285000D01*
X100215000Y-86305000D01*
X100165000Y-86305000D01*
X100165000Y-86285000D01*
X100145000Y-86285000D01*
X100145000Y-86235000D01*
X100165000Y-86235000D01*
X100165000Y-84901903D01*
X99927059Y-84759664D01*
X99372920Y-84974493D01*
X98943174Y-85385029D01*
X98703246Y-85928772D01*
X98703065Y-85929681D01*
X97078200Y-84304816D01*
X97078200Y-82771742D01*
X97427787Y-82422765D01*
X97702887Y-81760252D01*
X97703513Y-81042895D01*
X97429570Y-80379904D01*
X96922765Y-79872213D01*
X96260252Y-79597113D01*
X95542895Y-79596487D01*
X94879904Y-79870430D01*
X94372213Y-80377235D01*
X94097113Y-81039748D01*
X94096487Y-81757105D01*
X94370430Y-82420096D01*
X94877235Y-82927787D01*
X95121800Y-83029339D01*
X95121800Y-84710000D01*
X95196261Y-85084341D01*
X95408308Y-85401692D01*
X98507465Y-88500849D01*
X98507465Y-89663600D01*
X98563471Y-89961248D01*
X98739381Y-90234619D01*
X99007788Y-90418014D01*
X99326400Y-90482535D01*
X100489151Y-90482535D01*
X100898308Y-90891692D01*
X101215659Y-91103739D01*
X101590000Y-91178200D01*
X103100000Y-91178200D01*
X103474341Y-91103739D01*
X103791692Y-90891692D01*
X104446011Y-90237373D01*
X104599488Y-90339922D01*
X105237345Y-90466800D01*
X105302655Y-90466800D01*
X105940512Y-90339922D01*
X106481261Y-89978606D01*
X106637012Y-89745508D01*
X106992920Y-90085507D01*
X107547059Y-90300336D01*
X107785000Y-90158097D01*
X107785000Y-88825000D01*
X107835000Y-88825000D01*
X107835000Y-90158097D01*
X108072941Y-90300336D01*
X108627080Y-90085507D01*
X108719273Y-89997435D01*
X125637920Y-89997435D01*
X125725735Y-90283493D01*
X126329336Y-90551017D01*
X126989367Y-90567187D01*
X127605345Y-90329544D01*
X127674265Y-90283493D01*
X127762080Y-89997435D01*
X126700000Y-88935355D01*
X125637920Y-89997435D01*
X108719273Y-89997435D01*
X109056826Y-89674971D01*
X109271100Y-89189367D01*
X125032813Y-89189367D01*
X125270456Y-89805345D01*
X125316507Y-89874265D01*
X125602565Y-89962080D01*
X126664645Y-88900000D01*
X125602565Y-87837920D01*
X125316507Y-87925735D01*
X125048983Y-88529336D01*
X125032813Y-89189367D01*
X109271100Y-89189367D01*
X109296754Y-89131228D01*
X109310334Y-89062941D01*
X109168070Y-88825000D01*
X107835000Y-88825000D01*
X107785000Y-88825000D01*
X107765000Y-88825000D01*
X107765000Y-88775000D01*
X107785000Y-88775000D01*
X107785000Y-88755000D01*
X107835000Y-88755000D01*
X107835000Y-88775000D01*
X109168070Y-88775000D01*
X109310334Y-88537059D01*
X109296754Y-88468772D01*
X109056826Y-87925029D01*
X108928632Y-87802565D01*
X125637920Y-87802565D01*
X126700000Y-88864645D01*
X127762080Y-87802565D01*
X127674265Y-87516507D01*
X127070664Y-87248983D01*
X126410633Y-87232813D01*
X125794655Y-87470456D01*
X125725735Y-87516507D01*
X125637920Y-87802565D01*
X108928632Y-87802565D01*
X108742570Y-87624821D01*
X109021261Y-87438606D01*
X109382577Y-86897857D01*
X109509455Y-86260000D01*
X109382577Y-85622143D01*
X109021261Y-85081394D01*
X108788200Y-84925668D01*
X108788200Y-72895184D01*
X112527222Y-69156162D01*
X112639748Y-69202887D01*
X113357105Y-69203513D01*
X114020096Y-68929570D01*
X114527787Y-68422765D01*
X114802887Y-67760252D01*
X114803513Y-67042895D01*
X114529570Y-66379904D01*
X114022765Y-65872213D01*
X113360252Y-65597113D01*
X113286336Y-65597048D01*
X114405184Y-64478200D01*
X129000000Y-64478200D01*
X129374341Y-64403739D01*
X129691692Y-64191692D01*
X130591692Y-63291692D01*
X130803739Y-62974341D01*
X130878200Y-62600000D01*
X130878200Y-62525440D01*
X134853886Y-62525440D01*
X135070873Y-63085426D01*
X135110251Y-63144360D01*
X135380724Y-63213921D01*
X136334645Y-62260000D01*
X136405355Y-62260000D01*
X137359276Y-63213921D01*
X137629749Y-63144360D01*
X137872286Y-62594957D01*
X137886114Y-61994560D01*
X137669127Y-61434574D01*
X137629749Y-61375640D01*
X137359276Y-61306079D01*
X136405355Y-62260000D01*
X136334645Y-62260000D01*
X135380724Y-61306079D01*
X135110251Y-61375640D01*
X134867714Y-61925043D01*
X134853886Y-62525440D01*
X130878200Y-62525440D01*
X130878200Y-56070000D01*
X130803739Y-55695659D01*
X130591692Y-55378308D01*
X130122965Y-54909581D01*
X130123486Y-54312601D01*
X129872332Y-53704761D01*
X129407685Y-53239303D01*
X128800284Y-52987088D01*
X128142601Y-52986514D01*
X127534761Y-53237668D01*
X127199824Y-53572022D01*
X126867685Y-53239303D01*
X126260284Y-52987088D01*
X125602601Y-52986514D01*
X124994761Y-53237668D01*
X124529303Y-53702315D01*
X124277088Y-54309716D01*
X124276554Y-54921800D01*
X115600005Y-54921800D01*
X115600000Y-54921799D01*
X115225659Y-54996261D01*
X114908308Y-55208308D01*
X114551885Y-55564731D01*
X114802887Y-54960252D01*
X114803513Y-54242895D01*
X114529570Y-53579904D01*
X114178200Y-53227920D01*
X114178200Y-50700000D01*
X114158938Y-50603166D01*
X114557105Y-50603513D01*
X115220096Y-50329570D01*
X115727787Y-49822765D01*
X116002887Y-49160252D01*
X116003513Y-48442895D01*
X115729570Y-47779904D01*
X115222765Y-47272213D01*
X114678200Y-47046089D01*
X114678200Y-46328579D01*
X114777235Y-46427787D01*
X115439748Y-46702887D01*
X116157105Y-46703513D01*
X116820096Y-46429570D01*
X117327787Y-45922765D01*
X117602887Y-45260252D01*
X117603513Y-44542895D01*
X117329570Y-43879904D01*
X117178200Y-43728269D01*
X117178200Y-41433025D01*
X117197059Y-41440336D01*
X117435000Y-41298097D01*
X117435000Y-39965000D01*
X117415000Y-39965000D01*
X117415000Y-39915000D01*
X117435000Y-39915000D01*
X117435000Y-37425000D01*
X117415000Y-37425000D01*
X117415000Y-37375000D01*
X117435000Y-37375000D01*
X117435000Y-36041903D01*
X117197059Y-35899664D01*
X116642920Y-36114493D01*
X116287012Y-36454492D01*
X116131261Y-36221394D01*
X115590512Y-35860078D01*
X114952655Y-35733200D01*
X114887345Y-35733200D01*
X114249488Y-35860078D01*
X113708739Y-36221394D01*
X113650000Y-36309303D01*
X113591261Y-36221394D01*
X113050512Y-35860078D01*
X112412655Y-35733200D01*
X112347345Y-35733200D01*
X111709488Y-35860078D01*
X111168739Y-36221394D01*
X111110000Y-36309303D01*
X111051261Y-36221394D01*
X110510512Y-35860078D01*
X109872655Y-35733200D01*
X109807345Y-35733200D01*
X109169488Y-35860078D01*
X108628739Y-36221394D01*
X108570000Y-36309303D01*
X108511261Y-36221394D01*
X107970512Y-35860078D01*
X107332655Y-35733200D01*
X107267345Y-35733200D01*
X106629488Y-35860078D01*
X106088739Y-36221394D01*
X106030000Y-36309303D01*
X105971261Y-36221394D01*
X105430512Y-35860078D01*
X104792655Y-35733200D01*
X104727345Y-35733200D01*
X104518188Y-35774804D01*
X104051692Y-35308308D01*
X103734341Y-35096261D01*
X103360000Y-35021800D01*
X99000000Y-35021800D01*
X98625659Y-35096261D01*
X98308308Y-35308308D01*
X97765493Y-35851123D01*
X97172655Y-35733200D01*
X97107345Y-35733200D01*
X96898188Y-35774804D01*
X94117284Y-32993900D01*
X123329871Y-32993900D01*
X123308308Y-33008308D01*
X120492039Y-35824577D01*
X120032655Y-35733200D01*
X119967345Y-35733200D01*
X119329488Y-35860078D01*
X118788739Y-36221394D01*
X118632988Y-36454492D01*
X118277080Y-36114493D01*
X117722941Y-35899664D01*
X117485000Y-36041903D01*
X117485000Y-37375000D01*
X117505000Y-37375000D01*
X117505000Y-37425000D01*
X117485000Y-37425000D01*
X117485000Y-39915000D01*
X117505000Y-39915000D01*
X117505000Y-39965000D01*
X117485000Y-39965000D01*
X117485000Y-41298097D01*
X117722941Y-41440336D01*
X118277080Y-41225507D01*
X118632988Y-40885508D01*
X118788739Y-41118606D01*
X119021800Y-41274332D01*
X119021800Y-43911800D01*
X118879904Y-43970430D01*
X118372213Y-44477235D01*
X118097113Y-45139748D01*
X118096487Y-45857105D01*
X118370430Y-46520096D01*
X118877235Y-47027787D01*
X119539748Y-47302887D01*
X120257105Y-47303513D01*
X120920096Y-47029570D01*
X121200044Y-46750111D01*
X121477235Y-47027787D01*
X122139748Y-47302887D01*
X122857105Y-47303513D01*
X123520096Y-47029570D01*
X123800044Y-46750111D01*
X124077235Y-47027787D01*
X124739748Y-47302887D01*
X125457105Y-47303513D01*
X126120096Y-47029570D01*
X126400044Y-46750111D01*
X126677235Y-47027787D01*
X127339748Y-47302887D01*
X128057105Y-47303513D01*
X128720096Y-47029570D01*
X129100218Y-46650111D01*
X129477235Y-47027787D01*
X130139748Y-47302887D01*
X130857105Y-47303513D01*
X131520096Y-47029570D01*
X132000393Y-46550111D01*
X132477235Y-47027787D01*
X133139748Y-47302887D01*
X133857105Y-47303513D01*
X134520096Y-47029570D01*
X135027787Y-46522765D01*
X135302887Y-45860252D01*
X135303513Y-45142895D01*
X135029570Y-44479904D01*
X134522765Y-43972213D01*
X133860252Y-43697113D01*
X133678200Y-43696954D01*
X133678200Y-41274332D01*
X133911261Y-41118606D01*
X134272577Y-40577857D01*
X134399455Y-39940000D01*
X134272577Y-39302143D01*
X134020112Y-38924302D01*
X134134619Y-38850619D01*
X134318014Y-38582212D01*
X134359328Y-38378200D01*
X134694816Y-38378200D01*
X135391800Y-39075184D01*
X135391800Y-50740554D01*
X134969303Y-51162315D01*
X134717088Y-51769716D01*
X134716514Y-52427399D01*
X134967668Y-53035239D01*
X135302022Y-53370176D01*
X134969303Y-53702315D01*
X134717088Y-54309716D01*
X134716514Y-54967399D01*
X134967668Y-55575239D01*
X135302022Y-55910176D01*
X134969303Y-56242315D01*
X134717088Y-56849716D01*
X134716514Y-57507399D01*
X134967668Y-58115239D01*
X135302022Y-58450176D01*
X134969303Y-58782315D01*
X134717088Y-59389716D01*
X134716514Y-60047399D01*
X134967668Y-60655239D01*
X135432315Y-61120697D01*
X135452507Y-61129081D01*
X135416079Y-61270724D01*
X136370000Y-62224645D01*
X137323921Y-61270724D01*
X137287629Y-61129608D01*
X137305239Y-61122332D01*
X137770697Y-60657685D01*
X138022912Y-60050284D01*
X138023436Y-59449948D01*
X139721800Y-57751584D01*
X139721800Y-61294816D01*
X137462364Y-63554252D01*
X137307685Y-63399303D01*
X137287493Y-63390919D01*
X137323921Y-63249276D01*
X136370000Y-62295355D01*
X135416079Y-63249276D01*
X135452371Y-63390392D01*
X135434761Y-63397668D01*
X134969303Y-63862315D01*
X134717088Y-64469716D01*
X134716514Y-65127399D01*
X134967668Y-65735239D01*
X135302022Y-66070176D01*
X134969303Y-66402315D01*
X134717088Y-67009716D01*
X134716514Y-67667399D01*
X134967668Y-68275239D01*
X135302022Y-68610176D01*
X134969303Y-68942315D01*
X134717088Y-69549716D01*
X134716514Y-70207399D01*
X134967668Y-70815239D01*
X135302022Y-71150176D01*
X134969303Y-71482315D01*
X134717088Y-72089716D01*
X134716514Y-72747399D01*
X134967668Y-73355239D01*
X135302022Y-73690176D01*
X134969303Y-74022315D01*
X134717088Y-74629716D01*
X134716514Y-75287399D01*
X134967668Y-75895239D01*
X135302022Y-76230176D01*
X134969303Y-76562315D01*
X134717088Y-77169716D01*
X134716514Y-77827399D01*
X134967668Y-78435239D01*
X135432315Y-78900697D01*
X136039716Y-79152912D01*
X136697399Y-79153486D01*
X137305239Y-78902332D01*
X137770697Y-78437685D01*
X138022912Y-77830284D01*
X138023486Y-77172601D01*
X137772332Y-76564761D01*
X137437978Y-76229824D01*
X137770697Y-75897685D01*
X138022912Y-75290284D01*
X138023486Y-74632601D01*
X137772332Y-74024761D01*
X137437978Y-73689824D01*
X137770697Y-73357685D01*
X138022912Y-72750284D01*
X138023486Y-72092601D01*
X137772332Y-71484761D01*
X137437978Y-71149824D01*
X137770697Y-70817685D01*
X138022912Y-70210284D01*
X138023486Y-69552601D01*
X137772332Y-68944761D01*
X137437978Y-68609824D01*
X137770697Y-68277685D01*
X138022912Y-67670284D01*
X138023436Y-67069948D01*
X142291692Y-62801692D01*
X142503739Y-62484341D01*
X142578200Y-62110000D01*
X142578200Y-38997382D01*
X188422237Y-38997382D01*
X188656752Y-39354009D01*
X189660328Y-39689145D01*
X190715762Y-39614719D01*
X191345168Y-39354009D01*
X191579683Y-38997382D01*
X190000960Y-37418659D01*
X188422237Y-38997382D01*
X142578200Y-38997382D01*
X142578200Y-38900005D01*
X142578201Y-38900000D01*
X142503739Y-38525659D01*
X142291692Y-38208308D01*
X140741672Y-36658288D01*
X187310735Y-36658288D01*
X187385161Y-37713722D01*
X187645871Y-38343128D01*
X188002498Y-38577643D01*
X189581221Y-36998920D01*
X190420699Y-36998920D01*
X191999422Y-38577643D01*
X192356049Y-38343128D01*
X192691185Y-37339552D01*
X192616759Y-36284118D01*
X192356049Y-35654712D01*
X191999422Y-35420197D01*
X190420699Y-36998920D01*
X189581221Y-36998920D01*
X188002498Y-35420197D01*
X187645871Y-35654712D01*
X187310735Y-36658288D01*
X140741672Y-36658288D01*
X139083842Y-35000458D01*
X188422237Y-35000458D01*
X190000960Y-36579181D01*
X191579683Y-35000458D01*
X191345168Y-34643831D01*
X190341592Y-34308695D01*
X189286158Y-34383121D01*
X188656752Y-34643831D01*
X188422237Y-35000458D01*
X139083842Y-35000458D01*
X137091692Y-33008308D01*
X137070129Y-32993900D01*
X194005980Y-32993900D01*
X194005980Y-110396800D01*
X188400000Y-110396800D01*
X188108071Y-110451730D01*
X187839952Y-110624260D01*
X187660081Y-110887510D01*
X187596800Y-111200000D01*
X187596800Y-119600000D01*
X187651730Y-119891929D01*
X187824260Y-120160048D01*
X188087510Y-120339919D01*
X188400000Y-120403200D01*
X194005980Y-120403200D01*
X194005980Y-131006300D01*
X35993700Y-131006300D01*
X35993700Y-128997202D01*
X38422537Y-128997202D01*
X38657052Y-129353829D01*
X39660628Y-129688965D01*
X40716062Y-129614539D01*
X41345468Y-129353829D01*
X41579983Y-128997202D01*
X40001260Y-127418479D01*
X38422537Y-128997202D01*
X35993700Y-128997202D01*
X35993700Y-126658108D01*
X37311035Y-126658108D01*
X37385461Y-127713542D01*
X37646171Y-128342948D01*
X38002798Y-128577463D01*
X39581521Y-126998740D01*
X40420999Y-126998740D01*
X41999722Y-128577463D01*
X42356349Y-128342948D01*
X42470873Y-128000000D01*
X48196800Y-128000000D01*
X48372121Y-128881396D01*
X48871392Y-129628608D01*
X49618604Y-130127879D01*
X50500000Y-130303200D01*
X54969341Y-130303200D01*
X55012981Y-130371019D01*
X55281388Y-130554414D01*
X55600000Y-130618935D01*
X57400000Y-130618935D01*
X57697648Y-130562929D01*
X57971019Y-130387019D01*
X58154414Y-130118612D01*
X58218935Y-129800000D01*
X58218935Y-129493424D01*
X58250000Y-129446932D01*
X58371392Y-129628608D01*
X58502024Y-129715894D01*
X58795656Y-130155344D01*
X59348214Y-130524552D01*
X60000000Y-130654200D01*
X60651786Y-130524552D01*
X61204344Y-130155344D01*
X61497976Y-129715894D01*
X61628608Y-129628608D01*
X61750000Y-129446932D01*
X61871392Y-129628608D01*
X62002024Y-129715894D01*
X62295656Y-130155344D01*
X62848214Y-130524552D01*
X63500000Y-130654200D01*
X64151786Y-130524552D01*
X64704344Y-130155344D01*
X64997976Y-129715894D01*
X65128608Y-129628608D01*
X65362081Y-129279191D01*
X65426448Y-129602786D01*
X65795656Y-130155344D01*
X66348214Y-130524552D01*
X67000000Y-130654200D01*
X67651786Y-130524552D01*
X68204344Y-130155344D01*
X68573552Y-129602786D01*
X68703200Y-128951000D01*
X68703200Y-128000000D01*
X97196800Y-128000000D01*
X97372121Y-128881396D01*
X97871392Y-129628608D01*
X98618604Y-130127879D01*
X99500000Y-130303200D01*
X103669341Y-130303200D01*
X103712981Y-130371019D01*
X103981388Y-130554414D01*
X104300000Y-130618935D01*
X106100000Y-130618935D01*
X106397648Y-130562929D01*
X106671019Y-130387019D01*
X106854414Y-130118612D01*
X106918935Y-129800000D01*
X106918935Y-129493424D01*
X106950000Y-129446932D01*
X107071392Y-129628608D01*
X107202024Y-129715894D01*
X107495656Y-130155344D01*
X108048214Y-130524552D01*
X108700000Y-130654200D01*
X109351786Y-130524552D01*
X109904344Y-130155344D01*
X110197976Y-129715894D01*
X110328608Y-129628608D01*
X110450000Y-129446932D01*
X110571392Y-129628608D01*
X110702024Y-129715894D01*
X110995656Y-130155344D01*
X111548214Y-130524552D01*
X112200000Y-130654200D01*
X112851786Y-130524552D01*
X113404344Y-130155344D01*
X113697976Y-129715894D01*
X113828608Y-129628608D01*
X114062081Y-129279191D01*
X114126448Y-129602786D01*
X114495656Y-130155344D01*
X115048214Y-130524552D01*
X115700000Y-130654200D01*
X116351786Y-130524552D01*
X116904344Y-130155344D01*
X117273552Y-129602786D01*
X117403200Y-128951000D01*
X117403200Y-128000000D01*
X149096800Y-128000000D01*
X149272121Y-128881396D01*
X149771392Y-129628608D01*
X150518604Y-130127879D01*
X151400000Y-130303200D01*
X154869341Y-130303200D01*
X154912981Y-130371019D01*
X155181388Y-130554414D01*
X155500000Y-130618935D01*
X157300000Y-130618935D01*
X157597648Y-130562929D01*
X157871019Y-130387019D01*
X158054414Y-130118612D01*
X158118935Y-129800000D01*
X158118935Y-129493424D01*
X158150000Y-129446932D01*
X158271392Y-129628608D01*
X158402024Y-129715894D01*
X158695656Y-130155344D01*
X159248214Y-130524552D01*
X159900000Y-130654200D01*
X160551786Y-130524552D01*
X161104344Y-130155344D01*
X161397976Y-129715894D01*
X161528608Y-129628608D01*
X161650000Y-129446932D01*
X161771392Y-129628608D01*
X161902024Y-129715894D01*
X162195656Y-130155344D01*
X162748214Y-130524552D01*
X163400000Y-130654200D01*
X164051786Y-130524552D01*
X164604344Y-130155344D01*
X164897976Y-129715894D01*
X165028608Y-129628608D01*
X165262081Y-129279191D01*
X165326448Y-129602786D01*
X165695656Y-130155344D01*
X166248214Y-130524552D01*
X166900000Y-130654200D01*
X167551786Y-130524552D01*
X168104344Y-130155344D01*
X168473552Y-129602786D01*
X168594009Y-128997202D01*
X188422237Y-128997202D01*
X188656752Y-129353829D01*
X189660328Y-129688965D01*
X190715762Y-129614539D01*
X191345168Y-129353829D01*
X191579683Y-128997202D01*
X190000960Y-127418479D01*
X188422237Y-128997202D01*
X168594009Y-128997202D01*
X168603200Y-128951000D01*
X168603200Y-127049000D01*
X168525447Y-126658108D01*
X187310735Y-126658108D01*
X187385161Y-127713542D01*
X187645871Y-128342948D01*
X188002498Y-128577463D01*
X189581221Y-126998740D01*
X190420699Y-126998740D01*
X191999422Y-128577463D01*
X192356049Y-128342948D01*
X192691185Y-127339372D01*
X192616759Y-126283938D01*
X192356049Y-125654532D01*
X191999422Y-125420017D01*
X190420699Y-126998740D01*
X189581221Y-126998740D01*
X188002498Y-125420017D01*
X187645871Y-125654532D01*
X187310735Y-126658108D01*
X168525447Y-126658108D01*
X168473552Y-126397214D01*
X168143462Y-125903200D01*
X171600000Y-125903200D01*
X172481396Y-125727879D01*
X173228608Y-125228608D01*
X173381173Y-125000278D01*
X188422237Y-125000278D01*
X190000960Y-126579001D01*
X191579683Y-125000278D01*
X191345168Y-124643651D01*
X190341592Y-124308515D01*
X189286158Y-124382941D01*
X188656752Y-124643651D01*
X188422237Y-125000278D01*
X173381173Y-125000278D01*
X173727879Y-124481396D01*
X173903200Y-123600000D01*
X173727879Y-122718604D01*
X173228608Y-121971392D01*
X172481396Y-121472121D01*
X171600000Y-121296800D01*
X164400000Y-121296800D01*
X163518604Y-121472121D01*
X162771392Y-121971391D01*
X162203200Y-122539584D01*
X162203200Y-121700000D01*
X162027879Y-120818604D01*
X161528608Y-120071392D01*
X160781396Y-119572121D01*
X159900000Y-119396800D01*
X159018604Y-119572121D01*
X158271392Y-120071392D01*
X157772121Y-120818604D01*
X157596800Y-121700000D01*
X157596800Y-125441169D01*
X157300000Y-125381065D01*
X155500000Y-125381065D01*
X155202352Y-125437071D01*
X154928981Y-125612981D01*
X154871710Y-125696800D01*
X151400000Y-125696800D01*
X150518604Y-125872121D01*
X149771392Y-126371392D01*
X149272121Y-127118604D01*
X149096800Y-128000000D01*
X117403200Y-128000000D01*
X117403200Y-127049000D01*
X117273552Y-126397214D01*
X117010280Y-126003200D01*
X120500000Y-126003200D01*
X121381396Y-125827879D01*
X122128608Y-125328608D01*
X122627879Y-124581396D01*
X122803200Y-123700000D01*
X122627879Y-122818604D01*
X122128608Y-122071392D01*
X121381396Y-121572121D01*
X120500000Y-121396800D01*
X113100000Y-121396800D01*
X112364836Y-121543033D01*
X112218603Y-121572121D01*
X111471392Y-122071392D01*
X111003200Y-122539584D01*
X111003200Y-121600000D01*
X110827879Y-120718604D01*
X110328608Y-119971392D01*
X109581396Y-119472121D01*
X108700000Y-119296800D01*
X107818604Y-119472121D01*
X107071392Y-119971392D01*
X106572121Y-120718604D01*
X106396800Y-121600000D01*
X106396800Y-125441169D01*
X106100000Y-125381065D01*
X104300000Y-125381065D01*
X104002352Y-125437071D01*
X103728981Y-125612981D01*
X103671710Y-125696800D01*
X99500000Y-125696800D01*
X98618604Y-125872121D01*
X97871392Y-126371392D01*
X97372121Y-127118604D01*
X97196800Y-128000000D01*
X68703200Y-128000000D01*
X68703200Y-127049000D01*
X68573552Y-126397214D01*
X68204344Y-125844656D01*
X67992640Y-125703200D01*
X72500000Y-125703200D01*
X73381396Y-125527879D01*
X74128608Y-125028608D01*
X74627879Y-124281396D01*
X74803200Y-123400000D01*
X74627879Y-122518604D01*
X74128608Y-121771392D01*
X73381396Y-121272121D01*
X72500000Y-121096800D01*
X64600000Y-121096800D01*
X63718603Y-121272121D01*
X62971391Y-121771392D01*
X62872354Y-121870430D01*
X62303200Y-122439584D01*
X62303200Y-122000000D01*
X62127879Y-121118604D01*
X61628608Y-120371392D01*
X60881396Y-119872121D01*
X60000000Y-119696800D01*
X59118604Y-119872121D01*
X58371392Y-120371392D01*
X57872121Y-121118604D01*
X57696800Y-122000000D01*
X57696800Y-125441169D01*
X57400000Y-125381065D01*
X55600000Y-125381065D01*
X55302352Y-125437071D01*
X55028981Y-125612981D01*
X54971710Y-125696800D01*
X50500000Y-125696800D01*
X49618604Y-125872121D01*
X48871392Y-126371392D01*
X48372121Y-127118604D01*
X48196800Y-128000000D01*
X42470873Y-128000000D01*
X42691485Y-127339372D01*
X42617059Y-126283938D01*
X42356349Y-125654532D01*
X41999722Y-125420017D01*
X40420999Y-126998740D01*
X39581521Y-126998740D01*
X38002798Y-125420017D01*
X37646171Y-125654532D01*
X37311035Y-126658108D01*
X35993700Y-126658108D01*
X35993700Y-125000278D01*
X38422537Y-125000278D01*
X40001260Y-126579001D01*
X41579983Y-125000278D01*
X41345468Y-124643651D01*
X40341892Y-124308515D01*
X39286458Y-124382941D01*
X38657052Y-124643651D01*
X38422537Y-125000278D01*
X35993700Y-125000278D01*
X35993700Y-62525440D01*
X42853886Y-62525440D01*
X43070873Y-63085426D01*
X43110251Y-63144360D01*
X43380724Y-63213921D01*
X44334645Y-62260000D01*
X44405355Y-62260000D01*
X45359276Y-63213921D01*
X45629749Y-63144360D01*
X45872286Y-62594957D01*
X45886114Y-61994560D01*
X45669127Y-61434574D01*
X45629749Y-61375640D01*
X45359276Y-61306079D01*
X44405355Y-62260000D01*
X44334645Y-62260000D01*
X43380724Y-61306079D01*
X43110251Y-61375640D01*
X42867714Y-61925043D01*
X42853886Y-62525440D01*
X35993700Y-62525440D01*
X35993700Y-38997382D01*
X38422537Y-38997382D01*
X38657052Y-39354009D01*
X39660628Y-39689145D01*
X40716062Y-39614719D01*
X41345468Y-39354009D01*
X41579983Y-38997382D01*
X40001260Y-37418659D01*
X38422537Y-38997382D01*
X35993700Y-38997382D01*
X35993700Y-36658288D01*
X37311035Y-36658288D01*
X37385461Y-37713722D01*
X37646171Y-38343128D01*
X38002798Y-38577643D01*
X39581521Y-36998920D01*
X40420999Y-36998920D01*
X41999722Y-38577643D01*
X42356349Y-38343128D01*
X42691485Y-37339552D01*
X42617059Y-36284118D01*
X42356349Y-35654712D01*
X41999722Y-35420197D01*
X40420999Y-36998920D01*
X39581521Y-36998920D01*
X38002798Y-35420197D01*
X37646171Y-35654712D01*
X37311035Y-36658288D01*
X35993700Y-36658288D01*
X35993700Y-35000458D01*
X38422537Y-35000458D01*
X40001260Y-36579181D01*
X41579983Y-35000458D01*
X41345468Y-34643831D01*
X40341892Y-34308695D01*
X39286458Y-34383121D01*
X38657052Y-34643831D01*
X38422537Y-35000458D01*
X35993700Y-35000458D01*
X35993700Y-32992496D01*
X36000760Y-32993900D01*
G36*
X129596800Y-70696800D02*
X121703200Y-70696800D01*
X121703200Y-69003200D01*
X129596800Y-69003200D01*
X129596800Y-70696800D01*
X129596800Y-70696800D01*
G37*
X129596800Y-70696800D02*
X121703200Y-70696800D01*
X121703200Y-69003200D01*
X129596800Y-69003200D01*
X129596800Y-70696800D01*
G36*
X129596800Y-73096800D02*
X118203200Y-73096800D01*
X118203200Y-71603200D01*
X129596800Y-71603200D01*
X129596800Y-73096800D01*
X129596800Y-73096800D01*
G37*
X129596800Y-73096800D02*
X118203200Y-73096800D01*
X118203200Y-71603200D01*
X129596800Y-71603200D01*
X129596800Y-73096800D01*
G36*
X129596800Y-75796800D02*
X114603200Y-75796800D01*
X114603200Y-74103200D01*
X129596800Y-74103200D01*
X129596800Y-75796800D01*
X129596800Y-75796800D01*
G37*
X129596800Y-75796800D02*
X114603200Y-75796800D01*
X114603200Y-74103200D01*
X129596800Y-74103200D01*
X129596800Y-75796800D01*
G36*
X175496800Y-70696800D02*
X167603200Y-70696800D01*
X167603200Y-69003200D01*
X175496800Y-69003200D01*
X175496800Y-70696800D01*
X175496800Y-70696800D01*
G37*
X175496800Y-70696800D02*
X167603200Y-70696800D01*
X167603200Y-69003200D01*
X175496800Y-69003200D01*
X175496800Y-70696800D01*
G36*
X175496800Y-73196800D02*
X164003200Y-73196800D01*
X164003200Y-71603200D01*
X175496800Y-71603200D01*
X175496800Y-73196800D01*
X175496800Y-73196800D01*
G37*
X175496800Y-73196800D02*
X164003200Y-73196800D01*
X164003200Y-71603200D01*
X175496800Y-71603200D01*
X175496800Y-73196800D01*
G36*
X175396800Y-75996800D02*
X160403200Y-75996800D01*
X160403200Y-74203200D01*
X175396800Y-74203200D01*
X175396800Y-75996800D01*
X175396800Y-75996800D01*
G37*
X175396800Y-75996800D02*
X160403200Y-75996800D01*
X160403200Y-74203200D01*
X175396800Y-74203200D01*
X175396800Y-75996800D01*
G36*
X194199580Y-119396800D02*
X188603200Y-119396800D01*
X188603200Y-111403200D01*
X194199580Y-111403200D01*
X194199580Y-119396800D01*
X194199580Y-119396800D01*
G37*
X194199580Y-119396800D02*
X188603200Y-119396800D01*
X188603200Y-111403200D01*
X194199580Y-111403200D01*
X194199580Y-119396800D01*
M02*
