G04 #@! TF.FileFunction,Legend,Top*
%FSLAX46Y46*%
G04 Gerber Fmt 4.6, Leading zero omitted, Abs format (unit mm)*
G04 Created by KiCad (PCBNEW 4.0.6) date Sat Mar 25 16:42:17 2017*
%MOMM*%
%LPD*%
G01*
G04 APERTURE LIST*
%ADD10C,0.100000*%
%ADD11C,0.150000*%
G04 APERTURE END LIST*
D10*
D11*
X142720000Y-54640000D02*
X150340000Y-54640000D01*
X150340000Y-54640000D02*
X150340000Y-48290000D01*
X142720000Y-54640000D02*
X142720000Y-48290000D01*
X133830000Y-81310000D02*
X177010000Y-81310000D01*
X177010000Y-81310000D02*
X177010000Y-48290000D01*
X177010000Y-48290000D02*
X133830000Y-48290000D01*
X133830000Y-48290000D02*
X133830000Y-81310000D01*
X114525000Y-59400000D02*
X114525000Y-58200000D01*
X116275000Y-58200000D02*
X116275000Y-59400000D01*
X166400000Y-118125000D02*
X167600000Y-118125000D01*
X167600000Y-119875000D02*
X166400000Y-119875000D01*
X152400000Y-118225000D02*
X153600000Y-118225000D01*
X153600000Y-119975000D02*
X152400000Y-119975000D01*
X138100000Y-118225000D02*
X139300000Y-118225000D01*
X139300000Y-119975000D02*
X138100000Y-119975000D01*
X142525000Y-59700000D02*
X142525000Y-58500000D01*
X144275000Y-58500000D02*
X144275000Y-59700000D01*
X146575000Y-58500000D02*
X146575000Y-59700000D01*
X144825000Y-59700000D02*
X144825000Y-58500000D01*
X115500000Y-118125000D02*
X116700000Y-118125000D01*
X116700000Y-119875000D02*
X115500000Y-119875000D01*
X100900000Y-118125000D02*
X102100000Y-118125000D01*
X102100000Y-119875000D02*
X100900000Y-119875000D01*
X87500000Y-118125000D02*
X88700000Y-118125000D01*
X88700000Y-119875000D02*
X87500000Y-119875000D01*
X61725000Y-74300000D02*
X61725000Y-73100000D01*
X63475000Y-73100000D02*
X63475000Y-74300000D01*
X113975000Y-58200000D02*
X113975000Y-59400000D01*
X112225000Y-59400000D02*
X112225000Y-58200000D01*
X65875000Y-73100000D02*
X65875000Y-74300000D01*
X64125000Y-74300000D02*
X64125000Y-73100000D01*
X66400000Y-117925000D02*
X67600000Y-117925000D01*
X67600000Y-119675000D02*
X66400000Y-119675000D01*
X52400000Y-117925000D02*
X53600000Y-117925000D01*
X53600000Y-119675000D02*
X52400000Y-119675000D01*
X38400000Y-117925000D02*
X39600000Y-117925000D01*
X39600000Y-119675000D02*
X38400000Y-119675000D01*
X101470000Y-92100000D02*
X106550000Y-92100000D01*
X95110000Y-92100000D02*
X101460000Y-92100000D01*
X101460000Y-91530000D02*
X95640000Y-91530000D01*
X112330000Y-83520000D02*
X95650000Y-83520000D01*
X112890000Y-82970000D02*
X95110000Y-82970000D01*
X106550000Y-92100000D02*
X112890000Y-92100000D01*
X106550000Y-91530000D02*
X112340000Y-91530000D01*
X101460000Y-91530000D02*
X101460000Y-92080000D01*
X106540000Y-91530000D02*
X106540000Y-92080000D01*
X95110000Y-82980000D02*
X95110000Y-92080000D01*
X95650000Y-83530000D02*
X95650000Y-91530000D01*
X112890000Y-82980000D02*
X112890000Y-92080000D01*
X112330000Y-83530000D02*
X112330000Y-91530000D01*
X95110000Y-82980000D02*
X95650000Y-83530000D01*
X112890000Y-82980000D02*
X112330000Y-83530000D01*
X95110000Y-92080000D02*
X95650000Y-91530000D01*
X112890000Y-92080000D02*
X112330000Y-91530000D01*
X54470000Y-92100000D02*
X59550000Y-92100000D01*
X48110000Y-92100000D02*
X54460000Y-92100000D01*
X54460000Y-91530000D02*
X48640000Y-91530000D01*
X65330000Y-83520000D02*
X48650000Y-83520000D01*
X65890000Y-82970000D02*
X48110000Y-82970000D01*
X59550000Y-92100000D02*
X65890000Y-92100000D01*
X59550000Y-91530000D02*
X65340000Y-91530000D01*
X54460000Y-91530000D02*
X54460000Y-92080000D01*
X59540000Y-91530000D02*
X59540000Y-92080000D01*
X48110000Y-82980000D02*
X48110000Y-92080000D01*
X48650000Y-83530000D02*
X48650000Y-91530000D01*
X65890000Y-82980000D02*
X65890000Y-92080000D01*
X65330000Y-83530000D02*
X65330000Y-91530000D01*
X48110000Y-82980000D02*
X48650000Y-83530000D01*
X65890000Y-82980000D02*
X65330000Y-83530000D01*
X48110000Y-92080000D02*
X48650000Y-91530000D01*
X65890000Y-92080000D02*
X65330000Y-91530000D01*
X137780000Y-43220000D02*
X79360000Y-43220000D01*
X137240000Y-42670000D02*
X79920000Y-42670000D01*
X137780000Y-34120000D02*
X79360000Y-34120000D01*
X137240000Y-34670000D02*
X110820000Y-34670000D01*
X106320000Y-34670000D02*
X79920000Y-34670000D01*
X110820000Y-34670000D02*
X110820000Y-34120000D01*
X106320000Y-34670000D02*
X106320000Y-34120000D01*
X137780000Y-43220000D02*
X137780000Y-34120000D01*
X137240000Y-42670000D02*
X137240000Y-34670000D01*
X79360000Y-43220000D02*
X79360000Y-34120000D01*
X79920000Y-42670000D02*
X79920000Y-34670000D01*
X137780000Y-43220000D02*
X137240000Y-42670000D01*
X79360000Y-43220000D02*
X79920000Y-42670000D01*
X137780000Y-34120000D02*
X137240000Y-34670000D01*
X79360000Y-34120000D02*
X79920000Y-34670000D01*
X177000000Y-101000000D02*
X180500000Y-101000000D01*
X177000000Y-114000000D02*
X180500000Y-114000000D01*
X171000000Y-114000000D02*
X167500000Y-114000000D01*
X171000000Y-101000000D02*
X167500000Y-101000000D01*
X167500000Y-101000000D02*
X167500000Y-114000000D01*
X180500000Y-114000000D02*
X180500000Y-101000000D01*
X163000000Y-101000000D02*
X166500000Y-101000000D01*
X163000000Y-114000000D02*
X166500000Y-114000000D01*
X157000000Y-114000000D02*
X153500000Y-114000000D01*
X157000000Y-101000000D02*
X153500000Y-101000000D01*
X153500000Y-101000000D02*
X153500000Y-114000000D01*
X166500000Y-114000000D02*
X166500000Y-101000000D01*
X149000000Y-101000000D02*
X152500000Y-101000000D01*
X149000000Y-114000000D02*
X152500000Y-114000000D01*
X143000000Y-114000000D02*
X139500000Y-114000000D01*
X143000000Y-101000000D02*
X139500000Y-101000000D01*
X139500000Y-101000000D02*
X139500000Y-114000000D01*
X152500000Y-114000000D02*
X152500000Y-101000000D01*
X126000000Y-101000000D02*
X129500000Y-101000000D01*
X126000000Y-114000000D02*
X129500000Y-114000000D01*
X120000000Y-114000000D02*
X116500000Y-114000000D01*
X120000000Y-101000000D02*
X116500000Y-101000000D01*
X116500000Y-101000000D02*
X116500000Y-114000000D01*
X129500000Y-114000000D02*
X129500000Y-101000000D01*
X112000000Y-101000000D02*
X115500000Y-101000000D01*
X112000000Y-114000000D02*
X115500000Y-114000000D01*
X106000000Y-114000000D02*
X102500000Y-114000000D01*
X106000000Y-101000000D02*
X102500000Y-101000000D01*
X102500000Y-101000000D02*
X102500000Y-114000000D01*
X115500000Y-114000000D02*
X115500000Y-101000000D01*
X98000000Y-101000000D02*
X101500000Y-101000000D01*
X98000000Y-114000000D02*
X101500000Y-114000000D01*
X92000000Y-114000000D02*
X88500000Y-114000000D01*
X92000000Y-101000000D02*
X88500000Y-101000000D01*
X88500000Y-101000000D02*
X88500000Y-114000000D01*
X101500000Y-114000000D02*
X101500000Y-101000000D01*
X77000000Y-101000000D02*
X80500000Y-101000000D01*
X77000000Y-114000000D02*
X80500000Y-114000000D01*
X71000000Y-114000000D02*
X67500000Y-114000000D01*
X71000000Y-101000000D02*
X67500000Y-101000000D01*
X67500000Y-101000000D02*
X67500000Y-114000000D01*
X80500000Y-114000000D02*
X80500000Y-101000000D01*
X63000000Y-101000000D02*
X66500000Y-101000000D01*
X63000000Y-114000000D02*
X66500000Y-114000000D01*
X57000000Y-114000000D02*
X53500000Y-114000000D01*
X57000000Y-101000000D02*
X53500000Y-101000000D01*
X53500000Y-101000000D02*
X53500000Y-114000000D01*
X66500000Y-114000000D02*
X66500000Y-101000000D01*
X49000000Y-101000000D02*
X52500000Y-101000000D01*
X49000000Y-114000000D02*
X52500000Y-114000000D01*
X43000000Y-114000000D02*
X39500000Y-114000000D01*
X43000000Y-101000000D02*
X39500000Y-101000000D01*
X39500000Y-101000000D02*
X39500000Y-114000000D01*
X52500000Y-114000000D02*
X52500000Y-101000000D01*
X157149647Y-130249845D02*
G75*
G03X155650000Y-130250000I-749647J-1700155D01*
G01*
X160649647Y-130249845D02*
G75*
G03X159150000Y-130250000I-749647J-1700155D01*
G01*
X164149647Y-130249845D02*
G75*
G03X162650000Y-130250000I-749647J-1700155D01*
G01*
X167649647Y-130249845D02*
G75*
G03X166150000Y-130250000I-749647J-1700155D01*
G01*
X153870000Y-123670000D02*
X153870000Y-131080000D01*
X153870000Y-131080000D02*
X169430000Y-131080000D01*
X169430000Y-131080000D02*
X169430000Y-123670000D01*
X169430000Y-123670000D02*
X153870000Y-123670000D01*
X155650000Y-130250000D02*
X154900000Y-130250000D01*
X154900000Y-130250000D02*
X154900000Y-125950000D01*
X154900000Y-125950000D02*
X155650000Y-125950000D01*
X155650000Y-125950000D02*
X155650000Y-125600000D01*
X155650000Y-125600000D02*
X155150000Y-125600000D01*
X155150000Y-125600000D02*
X154900000Y-124600000D01*
X154900000Y-124600000D02*
X157900000Y-124600000D01*
X157900000Y-124600000D02*
X157650000Y-125600000D01*
X157650000Y-125600000D02*
X157150000Y-125600000D01*
X157150000Y-125600000D02*
X157150000Y-125950000D01*
X157150000Y-125950000D02*
X157150000Y-125950000D01*
X157150000Y-125950000D02*
X157900000Y-125950000D01*
X157900000Y-125950000D02*
X157900000Y-130250000D01*
X157900000Y-130250000D02*
X157150000Y-130250000D01*
X159150000Y-130250000D02*
X158400000Y-130250000D01*
X158400000Y-130250000D02*
X158400000Y-125950000D01*
X158400000Y-125950000D02*
X159150000Y-125950000D01*
X159150000Y-125950000D02*
X159150000Y-125600000D01*
X159150000Y-125600000D02*
X158650000Y-125600000D01*
X158650000Y-125600000D02*
X158400000Y-124600000D01*
X158400000Y-124600000D02*
X161400000Y-124600000D01*
X161400000Y-124600000D02*
X161150000Y-125600000D01*
X161150000Y-125600000D02*
X160650000Y-125600000D01*
X160650000Y-125600000D02*
X160650000Y-125950000D01*
X160650000Y-125950000D02*
X160650000Y-125950000D01*
X160650000Y-125950000D02*
X161400000Y-125950000D01*
X161400000Y-125950000D02*
X161400000Y-130250000D01*
X161400000Y-130250000D02*
X160650000Y-130250000D01*
X162650000Y-130250000D02*
X161900000Y-130250000D01*
X161900000Y-130250000D02*
X161900000Y-125950000D01*
X161900000Y-125950000D02*
X162650000Y-125950000D01*
X162650000Y-125950000D02*
X162650000Y-125600000D01*
X162650000Y-125600000D02*
X162150000Y-125600000D01*
X162150000Y-125600000D02*
X161900000Y-124600000D01*
X161900000Y-124600000D02*
X164900000Y-124600000D01*
X164900000Y-124600000D02*
X164650000Y-125600000D01*
X164650000Y-125600000D02*
X164150000Y-125600000D01*
X164150000Y-125600000D02*
X164150000Y-125950000D01*
X164150000Y-125950000D02*
X164150000Y-125950000D01*
X164150000Y-125950000D02*
X164900000Y-125950000D01*
X164900000Y-125950000D02*
X164900000Y-130250000D01*
X164900000Y-130250000D02*
X164150000Y-130250000D01*
X166150000Y-130250000D02*
X165400000Y-130250000D01*
X165400000Y-130250000D02*
X165400000Y-125950000D01*
X165400000Y-125950000D02*
X166150000Y-125950000D01*
X166150000Y-125950000D02*
X166150000Y-125600000D01*
X166150000Y-125600000D02*
X165650000Y-125600000D01*
X165650000Y-125600000D02*
X165400000Y-124600000D01*
X165400000Y-124600000D02*
X168400000Y-124600000D01*
X168400000Y-124600000D02*
X168150000Y-125600000D01*
X168150000Y-125600000D02*
X167650000Y-125600000D01*
X167650000Y-125600000D02*
X167650000Y-125950000D01*
X167650000Y-125950000D02*
X167650000Y-125950000D01*
X167650000Y-125950000D02*
X168400000Y-125950000D01*
X168400000Y-125950000D02*
X168400000Y-130250000D01*
X168400000Y-130250000D02*
X167650000Y-130250000D01*
X156400000Y-123250000D02*
X156700000Y-122650000D01*
X156700000Y-122650000D02*
X156100000Y-122650000D01*
X156100000Y-122650000D02*
X156400000Y-123250000D01*
X105949647Y-130249845D02*
G75*
G03X104450000Y-130250000I-749647J-1700155D01*
G01*
X109449647Y-130249845D02*
G75*
G03X107950000Y-130250000I-749647J-1700155D01*
G01*
X112949647Y-130249845D02*
G75*
G03X111450000Y-130250000I-749647J-1700155D01*
G01*
X116449647Y-130249845D02*
G75*
G03X114950000Y-130250000I-749647J-1700155D01*
G01*
X102670000Y-123670000D02*
X102670000Y-131080000D01*
X102670000Y-131080000D02*
X118230000Y-131080000D01*
X118230000Y-131080000D02*
X118230000Y-123670000D01*
X118230000Y-123670000D02*
X102670000Y-123670000D01*
X104450000Y-130250000D02*
X103700000Y-130250000D01*
X103700000Y-130250000D02*
X103700000Y-125950000D01*
X103700000Y-125950000D02*
X104450000Y-125950000D01*
X104450000Y-125950000D02*
X104450000Y-125600000D01*
X104450000Y-125600000D02*
X103950000Y-125600000D01*
X103950000Y-125600000D02*
X103700000Y-124600000D01*
X103700000Y-124600000D02*
X106700000Y-124600000D01*
X106700000Y-124600000D02*
X106450000Y-125600000D01*
X106450000Y-125600000D02*
X105950000Y-125600000D01*
X105950000Y-125600000D02*
X105950000Y-125950000D01*
X105950000Y-125950000D02*
X105950000Y-125950000D01*
X105950000Y-125950000D02*
X106700000Y-125950000D01*
X106700000Y-125950000D02*
X106700000Y-130250000D01*
X106700000Y-130250000D02*
X105950000Y-130250000D01*
X107950000Y-130250000D02*
X107200000Y-130250000D01*
X107200000Y-130250000D02*
X107200000Y-125950000D01*
X107200000Y-125950000D02*
X107950000Y-125950000D01*
X107950000Y-125950000D02*
X107950000Y-125600000D01*
X107950000Y-125600000D02*
X107450000Y-125600000D01*
X107450000Y-125600000D02*
X107200000Y-124600000D01*
X107200000Y-124600000D02*
X110200000Y-124600000D01*
X110200000Y-124600000D02*
X109950000Y-125600000D01*
X109950000Y-125600000D02*
X109450000Y-125600000D01*
X109450000Y-125600000D02*
X109450000Y-125950000D01*
X109450000Y-125950000D02*
X109450000Y-125950000D01*
X109450000Y-125950000D02*
X110200000Y-125950000D01*
X110200000Y-125950000D02*
X110200000Y-130250000D01*
X110200000Y-130250000D02*
X109450000Y-130250000D01*
X111450000Y-130250000D02*
X110700000Y-130250000D01*
X110700000Y-130250000D02*
X110700000Y-125950000D01*
X110700000Y-125950000D02*
X111450000Y-125950000D01*
X111450000Y-125950000D02*
X111450000Y-125600000D01*
X111450000Y-125600000D02*
X110950000Y-125600000D01*
X110950000Y-125600000D02*
X110700000Y-124600000D01*
X110700000Y-124600000D02*
X113700000Y-124600000D01*
X113700000Y-124600000D02*
X113450000Y-125600000D01*
X113450000Y-125600000D02*
X112950000Y-125600000D01*
X112950000Y-125600000D02*
X112950000Y-125950000D01*
X112950000Y-125950000D02*
X112950000Y-125950000D01*
X112950000Y-125950000D02*
X113700000Y-125950000D01*
X113700000Y-125950000D02*
X113700000Y-130250000D01*
X113700000Y-130250000D02*
X112950000Y-130250000D01*
X114950000Y-130250000D02*
X114200000Y-130250000D01*
X114200000Y-130250000D02*
X114200000Y-125950000D01*
X114200000Y-125950000D02*
X114950000Y-125950000D01*
X114950000Y-125950000D02*
X114950000Y-125600000D01*
X114950000Y-125600000D02*
X114450000Y-125600000D01*
X114450000Y-125600000D02*
X114200000Y-124600000D01*
X114200000Y-124600000D02*
X117200000Y-124600000D01*
X117200000Y-124600000D02*
X116950000Y-125600000D01*
X116950000Y-125600000D02*
X116450000Y-125600000D01*
X116450000Y-125600000D02*
X116450000Y-125950000D01*
X116450000Y-125950000D02*
X116450000Y-125950000D01*
X116450000Y-125950000D02*
X117200000Y-125950000D01*
X117200000Y-125950000D02*
X117200000Y-130250000D01*
X117200000Y-130250000D02*
X116450000Y-130250000D01*
X105200000Y-123250000D02*
X105500000Y-122650000D01*
X105500000Y-122650000D02*
X104900000Y-122650000D01*
X104900000Y-122650000D02*
X105200000Y-123250000D01*
X192999845Y-120700353D02*
G75*
G03X193000000Y-122200000I1700155J-749647D01*
G01*
X192999845Y-117200353D02*
G75*
G03X193000000Y-118700000I1700155J-749647D01*
G01*
X186420000Y-123980000D02*
X193830000Y-123980000D01*
X193830000Y-123980000D02*
X193830000Y-115420000D01*
X193830000Y-115420000D02*
X186420000Y-115420000D01*
X186420000Y-115420000D02*
X186420000Y-123980000D01*
X193000000Y-122200000D02*
X193000000Y-122950000D01*
X193000000Y-122950000D02*
X188700000Y-122950000D01*
X188700000Y-122950000D02*
X188700000Y-122200000D01*
X188700000Y-122200000D02*
X188350000Y-122200000D01*
X188350000Y-122200000D02*
X188350000Y-122700000D01*
X188350000Y-122700000D02*
X187350000Y-122950000D01*
X187350000Y-122950000D02*
X187350000Y-119950000D01*
X187350000Y-119950000D02*
X188350000Y-120200000D01*
X188350000Y-120200000D02*
X188350000Y-120700000D01*
X188350000Y-120700000D02*
X188700000Y-120700000D01*
X188700000Y-120700000D02*
X188700000Y-120700000D01*
X188700000Y-120700000D02*
X188700000Y-119950000D01*
X188700000Y-119950000D02*
X193000000Y-119950000D01*
X193000000Y-119950000D02*
X193000000Y-120700000D01*
X193000000Y-118700000D02*
X193000000Y-119450000D01*
X193000000Y-119450000D02*
X188700000Y-119450000D01*
X188700000Y-119450000D02*
X188700000Y-118700000D01*
X188700000Y-118700000D02*
X188350000Y-118700000D01*
X188350000Y-118700000D02*
X188350000Y-119200000D01*
X188350000Y-119200000D02*
X187350000Y-119450000D01*
X187350000Y-119450000D02*
X187350000Y-116450000D01*
X187350000Y-116450000D02*
X188350000Y-116700000D01*
X188350000Y-116700000D02*
X188350000Y-117200000D01*
X188350000Y-117200000D02*
X188700000Y-117200000D01*
X188700000Y-117200000D02*
X188700000Y-117200000D01*
X188700000Y-117200000D02*
X188700000Y-116450000D01*
X188700000Y-116450000D02*
X193000000Y-116450000D01*
X193000000Y-116450000D02*
X193000000Y-117200000D01*
X186000000Y-121450000D02*
X185400000Y-121150000D01*
X185400000Y-121150000D02*
X185400000Y-121750000D01*
X185400000Y-121750000D02*
X186000000Y-121450000D01*
X57249647Y-130249845D02*
G75*
G03X55750000Y-130250000I-749647J-1700155D01*
G01*
X60749647Y-130249845D02*
G75*
G03X59250000Y-130250000I-749647J-1700155D01*
G01*
X64249647Y-130249845D02*
G75*
G03X62750000Y-130250000I-749647J-1700155D01*
G01*
X67749647Y-130249845D02*
G75*
G03X66250000Y-130250000I-749647J-1700155D01*
G01*
X53970000Y-123670000D02*
X53970000Y-131080000D01*
X53970000Y-131080000D02*
X69530000Y-131080000D01*
X69530000Y-131080000D02*
X69530000Y-123670000D01*
X69530000Y-123670000D02*
X53970000Y-123670000D01*
X55750000Y-130250000D02*
X55000000Y-130250000D01*
X55000000Y-130250000D02*
X55000000Y-125950000D01*
X55000000Y-125950000D02*
X55750000Y-125950000D01*
X55750000Y-125950000D02*
X55750000Y-125600000D01*
X55750000Y-125600000D02*
X55250000Y-125600000D01*
X55250000Y-125600000D02*
X55000000Y-124600000D01*
X55000000Y-124600000D02*
X58000000Y-124600000D01*
X58000000Y-124600000D02*
X57750000Y-125600000D01*
X57750000Y-125600000D02*
X57250000Y-125600000D01*
X57250000Y-125600000D02*
X57250000Y-125950000D01*
X57250000Y-125950000D02*
X57250000Y-125950000D01*
X57250000Y-125950000D02*
X58000000Y-125950000D01*
X58000000Y-125950000D02*
X58000000Y-130250000D01*
X58000000Y-130250000D02*
X57250000Y-130250000D01*
X59250000Y-130250000D02*
X58500000Y-130250000D01*
X58500000Y-130250000D02*
X58500000Y-125950000D01*
X58500000Y-125950000D02*
X59250000Y-125950000D01*
X59250000Y-125950000D02*
X59250000Y-125600000D01*
X59250000Y-125600000D02*
X58750000Y-125600000D01*
X58750000Y-125600000D02*
X58500000Y-124600000D01*
X58500000Y-124600000D02*
X61500000Y-124600000D01*
X61500000Y-124600000D02*
X61250000Y-125600000D01*
X61250000Y-125600000D02*
X60750000Y-125600000D01*
X60750000Y-125600000D02*
X60750000Y-125950000D01*
X60750000Y-125950000D02*
X60750000Y-125950000D01*
X60750000Y-125950000D02*
X61500000Y-125950000D01*
X61500000Y-125950000D02*
X61500000Y-130250000D01*
X61500000Y-130250000D02*
X60750000Y-130250000D01*
X62750000Y-130250000D02*
X62000000Y-130250000D01*
X62000000Y-130250000D02*
X62000000Y-125950000D01*
X62000000Y-125950000D02*
X62750000Y-125950000D01*
X62750000Y-125950000D02*
X62750000Y-125600000D01*
X62750000Y-125600000D02*
X62250000Y-125600000D01*
X62250000Y-125600000D02*
X62000000Y-124600000D01*
X62000000Y-124600000D02*
X65000000Y-124600000D01*
X65000000Y-124600000D02*
X64750000Y-125600000D01*
X64750000Y-125600000D02*
X64250000Y-125600000D01*
X64250000Y-125600000D02*
X64250000Y-125950000D01*
X64250000Y-125950000D02*
X64250000Y-125950000D01*
X64250000Y-125950000D02*
X65000000Y-125950000D01*
X65000000Y-125950000D02*
X65000000Y-130250000D01*
X65000000Y-130250000D02*
X64250000Y-130250000D01*
X66250000Y-130250000D02*
X65500000Y-130250000D01*
X65500000Y-130250000D02*
X65500000Y-125950000D01*
X65500000Y-125950000D02*
X66250000Y-125950000D01*
X66250000Y-125950000D02*
X66250000Y-125600000D01*
X66250000Y-125600000D02*
X65750000Y-125600000D01*
X65750000Y-125600000D02*
X65500000Y-124600000D01*
X65500000Y-124600000D02*
X68500000Y-124600000D01*
X68500000Y-124600000D02*
X68250000Y-125600000D01*
X68250000Y-125600000D02*
X67750000Y-125600000D01*
X67750000Y-125600000D02*
X67750000Y-125950000D01*
X67750000Y-125950000D02*
X67750000Y-125950000D01*
X67750000Y-125950000D02*
X68500000Y-125950000D01*
X68500000Y-125950000D02*
X68500000Y-130250000D01*
X68500000Y-130250000D02*
X67750000Y-130250000D01*
X56500000Y-123250000D02*
X56800000Y-122650000D01*
X56800000Y-122650000D02*
X56200000Y-122650000D01*
X56200000Y-122650000D02*
X56500000Y-123250000D01*
X182150000Y-115850000D02*
X182150000Y-105850000D01*
X182150000Y-105850000D02*
X186150000Y-105850000D01*
X186150000Y-105850000D02*
X186150000Y-115850000D01*
X186150000Y-115850000D02*
X182150000Y-115850000D01*
X96720000Y-54640000D02*
X104340000Y-54640000D01*
X104340000Y-54640000D02*
X104340000Y-48290000D01*
X96720000Y-54640000D02*
X96720000Y-48290000D01*
X87830000Y-81310000D02*
X131010000Y-81310000D01*
X131010000Y-81310000D02*
X131010000Y-48290000D01*
X131010000Y-48290000D02*
X87830000Y-48290000D01*
X87830000Y-48290000D02*
X87830000Y-81310000D01*
X50720000Y-54640000D02*
X58340000Y-54640000D01*
X58340000Y-54640000D02*
X58340000Y-48290000D01*
X50720000Y-54640000D02*
X50720000Y-48290000D01*
X41830000Y-81310000D02*
X85010000Y-81310000D01*
X85010000Y-81310000D02*
X85010000Y-48290000D01*
X85010000Y-48290000D02*
X41830000Y-48290000D01*
X41830000Y-48290000D02*
X41830000Y-81310000D01*
X191700000Y-104650420D02*
X192700760Y-105498780D01*
X192700760Y-105498780D02*
X190699240Y-105498780D01*
X190699240Y-105498780D02*
X191700000Y-104650420D01*
X191700000Y-104650420D02*
X190699240Y-104650420D01*
X191700000Y-104650420D02*
X192700760Y-104650420D01*
X189900000Y-102793680D02*
X190099800Y-102793680D01*
X189900000Y-103250720D02*
X190099000Y-103250720D01*
X189900000Y-107401240D02*
X190049000Y-107401240D01*
X193500000Y-102798760D02*
X193351000Y-102798760D01*
X193500000Y-103250720D02*
X193351000Y-103250720D01*
X193500000Y-107401240D02*
X193351000Y-107401240D01*
X189751020Y-103250720D02*
X189949140Y-103250720D01*
X193698980Y-103250720D02*
X193500860Y-103250720D01*
X189703560Y-107396160D02*
X189901680Y-107396160D01*
X189703560Y-102793680D02*
X189703560Y-107396160D01*
X189703560Y-102793680D02*
X189901680Y-102793680D01*
X193698980Y-102798760D02*
X193500860Y-102798760D01*
X193698980Y-102798760D02*
X193698980Y-107401240D01*
X193698980Y-107401240D02*
X193500860Y-107401240D01*
X140700000Y-80650000D02*
X139700000Y-80650000D01*
X139700000Y-82350000D02*
X140700000Y-82350000D01*
X171500000Y-119850000D02*
X172500000Y-119850000D01*
X172500000Y-118150000D02*
X171500000Y-118150000D01*
X157525001Y-119925000D02*
X158525001Y-119925000D01*
X158525001Y-118225000D02*
X157525001Y-118225000D01*
X143500000Y-119950000D02*
X144500000Y-119950000D01*
X144500000Y-118250000D02*
X143500000Y-118250000D01*
X171500000Y-117250000D02*
X172500000Y-117250000D01*
X172500000Y-115550000D02*
X171500000Y-115550000D01*
X157500000Y-117250000D02*
X158500000Y-117250000D01*
X158500000Y-115550000D02*
X157500000Y-115550000D01*
X143500000Y-117250000D02*
X144500000Y-117250000D01*
X144500000Y-115550000D02*
X143500000Y-115550000D01*
X100600000Y-80750000D02*
X99600000Y-80750000D01*
X99600000Y-82450000D02*
X100600000Y-82450000D01*
X120600000Y-119850000D02*
X121600000Y-119850000D01*
X121600000Y-118150000D02*
X120600000Y-118150000D01*
X106200000Y-119850000D02*
X107200000Y-119850000D01*
X107200000Y-118150000D02*
X106200000Y-118150000D01*
X92600000Y-119850000D02*
X93600000Y-119850000D01*
X93600000Y-118150000D02*
X92600000Y-118150000D01*
X120600000Y-117250000D02*
X121600000Y-117250000D01*
X121600000Y-115550000D02*
X120600000Y-115550000D01*
X106200000Y-117250000D02*
X107200000Y-117250000D01*
X107200000Y-115550000D02*
X106200000Y-115550000D01*
X92600000Y-117250000D02*
X93600000Y-117250000D01*
X93600000Y-115550000D02*
X92600000Y-115550000D01*
X177800000Y-86900000D02*
X178800000Y-86900000D01*
X178300000Y-86400000D02*
X178300000Y-87400000D01*
X187150000Y-88900000D02*
G75*
G03X187150000Y-88900000I-6350000J0D01*
G01*
X132200000Y-90900000D02*
X131200000Y-90900000D01*
X131700000Y-91400000D02*
X131700000Y-90400000D01*
X135550000Y-88900000D02*
G75*
G03X135550000Y-88900000I-6350000J0D01*
G01*
X83200000Y-86900000D02*
X84200000Y-86900000D01*
X83700000Y-86400000D02*
X83700000Y-87400000D01*
X92550000Y-88900000D02*
G75*
G03X92550000Y-88900000I-6350000J0D01*
G01*
X54800000Y-80750000D02*
X53800000Y-80750000D01*
X53800000Y-82450000D02*
X54800000Y-82450000D01*
X71500000Y-119650000D02*
X72500000Y-119650000D01*
X72500000Y-117950000D02*
X71500000Y-117950000D01*
X57500000Y-119650000D02*
X58500000Y-119650000D01*
X58500000Y-117950000D02*
X57500000Y-117950000D01*
X43500000Y-119650000D02*
X44500000Y-119650000D01*
X44500000Y-117950000D02*
X43500000Y-117950000D01*
X71500000Y-117150000D02*
X72500000Y-117150000D01*
X72500000Y-115450000D02*
X71500000Y-115450000D01*
X57500000Y-117150000D02*
X58500000Y-117150000D01*
X58500000Y-115450000D02*
X57500000Y-115450000D01*
X43500000Y-117150000D02*
X44500000Y-117150000D01*
X44500000Y-115450000D02*
X43500000Y-115450000D01*
X149625000Y-59700000D02*
X149625000Y-58500000D01*
X151375000Y-58500000D02*
X151375000Y-59700000D01*
X148975000Y-58500000D02*
X148975000Y-59700000D01*
X147225000Y-59700000D02*
X147225000Y-58500000D01*
X190500000Y-97150000D02*
X187800000Y-97150000D01*
X190500000Y-98650000D02*
X187800000Y-98650000D01*
X189000000Y-97750000D02*
X189000000Y-98000000D01*
X189000000Y-98000000D02*
X189150000Y-97850000D01*
X189250000Y-98250000D02*
X189250000Y-97550000D01*
X188900000Y-97900000D02*
X188550000Y-97900000D01*
X189250000Y-97900000D02*
X188900000Y-98250000D01*
X188900000Y-98250000D02*
X188900000Y-97550000D01*
X188900000Y-97550000D02*
X189250000Y-97900000D01*
X188775000Y-101200000D02*
X188775000Y-102400000D01*
X187025000Y-102400000D02*
X187025000Y-101200000D01*
X136420000Y-82980000D02*
X161820000Y-82980000D01*
X136960000Y-83530000D02*
X161260000Y-83530000D01*
X136420000Y-92080000D02*
X161820000Y-92080000D01*
X136960000Y-91530000D02*
X146870000Y-91530000D01*
X151370000Y-91530000D02*
X161260000Y-91530000D01*
X146870000Y-91530000D02*
X146870000Y-92080000D01*
X151370000Y-91530000D02*
X151370000Y-92080000D01*
X136420000Y-82980000D02*
X136420000Y-92080000D01*
X136960000Y-83530000D02*
X136960000Y-91530000D01*
X161820000Y-82980000D02*
X161820000Y-92080000D01*
X161260000Y-83530000D02*
X161260000Y-91530000D01*
X136420000Y-82980000D02*
X136960000Y-83530000D01*
X161820000Y-82980000D02*
X161260000Y-83530000D01*
X136420000Y-92080000D02*
X136960000Y-91530000D01*
X161820000Y-92080000D02*
X161260000Y-91530000D01*
X36000760Y-32000200D02*
X35000000Y-32000200D01*
X173779524Y-82508571D02*
X174112858Y-82508571D01*
X174255715Y-83032381D02*
X173779524Y-83032381D01*
X173779524Y-82032381D01*
X174255715Y-82032381D01*
X174589048Y-82032381D02*
X175208096Y-82032381D01*
X174874762Y-82413333D01*
X175017620Y-82413333D01*
X175112858Y-82460952D01*
X175160477Y-82508571D01*
X175208096Y-82603810D01*
X175208096Y-82841905D01*
X175160477Y-82937143D01*
X175112858Y-82984762D01*
X175017620Y-83032381D01*
X174731905Y-83032381D01*
X174636667Y-82984762D01*
X174589048Y-82937143D01*
X117952381Y-58966666D02*
X117476190Y-59300000D01*
X117952381Y-59538095D02*
X116952381Y-59538095D01*
X116952381Y-59157142D01*
X117000000Y-59061904D01*
X117047619Y-59014285D01*
X117142857Y-58966666D01*
X117285714Y-58966666D01*
X117380952Y-59014285D01*
X117428571Y-59061904D01*
X117476190Y-59157142D01*
X117476190Y-59538095D01*
X116952381Y-58633333D02*
X116952381Y-57966666D01*
X117952381Y-58395238D01*
X166357143Y-121552381D02*
X166023809Y-121076190D01*
X165785714Y-121552381D02*
X165785714Y-120552381D01*
X166166667Y-120552381D01*
X166261905Y-120600000D01*
X166309524Y-120647619D01*
X166357143Y-120742857D01*
X166357143Y-120885714D01*
X166309524Y-120980952D01*
X166261905Y-121028571D01*
X166166667Y-121076190D01*
X165785714Y-121076190D01*
X167309524Y-121552381D02*
X166738095Y-121552381D01*
X167023809Y-121552381D02*
X167023809Y-120552381D01*
X166928571Y-120695238D01*
X166833333Y-120790476D01*
X166738095Y-120838095D01*
X168214286Y-120552381D02*
X167738095Y-120552381D01*
X167690476Y-121028571D01*
X167738095Y-120980952D01*
X167833333Y-120933333D01*
X168071429Y-120933333D01*
X168166667Y-120980952D01*
X168214286Y-121028571D01*
X168261905Y-121123810D01*
X168261905Y-121361905D01*
X168214286Y-121457143D01*
X168166667Y-121504762D01*
X168071429Y-121552381D01*
X167833333Y-121552381D01*
X167738095Y-121504762D01*
X167690476Y-121457143D01*
X152357143Y-121652381D02*
X152023809Y-121176190D01*
X151785714Y-121652381D02*
X151785714Y-120652381D01*
X152166667Y-120652381D01*
X152261905Y-120700000D01*
X152309524Y-120747619D01*
X152357143Y-120842857D01*
X152357143Y-120985714D01*
X152309524Y-121080952D01*
X152261905Y-121128571D01*
X152166667Y-121176190D01*
X151785714Y-121176190D01*
X153309524Y-121652381D02*
X152738095Y-121652381D01*
X153023809Y-121652381D02*
X153023809Y-120652381D01*
X152928571Y-120795238D01*
X152833333Y-120890476D01*
X152738095Y-120938095D01*
X154166667Y-120985714D02*
X154166667Y-121652381D01*
X153928571Y-120604762D02*
X153690476Y-121319048D01*
X154309524Y-121319048D01*
X138057143Y-121652381D02*
X137723809Y-121176190D01*
X137485714Y-121652381D02*
X137485714Y-120652381D01*
X137866667Y-120652381D01*
X137961905Y-120700000D01*
X138009524Y-120747619D01*
X138057143Y-120842857D01*
X138057143Y-120985714D01*
X138009524Y-121080952D01*
X137961905Y-121128571D01*
X137866667Y-121176190D01*
X137485714Y-121176190D01*
X139009524Y-121652381D02*
X138438095Y-121652381D01*
X138723809Y-121652381D02*
X138723809Y-120652381D01*
X138628571Y-120795238D01*
X138533333Y-120890476D01*
X138438095Y-120938095D01*
X139342857Y-120652381D02*
X139961905Y-120652381D01*
X139628571Y-121033333D01*
X139771429Y-121033333D01*
X139866667Y-121080952D01*
X139914286Y-121128571D01*
X139961905Y-121223810D01*
X139961905Y-121461905D01*
X139914286Y-121557143D01*
X139866667Y-121604762D01*
X139771429Y-121652381D01*
X139485714Y-121652381D01*
X139390476Y-121604762D01*
X139342857Y-121557143D01*
X145952381Y-59742857D02*
X145476190Y-60076191D01*
X145952381Y-60314286D02*
X144952381Y-60314286D01*
X144952381Y-59933333D01*
X145000000Y-59838095D01*
X145047619Y-59790476D01*
X145142857Y-59742857D01*
X145285714Y-59742857D01*
X145380952Y-59790476D01*
X145428571Y-59838095D01*
X145476190Y-59933333D01*
X145476190Y-60314286D01*
X145952381Y-58790476D02*
X145952381Y-59361905D01*
X145952381Y-59076191D02*
X144952381Y-59076191D01*
X145095238Y-59171429D01*
X145190476Y-59266667D01*
X145238095Y-59361905D01*
X145047619Y-58409524D02*
X145000000Y-58361905D01*
X144952381Y-58266667D01*
X144952381Y-58028571D01*
X145000000Y-57933333D01*
X145047619Y-57885714D01*
X145142857Y-57838095D01*
X145238095Y-57838095D01*
X145380952Y-57885714D01*
X145952381Y-58457143D01*
X145952381Y-57838095D01*
X144052381Y-59742857D02*
X143576190Y-60076191D01*
X144052381Y-60314286D02*
X143052381Y-60314286D01*
X143052381Y-59933333D01*
X143100000Y-59838095D01*
X143147619Y-59790476D01*
X143242857Y-59742857D01*
X143385714Y-59742857D01*
X143480952Y-59790476D01*
X143528571Y-59838095D01*
X143576190Y-59933333D01*
X143576190Y-60314286D01*
X144052381Y-58790476D02*
X144052381Y-59361905D01*
X144052381Y-59076191D02*
X143052381Y-59076191D01*
X143195238Y-59171429D01*
X143290476Y-59266667D01*
X143338095Y-59361905D01*
X144052381Y-57838095D02*
X144052381Y-58409524D01*
X144052381Y-58123810D02*
X143052381Y-58123810D01*
X143195238Y-58219048D01*
X143290476Y-58314286D01*
X143338095Y-58409524D01*
X115457143Y-121552381D02*
X115123809Y-121076190D01*
X114885714Y-121552381D02*
X114885714Y-120552381D01*
X115266667Y-120552381D01*
X115361905Y-120600000D01*
X115409524Y-120647619D01*
X115457143Y-120742857D01*
X115457143Y-120885714D01*
X115409524Y-120980952D01*
X115361905Y-121028571D01*
X115266667Y-121076190D01*
X114885714Y-121076190D01*
X116409524Y-121552381D02*
X115838095Y-121552381D01*
X116123809Y-121552381D02*
X116123809Y-120552381D01*
X116028571Y-120695238D01*
X115933333Y-120790476D01*
X115838095Y-120838095D01*
X117028571Y-120552381D02*
X117123810Y-120552381D01*
X117219048Y-120600000D01*
X117266667Y-120647619D01*
X117314286Y-120742857D01*
X117361905Y-120933333D01*
X117361905Y-121171429D01*
X117314286Y-121361905D01*
X117266667Y-121457143D01*
X117219048Y-121504762D01*
X117123810Y-121552381D01*
X117028571Y-121552381D01*
X116933333Y-121504762D01*
X116885714Y-121457143D01*
X116838095Y-121361905D01*
X116790476Y-121171429D01*
X116790476Y-120933333D01*
X116838095Y-120742857D01*
X116885714Y-120647619D01*
X116933333Y-120600000D01*
X117028571Y-120552381D01*
X101333334Y-121552381D02*
X101000000Y-121076190D01*
X100761905Y-121552381D02*
X100761905Y-120552381D01*
X101142858Y-120552381D01*
X101238096Y-120600000D01*
X101285715Y-120647619D01*
X101333334Y-120742857D01*
X101333334Y-120885714D01*
X101285715Y-120980952D01*
X101238096Y-121028571D01*
X101142858Y-121076190D01*
X100761905Y-121076190D01*
X101809524Y-121552381D02*
X102000000Y-121552381D01*
X102095239Y-121504762D01*
X102142858Y-121457143D01*
X102238096Y-121314286D01*
X102285715Y-121123810D01*
X102285715Y-120742857D01*
X102238096Y-120647619D01*
X102190477Y-120600000D01*
X102095239Y-120552381D01*
X101904762Y-120552381D01*
X101809524Y-120600000D01*
X101761905Y-120647619D01*
X101714286Y-120742857D01*
X101714286Y-120980952D01*
X101761905Y-121076190D01*
X101809524Y-121123810D01*
X101904762Y-121171429D01*
X102095239Y-121171429D01*
X102190477Y-121123810D01*
X102238096Y-121076190D01*
X102285715Y-120980952D01*
X87933334Y-121552381D02*
X87600000Y-121076190D01*
X87361905Y-121552381D02*
X87361905Y-120552381D01*
X87742858Y-120552381D01*
X87838096Y-120600000D01*
X87885715Y-120647619D01*
X87933334Y-120742857D01*
X87933334Y-120885714D01*
X87885715Y-120980952D01*
X87838096Y-121028571D01*
X87742858Y-121076190D01*
X87361905Y-121076190D01*
X88504762Y-120980952D02*
X88409524Y-120933333D01*
X88361905Y-120885714D01*
X88314286Y-120790476D01*
X88314286Y-120742857D01*
X88361905Y-120647619D01*
X88409524Y-120600000D01*
X88504762Y-120552381D01*
X88695239Y-120552381D01*
X88790477Y-120600000D01*
X88838096Y-120647619D01*
X88885715Y-120742857D01*
X88885715Y-120790476D01*
X88838096Y-120885714D01*
X88790477Y-120933333D01*
X88695239Y-120980952D01*
X88504762Y-120980952D01*
X88409524Y-121028571D01*
X88361905Y-121076190D01*
X88314286Y-121171429D01*
X88314286Y-121361905D01*
X88361905Y-121457143D01*
X88409524Y-121504762D01*
X88504762Y-121552381D01*
X88695239Y-121552381D01*
X88790477Y-121504762D01*
X88838096Y-121457143D01*
X88885715Y-121361905D01*
X88885715Y-121171429D01*
X88838096Y-121076190D01*
X88790477Y-121028571D01*
X88695239Y-120980952D01*
X65152381Y-73866666D02*
X64676190Y-74200000D01*
X65152381Y-74438095D02*
X64152381Y-74438095D01*
X64152381Y-74057142D01*
X64200000Y-73961904D01*
X64247619Y-73914285D01*
X64342857Y-73866666D01*
X64485714Y-73866666D01*
X64580952Y-73914285D01*
X64628571Y-73961904D01*
X64676190Y-74057142D01*
X64676190Y-74438095D01*
X64152381Y-73009523D02*
X64152381Y-73200000D01*
X64200000Y-73295238D01*
X64247619Y-73342857D01*
X64390476Y-73438095D01*
X64580952Y-73485714D01*
X64961905Y-73485714D01*
X65057143Y-73438095D01*
X65104762Y-73390476D01*
X65152381Y-73295238D01*
X65152381Y-73104761D01*
X65104762Y-73009523D01*
X65057143Y-72961904D01*
X64961905Y-72914285D01*
X64723810Y-72914285D01*
X64628571Y-72961904D01*
X64580952Y-73009523D01*
X64533333Y-73104761D01*
X64533333Y-73295238D01*
X64580952Y-73390476D01*
X64628571Y-73438095D01*
X64723810Y-73485714D01*
X111452381Y-58966666D02*
X110976190Y-59300000D01*
X111452381Y-59538095D02*
X110452381Y-59538095D01*
X110452381Y-59157142D01*
X110500000Y-59061904D01*
X110547619Y-59014285D01*
X110642857Y-58966666D01*
X110785714Y-58966666D01*
X110880952Y-59014285D01*
X110928571Y-59061904D01*
X110976190Y-59157142D01*
X110976190Y-59538095D01*
X110452381Y-58061904D02*
X110452381Y-58538095D01*
X110928571Y-58585714D01*
X110880952Y-58538095D01*
X110833333Y-58442857D01*
X110833333Y-58204761D01*
X110880952Y-58109523D01*
X110928571Y-58061904D01*
X111023810Y-58014285D01*
X111261905Y-58014285D01*
X111357143Y-58061904D01*
X111404762Y-58109523D01*
X111452381Y-58204761D01*
X111452381Y-58442857D01*
X111404762Y-58538095D01*
X111357143Y-58585714D01*
X63352381Y-73866666D02*
X62876190Y-74200000D01*
X63352381Y-74438095D02*
X62352381Y-74438095D01*
X62352381Y-74057142D01*
X62400000Y-73961904D01*
X62447619Y-73914285D01*
X62542857Y-73866666D01*
X62685714Y-73866666D01*
X62780952Y-73914285D01*
X62828571Y-73961904D01*
X62876190Y-74057142D01*
X62876190Y-74438095D01*
X62685714Y-73009523D02*
X63352381Y-73009523D01*
X62304762Y-73247619D02*
X63019048Y-73485714D01*
X63019048Y-72866666D01*
X66833334Y-121352381D02*
X66500000Y-120876190D01*
X66261905Y-121352381D02*
X66261905Y-120352381D01*
X66642858Y-120352381D01*
X66738096Y-120400000D01*
X66785715Y-120447619D01*
X66833334Y-120542857D01*
X66833334Y-120685714D01*
X66785715Y-120780952D01*
X66738096Y-120828571D01*
X66642858Y-120876190D01*
X66261905Y-120876190D01*
X67166667Y-120352381D02*
X67785715Y-120352381D01*
X67452381Y-120733333D01*
X67595239Y-120733333D01*
X67690477Y-120780952D01*
X67738096Y-120828571D01*
X67785715Y-120923810D01*
X67785715Y-121161905D01*
X67738096Y-121257143D01*
X67690477Y-121304762D01*
X67595239Y-121352381D01*
X67309524Y-121352381D01*
X67214286Y-121304762D01*
X67166667Y-121257143D01*
X52833334Y-121352381D02*
X52500000Y-120876190D01*
X52261905Y-121352381D02*
X52261905Y-120352381D01*
X52642858Y-120352381D01*
X52738096Y-120400000D01*
X52785715Y-120447619D01*
X52833334Y-120542857D01*
X52833334Y-120685714D01*
X52785715Y-120780952D01*
X52738096Y-120828571D01*
X52642858Y-120876190D01*
X52261905Y-120876190D01*
X53214286Y-120447619D02*
X53261905Y-120400000D01*
X53357143Y-120352381D01*
X53595239Y-120352381D01*
X53690477Y-120400000D01*
X53738096Y-120447619D01*
X53785715Y-120542857D01*
X53785715Y-120638095D01*
X53738096Y-120780952D01*
X53166667Y-121352381D01*
X53785715Y-121352381D01*
X38833334Y-121352381D02*
X38500000Y-120876190D01*
X38261905Y-121352381D02*
X38261905Y-120352381D01*
X38642858Y-120352381D01*
X38738096Y-120400000D01*
X38785715Y-120447619D01*
X38833334Y-120542857D01*
X38833334Y-120685714D01*
X38785715Y-120780952D01*
X38738096Y-120828571D01*
X38642858Y-120876190D01*
X38261905Y-120876190D01*
X39785715Y-121352381D02*
X39214286Y-121352381D01*
X39500000Y-121352381D02*
X39500000Y-120352381D01*
X39404762Y-120495238D01*
X39309524Y-120590476D01*
X39214286Y-120638095D01*
X104531905Y-81632381D02*
X104531905Y-80632381D01*
X104912858Y-80632381D01*
X105008096Y-80680000D01*
X105055715Y-80727619D01*
X105103334Y-80822857D01*
X105103334Y-80965714D01*
X105055715Y-81060952D01*
X105008096Y-81108571D01*
X104912858Y-81156190D01*
X104531905Y-81156190D01*
X105436667Y-80632381D02*
X106055715Y-80632381D01*
X105722381Y-81013333D01*
X105865239Y-81013333D01*
X105960477Y-81060952D01*
X106008096Y-81108571D01*
X106055715Y-81203810D01*
X106055715Y-81441905D01*
X106008096Y-81537143D01*
X105960477Y-81584762D01*
X105865239Y-81632381D01*
X105579524Y-81632381D01*
X105484286Y-81584762D01*
X105436667Y-81537143D01*
X57531905Y-81632381D02*
X57531905Y-80632381D01*
X57912858Y-80632381D01*
X58008096Y-80680000D01*
X58055715Y-80727619D01*
X58103334Y-80822857D01*
X58103334Y-80965714D01*
X58055715Y-81060952D01*
X58008096Y-81108571D01*
X57912858Y-81156190D01*
X57531905Y-81156190D01*
X58484286Y-80727619D02*
X58531905Y-80680000D01*
X58627143Y-80632381D01*
X58865239Y-80632381D01*
X58960477Y-80680000D01*
X59008096Y-80727619D01*
X59055715Y-80822857D01*
X59055715Y-80918095D01*
X59008096Y-81060952D01*
X58436667Y-81632381D01*
X59055715Y-81632381D01*
X107831905Y-45472381D02*
X107831905Y-44472381D01*
X108212858Y-44472381D01*
X108308096Y-44520000D01*
X108355715Y-44567619D01*
X108403334Y-44662857D01*
X108403334Y-44805714D01*
X108355715Y-44900952D01*
X108308096Y-44948571D01*
X108212858Y-44996190D01*
X107831905Y-44996190D01*
X109355715Y-45472381D02*
X108784286Y-45472381D01*
X109070000Y-45472381D02*
X109070000Y-44472381D01*
X108974762Y-44615238D01*
X108879524Y-44710476D01*
X108784286Y-44758095D01*
X181952381Y-112166666D02*
X181952381Y-112642857D01*
X180952381Y-112642857D01*
X181952381Y-111785714D02*
X181952381Y-111595238D01*
X181904762Y-111499999D01*
X181857143Y-111452380D01*
X181714286Y-111357142D01*
X181523810Y-111309523D01*
X181142857Y-111309523D01*
X181047619Y-111357142D01*
X181000000Y-111404761D01*
X180952381Y-111499999D01*
X180952381Y-111690476D01*
X181000000Y-111785714D01*
X181047619Y-111833333D01*
X181142857Y-111880952D01*
X181380952Y-111880952D01*
X181476190Y-111833333D01*
X181523810Y-111785714D01*
X181571429Y-111690476D01*
X181571429Y-111499999D01*
X181523810Y-111404761D01*
X181476190Y-111357142D01*
X181380952Y-111309523D01*
X167952381Y-112166666D02*
X167952381Y-112642857D01*
X166952381Y-112642857D01*
X167380952Y-111690476D02*
X167333333Y-111785714D01*
X167285714Y-111833333D01*
X167190476Y-111880952D01*
X167142857Y-111880952D01*
X167047619Y-111833333D01*
X167000000Y-111785714D01*
X166952381Y-111690476D01*
X166952381Y-111499999D01*
X167000000Y-111404761D01*
X167047619Y-111357142D01*
X167142857Y-111309523D01*
X167190476Y-111309523D01*
X167285714Y-111357142D01*
X167333333Y-111404761D01*
X167380952Y-111499999D01*
X167380952Y-111690476D01*
X167428571Y-111785714D01*
X167476190Y-111833333D01*
X167571429Y-111880952D01*
X167761905Y-111880952D01*
X167857143Y-111833333D01*
X167904762Y-111785714D01*
X167952381Y-111690476D01*
X167952381Y-111499999D01*
X167904762Y-111404761D01*
X167857143Y-111357142D01*
X167761905Y-111309523D01*
X167571429Y-111309523D01*
X167476190Y-111357142D01*
X167428571Y-111404761D01*
X167380952Y-111499999D01*
X153952381Y-112166666D02*
X153952381Y-112642857D01*
X152952381Y-112642857D01*
X152952381Y-111928571D02*
X152952381Y-111261904D01*
X153952381Y-111690476D01*
X130952381Y-112166666D02*
X130952381Y-112642857D01*
X129952381Y-112642857D01*
X129952381Y-111404761D02*
X129952381Y-111595238D01*
X130000000Y-111690476D01*
X130047619Y-111738095D01*
X130190476Y-111833333D01*
X130380952Y-111880952D01*
X130761905Y-111880952D01*
X130857143Y-111833333D01*
X130904762Y-111785714D01*
X130952381Y-111690476D01*
X130952381Y-111499999D01*
X130904762Y-111404761D01*
X130857143Y-111357142D01*
X130761905Y-111309523D01*
X130523810Y-111309523D01*
X130428571Y-111357142D01*
X130380952Y-111404761D01*
X130333333Y-111499999D01*
X130333333Y-111690476D01*
X130380952Y-111785714D01*
X130428571Y-111833333D01*
X130523810Y-111880952D01*
X116952381Y-112166666D02*
X116952381Y-112642857D01*
X115952381Y-112642857D01*
X115952381Y-111357142D02*
X115952381Y-111833333D01*
X116428571Y-111880952D01*
X116380952Y-111833333D01*
X116333333Y-111738095D01*
X116333333Y-111499999D01*
X116380952Y-111404761D01*
X116428571Y-111357142D01*
X116523810Y-111309523D01*
X116761905Y-111309523D01*
X116857143Y-111357142D01*
X116904762Y-111404761D01*
X116952381Y-111499999D01*
X116952381Y-111738095D01*
X116904762Y-111833333D01*
X116857143Y-111880952D01*
X102952381Y-112166666D02*
X102952381Y-112642857D01*
X101952381Y-112642857D01*
X102285714Y-111404761D02*
X102952381Y-111404761D01*
X101904762Y-111642857D02*
X102619048Y-111880952D01*
X102619048Y-111261904D01*
X81952381Y-112166666D02*
X81952381Y-112642857D01*
X80952381Y-112642857D01*
X80952381Y-111928571D02*
X80952381Y-111309523D01*
X81333333Y-111642857D01*
X81333333Y-111499999D01*
X81380952Y-111404761D01*
X81428571Y-111357142D01*
X81523810Y-111309523D01*
X81761905Y-111309523D01*
X81857143Y-111357142D01*
X81904762Y-111404761D01*
X81952381Y-111499999D01*
X81952381Y-111785714D01*
X81904762Y-111880952D01*
X81857143Y-111928571D01*
X67952381Y-112166666D02*
X67952381Y-112642857D01*
X66952381Y-112642857D01*
X67047619Y-111880952D02*
X67000000Y-111833333D01*
X66952381Y-111738095D01*
X66952381Y-111499999D01*
X67000000Y-111404761D01*
X67047619Y-111357142D01*
X67142857Y-111309523D01*
X67238095Y-111309523D01*
X67380952Y-111357142D01*
X67952381Y-111928571D01*
X67952381Y-111309523D01*
X53952381Y-112166666D02*
X53952381Y-112642857D01*
X52952381Y-112642857D01*
X53952381Y-111309523D02*
X53952381Y-111880952D01*
X53952381Y-111595238D02*
X52952381Y-111595238D01*
X53095238Y-111690476D01*
X53190476Y-111785714D01*
X53238095Y-111880952D01*
X161316667Y-122002381D02*
X161316667Y-122716667D01*
X161269047Y-122859524D01*
X161173809Y-122954762D01*
X161030952Y-123002381D01*
X160935714Y-123002381D01*
X162221429Y-122335714D02*
X162221429Y-123002381D01*
X161983333Y-121954762D02*
X161745238Y-122669048D01*
X162364286Y-122669048D01*
X110116667Y-122002381D02*
X110116667Y-122716667D01*
X110069047Y-122859524D01*
X109973809Y-122954762D01*
X109830952Y-123002381D01*
X109735714Y-123002381D01*
X110497619Y-122002381D02*
X111116667Y-122002381D01*
X110783333Y-122383333D01*
X110926191Y-122383333D01*
X111021429Y-122430952D01*
X111069048Y-122478571D01*
X111116667Y-122573810D01*
X111116667Y-122811905D01*
X111069048Y-122907143D01*
X111021429Y-122954762D01*
X110926191Y-123002381D01*
X110640476Y-123002381D01*
X110545238Y-122954762D01*
X110497619Y-122907143D01*
X184752381Y-119033333D02*
X185466667Y-119033333D01*
X185609524Y-119080953D01*
X185704762Y-119176191D01*
X185752381Y-119319048D01*
X185752381Y-119414286D01*
X184847619Y-118604762D02*
X184800000Y-118557143D01*
X184752381Y-118461905D01*
X184752381Y-118223809D01*
X184800000Y-118128571D01*
X184847619Y-118080952D01*
X184942857Y-118033333D01*
X185038095Y-118033333D01*
X185180952Y-118080952D01*
X185752381Y-118652381D01*
X185752381Y-118033333D01*
X61416667Y-122002381D02*
X61416667Y-122716667D01*
X61369047Y-122859524D01*
X61273809Y-122954762D01*
X61130952Y-123002381D01*
X61035714Y-123002381D01*
X62416667Y-123002381D02*
X61845238Y-123002381D01*
X62130952Y-123002381D02*
X62130952Y-122002381D01*
X62035714Y-122145238D01*
X61940476Y-122240476D01*
X61845238Y-122288095D01*
X187078571Y-110683333D02*
X187078571Y-111016667D01*
X187602381Y-111016667D02*
X186602381Y-111016667D01*
X186602381Y-110540476D01*
X187602381Y-109635714D02*
X187602381Y-110207143D01*
X187602381Y-109921429D02*
X186602381Y-109921429D01*
X186745238Y-110016667D01*
X186840476Y-110111905D01*
X186888095Y-110207143D01*
X127779524Y-82508571D02*
X128112858Y-82508571D01*
X128255715Y-83032381D02*
X127779524Y-83032381D01*
X127779524Y-82032381D01*
X128255715Y-82032381D01*
X128636667Y-82127619D02*
X128684286Y-82080000D01*
X128779524Y-82032381D01*
X129017620Y-82032381D01*
X129112858Y-82080000D01*
X129160477Y-82127619D01*
X129208096Y-82222857D01*
X129208096Y-82318095D01*
X129160477Y-82460952D01*
X128589048Y-83032381D01*
X129208096Y-83032381D01*
X81779524Y-82508571D02*
X82112858Y-82508571D01*
X82255715Y-83032381D02*
X81779524Y-83032381D01*
X81779524Y-82032381D01*
X82255715Y-82032381D01*
X83208096Y-83032381D02*
X82636667Y-83032381D01*
X82922381Y-83032381D02*
X82922381Y-82032381D01*
X82827143Y-82175238D01*
X82731905Y-82270476D01*
X82636667Y-82318095D01*
X195252381Y-105838095D02*
X194252381Y-105838095D01*
X194252381Y-105600000D01*
X194300000Y-105457142D01*
X194395238Y-105361904D01*
X194490476Y-105314285D01*
X194680952Y-105266666D01*
X194823810Y-105266666D01*
X195014286Y-105314285D01*
X195109524Y-105361904D01*
X195204762Y-105457142D01*
X195252381Y-105600000D01*
X195252381Y-105838095D01*
X195252381Y-104314285D02*
X195252381Y-104885714D01*
X195252381Y-104600000D02*
X194252381Y-104600000D01*
X194395238Y-104695238D01*
X194490476Y-104790476D01*
X194538095Y-104885714D01*
X189052381Y-101861905D02*
X188052381Y-101861905D01*
X189052381Y-101290476D02*
X188480952Y-101719048D01*
X188052381Y-101290476D02*
X188623810Y-101861905D01*
X188816667Y-108338095D02*
X188816667Y-107861904D01*
X189102381Y-108433333D02*
X188102381Y-108100000D01*
X189102381Y-107766666D01*
X139557143Y-79757143D02*
X139509524Y-79804762D01*
X139366667Y-79852381D01*
X139271429Y-79852381D01*
X139128571Y-79804762D01*
X139033333Y-79709524D01*
X138985714Y-79614286D01*
X138938095Y-79423810D01*
X138938095Y-79280952D01*
X138985714Y-79090476D01*
X139033333Y-78995238D01*
X139128571Y-78900000D01*
X139271429Y-78852381D01*
X139366667Y-78852381D01*
X139509524Y-78900000D01*
X139557143Y-78947619D01*
X139938095Y-78947619D02*
X139985714Y-78900000D01*
X140080952Y-78852381D01*
X140319048Y-78852381D01*
X140414286Y-78900000D01*
X140461905Y-78947619D01*
X140509524Y-79042857D01*
X140509524Y-79138095D01*
X140461905Y-79280952D01*
X139890476Y-79852381D01*
X140509524Y-79852381D01*
X140842857Y-78852381D02*
X141509524Y-78852381D01*
X141080952Y-79852381D01*
X171357143Y-121457143D02*
X171309524Y-121504762D01*
X171166667Y-121552381D01*
X171071429Y-121552381D01*
X170928571Y-121504762D01*
X170833333Y-121409524D01*
X170785714Y-121314286D01*
X170738095Y-121123810D01*
X170738095Y-120980952D01*
X170785714Y-120790476D01*
X170833333Y-120695238D01*
X170928571Y-120600000D01*
X171071429Y-120552381D01*
X171166667Y-120552381D01*
X171309524Y-120600000D01*
X171357143Y-120647619D01*
X171738095Y-120647619D02*
X171785714Y-120600000D01*
X171880952Y-120552381D01*
X172119048Y-120552381D01*
X172214286Y-120600000D01*
X172261905Y-120647619D01*
X172309524Y-120742857D01*
X172309524Y-120838095D01*
X172261905Y-120980952D01*
X171690476Y-121552381D01*
X172309524Y-121552381D01*
X173166667Y-120552381D02*
X172976190Y-120552381D01*
X172880952Y-120600000D01*
X172833333Y-120647619D01*
X172738095Y-120790476D01*
X172690476Y-120980952D01*
X172690476Y-121361905D01*
X172738095Y-121457143D01*
X172785714Y-121504762D01*
X172880952Y-121552381D01*
X173071429Y-121552381D01*
X173166667Y-121504762D01*
X173214286Y-121457143D01*
X173261905Y-121361905D01*
X173261905Y-121123810D01*
X173214286Y-121028571D01*
X173166667Y-120980952D01*
X173071429Y-120933333D01*
X172880952Y-120933333D01*
X172785714Y-120980952D01*
X172738095Y-121028571D01*
X172690476Y-121123810D01*
X157382144Y-121532143D02*
X157334525Y-121579762D01*
X157191668Y-121627381D01*
X157096430Y-121627381D01*
X156953572Y-121579762D01*
X156858334Y-121484524D01*
X156810715Y-121389286D01*
X156763096Y-121198810D01*
X156763096Y-121055952D01*
X156810715Y-120865476D01*
X156858334Y-120770238D01*
X156953572Y-120675000D01*
X157096430Y-120627381D01*
X157191668Y-120627381D01*
X157334525Y-120675000D01*
X157382144Y-120722619D01*
X157763096Y-120722619D02*
X157810715Y-120675000D01*
X157905953Y-120627381D01*
X158144049Y-120627381D01*
X158239287Y-120675000D01*
X158286906Y-120722619D01*
X158334525Y-120817857D01*
X158334525Y-120913095D01*
X158286906Y-121055952D01*
X157715477Y-121627381D01*
X158334525Y-121627381D01*
X159239287Y-120627381D02*
X158763096Y-120627381D01*
X158715477Y-121103571D01*
X158763096Y-121055952D01*
X158858334Y-121008333D01*
X159096430Y-121008333D01*
X159191668Y-121055952D01*
X159239287Y-121103571D01*
X159286906Y-121198810D01*
X159286906Y-121436905D01*
X159239287Y-121532143D01*
X159191668Y-121579762D01*
X159096430Y-121627381D01*
X158858334Y-121627381D01*
X158763096Y-121579762D01*
X158715477Y-121532143D01*
X143357143Y-121557143D02*
X143309524Y-121604762D01*
X143166667Y-121652381D01*
X143071429Y-121652381D01*
X142928571Y-121604762D01*
X142833333Y-121509524D01*
X142785714Y-121414286D01*
X142738095Y-121223810D01*
X142738095Y-121080952D01*
X142785714Y-120890476D01*
X142833333Y-120795238D01*
X142928571Y-120700000D01*
X143071429Y-120652381D01*
X143166667Y-120652381D01*
X143309524Y-120700000D01*
X143357143Y-120747619D01*
X143738095Y-120747619D02*
X143785714Y-120700000D01*
X143880952Y-120652381D01*
X144119048Y-120652381D01*
X144214286Y-120700000D01*
X144261905Y-120747619D01*
X144309524Y-120842857D01*
X144309524Y-120938095D01*
X144261905Y-121080952D01*
X143690476Y-121652381D01*
X144309524Y-121652381D01*
X145166667Y-120985714D02*
X145166667Y-121652381D01*
X144928571Y-120604762D02*
X144690476Y-121319048D01*
X145309524Y-121319048D01*
X171357143Y-118857143D02*
X171309524Y-118904762D01*
X171166667Y-118952381D01*
X171071429Y-118952381D01*
X170928571Y-118904762D01*
X170833333Y-118809524D01*
X170785714Y-118714286D01*
X170738095Y-118523810D01*
X170738095Y-118380952D01*
X170785714Y-118190476D01*
X170833333Y-118095238D01*
X170928571Y-118000000D01*
X171071429Y-117952381D01*
X171166667Y-117952381D01*
X171309524Y-118000000D01*
X171357143Y-118047619D01*
X171738095Y-118047619D02*
X171785714Y-118000000D01*
X171880952Y-117952381D01*
X172119048Y-117952381D01*
X172214286Y-118000000D01*
X172261905Y-118047619D01*
X172309524Y-118142857D01*
X172309524Y-118238095D01*
X172261905Y-118380952D01*
X171690476Y-118952381D01*
X172309524Y-118952381D01*
X172642857Y-117952381D02*
X173261905Y-117952381D01*
X172928571Y-118333333D01*
X173071429Y-118333333D01*
X173166667Y-118380952D01*
X173214286Y-118428571D01*
X173261905Y-118523810D01*
X173261905Y-118761905D01*
X173214286Y-118857143D01*
X173166667Y-118904762D01*
X173071429Y-118952381D01*
X172785714Y-118952381D01*
X172690476Y-118904762D01*
X172642857Y-118857143D01*
X157357143Y-118857143D02*
X157309524Y-118904762D01*
X157166667Y-118952381D01*
X157071429Y-118952381D01*
X156928571Y-118904762D01*
X156833333Y-118809524D01*
X156785714Y-118714286D01*
X156738095Y-118523810D01*
X156738095Y-118380952D01*
X156785714Y-118190476D01*
X156833333Y-118095238D01*
X156928571Y-118000000D01*
X157071429Y-117952381D01*
X157166667Y-117952381D01*
X157309524Y-118000000D01*
X157357143Y-118047619D01*
X157738095Y-118047619D02*
X157785714Y-118000000D01*
X157880952Y-117952381D01*
X158119048Y-117952381D01*
X158214286Y-118000000D01*
X158261905Y-118047619D01*
X158309524Y-118142857D01*
X158309524Y-118238095D01*
X158261905Y-118380952D01*
X157690476Y-118952381D01*
X158309524Y-118952381D01*
X158690476Y-118047619D02*
X158738095Y-118000000D01*
X158833333Y-117952381D01*
X159071429Y-117952381D01*
X159166667Y-118000000D01*
X159214286Y-118047619D01*
X159261905Y-118142857D01*
X159261905Y-118238095D01*
X159214286Y-118380952D01*
X158642857Y-118952381D01*
X159261905Y-118952381D01*
X143357143Y-118857143D02*
X143309524Y-118904762D01*
X143166667Y-118952381D01*
X143071429Y-118952381D01*
X142928571Y-118904762D01*
X142833333Y-118809524D01*
X142785714Y-118714286D01*
X142738095Y-118523810D01*
X142738095Y-118380952D01*
X142785714Y-118190476D01*
X142833333Y-118095238D01*
X142928571Y-118000000D01*
X143071429Y-117952381D01*
X143166667Y-117952381D01*
X143309524Y-118000000D01*
X143357143Y-118047619D01*
X143738095Y-118047619D02*
X143785714Y-118000000D01*
X143880952Y-117952381D01*
X144119048Y-117952381D01*
X144214286Y-118000000D01*
X144261905Y-118047619D01*
X144309524Y-118142857D01*
X144309524Y-118238095D01*
X144261905Y-118380952D01*
X143690476Y-118952381D01*
X144309524Y-118952381D01*
X145261905Y-118952381D02*
X144690476Y-118952381D01*
X144976190Y-118952381D02*
X144976190Y-117952381D01*
X144880952Y-118095238D01*
X144785714Y-118190476D01*
X144690476Y-118238095D01*
X99457143Y-79857143D02*
X99409524Y-79904762D01*
X99266667Y-79952381D01*
X99171429Y-79952381D01*
X99028571Y-79904762D01*
X98933333Y-79809524D01*
X98885714Y-79714286D01*
X98838095Y-79523810D01*
X98838095Y-79380952D01*
X98885714Y-79190476D01*
X98933333Y-79095238D01*
X99028571Y-79000000D01*
X99171429Y-78952381D01*
X99266667Y-78952381D01*
X99409524Y-79000000D01*
X99457143Y-79047619D01*
X100409524Y-79952381D02*
X99838095Y-79952381D01*
X100123809Y-79952381D02*
X100123809Y-78952381D01*
X100028571Y-79095238D01*
X99933333Y-79190476D01*
X99838095Y-79238095D01*
X100742857Y-78952381D02*
X101409524Y-78952381D01*
X100980952Y-79952381D01*
X120457143Y-121457143D02*
X120409524Y-121504762D01*
X120266667Y-121552381D01*
X120171429Y-121552381D01*
X120028571Y-121504762D01*
X119933333Y-121409524D01*
X119885714Y-121314286D01*
X119838095Y-121123810D01*
X119838095Y-120980952D01*
X119885714Y-120790476D01*
X119933333Y-120695238D01*
X120028571Y-120600000D01*
X120171429Y-120552381D01*
X120266667Y-120552381D01*
X120409524Y-120600000D01*
X120457143Y-120647619D01*
X121409524Y-121552381D02*
X120838095Y-121552381D01*
X121123809Y-121552381D02*
X121123809Y-120552381D01*
X121028571Y-120695238D01*
X120933333Y-120790476D01*
X120838095Y-120838095D01*
X122266667Y-120552381D02*
X122076190Y-120552381D01*
X121980952Y-120600000D01*
X121933333Y-120647619D01*
X121838095Y-120790476D01*
X121790476Y-120980952D01*
X121790476Y-121361905D01*
X121838095Y-121457143D01*
X121885714Y-121504762D01*
X121980952Y-121552381D01*
X122171429Y-121552381D01*
X122266667Y-121504762D01*
X122314286Y-121457143D01*
X122361905Y-121361905D01*
X122361905Y-121123810D01*
X122314286Y-121028571D01*
X122266667Y-120980952D01*
X122171429Y-120933333D01*
X121980952Y-120933333D01*
X121885714Y-120980952D01*
X121838095Y-121028571D01*
X121790476Y-121123810D01*
X106057143Y-121457143D02*
X106009524Y-121504762D01*
X105866667Y-121552381D01*
X105771429Y-121552381D01*
X105628571Y-121504762D01*
X105533333Y-121409524D01*
X105485714Y-121314286D01*
X105438095Y-121123810D01*
X105438095Y-120980952D01*
X105485714Y-120790476D01*
X105533333Y-120695238D01*
X105628571Y-120600000D01*
X105771429Y-120552381D01*
X105866667Y-120552381D01*
X106009524Y-120600000D01*
X106057143Y-120647619D01*
X107009524Y-121552381D02*
X106438095Y-121552381D01*
X106723809Y-121552381D02*
X106723809Y-120552381D01*
X106628571Y-120695238D01*
X106533333Y-120790476D01*
X106438095Y-120838095D01*
X107914286Y-120552381D02*
X107438095Y-120552381D01*
X107390476Y-121028571D01*
X107438095Y-120980952D01*
X107533333Y-120933333D01*
X107771429Y-120933333D01*
X107866667Y-120980952D01*
X107914286Y-121028571D01*
X107961905Y-121123810D01*
X107961905Y-121361905D01*
X107914286Y-121457143D01*
X107866667Y-121504762D01*
X107771429Y-121552381D01*
X107533333Y-121552381D01*
X107438095Y-121504762D01*
X107390476Y-121457143D01*
X92457143Y-121457143D02*
X92409524Y-121504762D01*
X92266667Y-121552381D01*
X92171429Y-121552381D01*
X92028571Y-121504762D01*
X91933333Y-121409524D01*
X91885714Y-121314286D01*
X91838095Y-121123810D01*
X91838095Y-120980952D01*
X91885714Y-120790476D01*
X91933333Y-120695238D01*
X92028571Y-120600000D01*
X92171429Y-120552381D01*
X92266667Y-120552381D01*
X92409524Y-120600000D01*
X92457143Y-120647619D01*
X93409524Y-121552381D02*
X92838095Y-121552381D01*
X93123809Y-121552381D02*
X93123809Y-120552381D01*
X93028571Y-120695238D01*
X92933333Y-120790476D01*
X92838095Y-120838095D01*
X94266667Y-120885714D02*
X94266667Y-121552381D01*
X94028571Y-120504762D02*
X93790476Y-121219048D01*
X94409524Y-121219048D01*
X120457143Y-118857143D02*
X120409524Y-118904762D01*
X120266667Y-118952381D01*
X120171429Y-118952381D01*
X120028571Y-118904762D01*
X119933333Y-118809524D01*
X119885714Y-118714286D01*
X119838095Y-118523810D01*
X119838095Y-118380952D01*
X119885714Y-118190476D01*
X119933333Y-118095238D01*
X120028571Y-118000000D01*
X120171429Y-117952381D01*
X120266667Y-117952381D01*
X120409524Y-118000000D01*
X120457143Y-118047619D01*
X121409524Y-118952381D02*
X120838095Y-118952381D01*
X121123809Y-118952381D02*
X121123809Y-117952381D01*
X121028571Y-118095238D01*
X120933333Y-118190476D01*
X120838095Y-118238095D01*
X121742857Y-117952381D02*
X122361905Y-117952381D01*
X122028571Y-118333333D01*
X122171429Y-118333333D01*
X122266667Y-118380952D01*
X122314286Y-118428571D01*
X122361905Y-118523810D01*
X122361905Y-118761905D01*
X122314286Y-118857143D01*
X122266667Y-118904762D01*
X122171429Y-118952381D01*
X121885714Y-118952381D01*
X121790476Y-118904762D01*
X121742857Y-118857143D01*
X106057143Y-118857143D02*
X106009524Y-118904762D01*
X105866667Y-118952381D01*
X105771429Y-118952381D01*
X105628571Y-118904762D01*
X105533333Y-118809524D01*
X105485714Y-118714286D01*
X105438095Y-118523810D01*
X105438095Y-118380952D01*
X105485714Y-118190476D01*
X105533333Y-118095238D01*
X105628571Y-118000000D01*
X105771429Y-117952381D01*
X105866667Y-117952381D01*
X106009524Y-118000000D01*
X106057143Y-118047619D01*
X107009524Y-118952381D02*
X106438095Y-118952381D01*
X106723809Y-118952381D02*
X106723809Y-117952381D01*
X106628571Y-118095238D01*
X106533333Y-118190476D01*
X106438095Y-118238095D01*
X107390476Y-118047619D02*
X107438095Y-118000000D01*
X107533333Y-117952381D01*
X107771429Y-117952381D01*
X107866667Y-118000000D01*
X107914286Y-118047619D01*
X107961905Y-118142857D01*
X107961905Y-118238095D01*
X107914286Y-118380952D01*
X107342857Y-118952381D01*
X107961905Y-118952381D01*
X92457143Y-118857143D02*
X92409524Y-118904762D01*
X92266667Y-118952381D01*
X92171429Y-118952381D01*
X92028571Y-118904762D01*
X91933333Y-118809524D01*
X91885714Y-118714286D01*
X91838095Y-118523810D01*
X91838095Y-118380952D01*
X91885714Y-118190476D01*
X91933333Y-118095238D01*
X92028571Y-118000000D01*
X92171429Y-117952381D01*
X92266667Y-117952381D01*
X92409524Y-118000000D01*
X92457143Y-118047619D01*
X93409524Y-118952381D02*
X92838095Y-118952381D01*
X93123809Y-118952381D02*
X93123809Y-117952381D01*
X93028571Y-118095238D01*
X92933333Y-118190476D01*
X92838095Y-118238095D01*
X94361905Y-118952381D02*
X93790476Y-118952381D01*
X94076190Y-118952381D02*
X94076190Y-117952381D01*
X93980952Y-118095238D01*
X93885714Y-118190476D01*
X93790476Y-118238095D01*
X180157143Y-89257143D02*
X180109524Y-89304762D01*
X179966667Y-89352381D01*
X179871429Y-89352381D01*
X179728571Y-89304762D01*
X179633333Y-89209524D01*
X179585714Y-89114286D01*
X179538095Y-88923810D01*
X179538095Y-88780952D01*
X179585714Y-88590476D01*
X179633333Y-88495238D01*
X179728571Y-88400000D01*
X179871429Y-88352381D01*
X179966667Y-88352381D01*
X180109524Y-88400000D01*
X180157143Y-88447619D01*
X181109524Y-89352381D02*
X180538095Y-89352381D01*
X180823809Y-89352381D02*
X180823809Y-88352381D01*
X180728571Y-88495238D01*
X180633333Y-88590476D01*
X180538095Y-88638095D01*
X181728571Y-88352381D02*
X181823810Y-88352381D01*
X181919048Y-88400000D01*
X181966667Y-88447619D01*
X182014286Y-88542857D01*
X182061905Y-88733333D01*
X182061905Y-88971429D01*
X182014286Y-89161905D01*
X181966667Y-89257143D01*
X181919048Y-89304762D01*
X181823810Y-89352381D01*
X181728571Y-89352381D01*
X181633333Y-89304762D01*
X181585714Y-89257143D01*
X181538095Y-89161905D01*
X181490476Y-88971429D01*
X181490476Y-88733333D01*
X181538095Y-88542857D01*
X181585714Y-88447619D01*
X181633333Y-88400000D01*
X181728571Y-88352381D01*
X129033334Y-89257143D02*
X128985715Y-89304762D01*
X128842858Y-89352381D01*
X128747620Y-89352381D01*
X128604762Y-89304762D01*
X128509524Y-89209524D01*
X128461905Y-89114286D01*
X128414286Y-88923810D01*
X128414286Y-88780952D01*
X128461905Y-88590476D01*
X128509524Y-88495238D01*
X128604762Y-88400000D01*
X128747620Y-88352381D01*
X128842858Y-88352381D01*
X128985715Y-88400000D01*
X129033334Y-88447619D01*
X129509524Y-89352381D02*
X129700000Y-89352381D01*
X129795239Y-89304762D01*
X129842858Y-89257143D01*
X129938096Y-89114286D01*
X129985715Y-88923810D01*
X129985715Y-88542857D01*
X129938096Y-88447619D01*
X129890477Y-88400000D01*
X129795239Y-88352381D01*
X129604762Y-88352381D01*
X129509524Y-88400000D01*
X129461905Y-88447619D01*
X129414286Y-88542857D01*
X129414286Y-88780952D01*
X129461905Y-88876190D01*
X129509524Y-88923810D01*
X129604762Y-88971429D01*
X129795239Y-88971429D01*
X129890477Y-88923810D01*
X129938096Y-88876190D01*
X129985715Y-88780952D01*
X86033334Y-89257143D02*
X85985715Y-89304762D01*
X85842858Y-89352381D01*
X85747620Y-89352381D01*
X85604762Y-89304762D01*
X85509524Y-89209524D01*
X85461905Y-89114286D01*
X85414286Y-88923810D01*
X85414286Y-88780952D01*
X85461905Y-88590476D01*
X85509524Y-88495238D01*
X85604762Y-88400000D01*
X85747620Y-88352381D01*
X85842858Y-88352381D01*
X85985715Y-88400000D01*
X86033334Y-88447619D01*
X86604762Y-88780952D02*
X86509524Y-88733333D01*
X86461905Y-88685714D01*
X86414286Y-88590476D01*
X86414286Y-88542857D01*
X86461905Y-88447619D01*
X86509524Y-88400000D01*
X86604762Y-88352381D01*
X86795239Y-88352381D01*
X86890477Y-88400000D01*
X86938096Y-88447619D01*
X86985715Y-88542857D01*
X86985715Y-88590476D01*
X86938096Y-88685714D01*
X86890477Y-88733333D01*
X86795239Y-88780952D01*
X86604762Y-88780952D01*
X86509524Y-88828571D01*
X86461905Y-88876190D01*
X86414286Y-88971429D01*
X86414286Y-89161905D01*
X86461905Y-89257143D01*
X86509524Y-89304762D01*
X86604762Y-89352381D01*
X86795239Y-89352381D01*
X86890477Y-89304762D01*
X86938096Y-89257143D01*
X86985715Y-89161905D01*
X86985715Y-88971429D01*
X86938096Y-88876190D01*
X86890477Y-88828571D01*
X86795239Y-88780952D01*
X54133334Y-79857143D02*
X54085715Y-79904762D01*
X53942858Y-79952381D01*
X53847620Y-79952381D01*
X53704762Y-79904762D01*
X53609524Y-79809524D01*
X53561905Y-79714286D01*
X53514286Y-79523810D01*
X53514286Y-79380952D01*
X53561905Y-79190476D01*
X53609524Y-79095238D01*
X53704762Y-79000000D01*
X53847620Y-78952381D01*
X53942858Y-78952381D01*
X54085715Y-79000000D01*
X54133334Y-79047619D01*
X54466667Y-78952381D02*
X55133334Y-78952381D01*
X54704762Y-79952381D01*
X71833334Y-121257143D02*
X71785715Y-121304762D01*
X71642858Y-121352381D01*
X71547620Y-121352381D01*
X71404762Y-121304762D01*
X71309524Y-121209524D01*
X71261905Y-121114286D01*
X71214286Y-120923810D01*
X71214286Y-120780952D01*
X71261905Y-120590476D01*
X71309524Y-120495238D01*
X71404762Y-120400000D01*
X71547620Y-120352381D01*
X71642858Y-120352381D01*
X71785715Y-120400000D01*
X71833334Y-120447619D01*
X72690477Y-120352381D02*
X72500000Y-120352381D01*
X72404762Y-120400000D01*
X72357143Y-120447619D01*
X72261905Y-120590476D01*
X72214286Y-120780952D01*
X72214286Y-121161905D01*
X72261905Y-121257143D01*
X72309524Y-121304762D01*
X72404762Y-121352381D01*
X72595239Y-121352381D01*
X72690477Y-121304762D01*
X72738096Y-121257143D01*
X72785715Y-121161905D01*
X72785715Y-120923810D01*
X72738096Y-120828571D01*
X72690477Y-120780952D01*
X72595239Y-120733333D01*
X72404762Y-120733333D01*
X72309524Y-120780952D01*
X72261905Y-120828571D01*
X72214286Y-120923810D01*
X57833334Y-121257143D02*
X57785715Y-121304762D01*
X57642858Y-121352381D01*
X57547620Y-121352381D01*
X57404762Y-121304762D01*
X57309524Y-121209524D01*
X57261905Y-121114286D01*
X57214286Y-120923810D01*
X57214286Y-120780952D01*
X57261905Y-120590476D01*
X57309524Y-120495238D01*
X57404762Y-120400000D01*
X57547620Y-120352381D01*
X57642858Y-120352381D01*
X57785715Y-120400000D01*
X57833334Y-120447619D01*
X58738096Y-120352381D02*
X58261905Y-120352381D01*
X58214286Y-120828571D01*
X58261905Y-120780952D01*
X58357143Y-120733333D01*
X58595239Y-120733333D01*
X58690477Y-120780952D01*
X58738096Y-120828571D01*
X58785715Y-120923810D01*
X58785715Y-121161905D01*
X58738096Y-121257143D01*
X58690477Y-121304762D01*
X58595239Y-121352381D01*
X58357143Y-121352381D01*
X58261905Y-121304762D01*
X58214286Y-121257143D01*
X43833334Y-121257143D02*
X43785715Y-121304762D01*
X43642858Y-121352381D01*
X43547620Y-121352381D01*
X43404762Y-121304762D01*
X43309524Y-121209524D01*
X43261905Y-121114286D01*
X43214286Y-120923810D01*
X43214286Y-120780952D01*
X43261905Y-120590476D01*
X43309524Y-120495238D01*
X43404762Y-120400000D01*
X43547620Y-120352381D01*
X43642858Y-120352381D01*
X43785715Y-120400000D01*
X43833334Y-120447619D01*
X44690477Y-120685714D02*
X44690477Y-121352381D01*
X44452381Y-120304762D02*
X44214286Y-121019048D01*
X44833334Y-121019048D01*
X71833334Y-118757143D02*
X71785715Y-118804762D01*
X71642858Y-118852381D01*
X71547620Y-118852381D01*
X71404762Y-118804762D01*
X71309524Y-118709524D01*
X71261905Y-118614286D01*
X71214286Y-118423810D01*
X71214286Y-118280952D01*
X71261905Y-118090476D01*
X71309524Y-117995238D01*
X71404762Y-117900000D01*
X71547620Y-117852381D01*
X71642858Y-117852381D01*
X71785715Y-117900000D01*
X71833334Y-117947619D01*
X72166667Y-117852381D02*
X72785715Y-117852381D01*
X72452381Y-118233333D01*
X72595239Y-118233333D01*
X72690477Y-118280952D01*
X72738096Y-118328571D01*
X72785715Y-118423810D01*
X72785715Y-118661905D01*
X72738096Y-118757143D01*
X72690477Y-118804762D01*
X72595239Y-118852381D01*
X72309524Y-118852381D01*
X72214286Y-118804762D01*
X72166667Y-118757143D01*
X57833334Y-118757143D02*
X57785715Y-118804762D01*
X57642858Y-118852381D01*
X57547620Y-118852381D01*
X57404762Y-118804762D01*
X57309524Y-118709524D01*
X57261905Y-118614286D01*
X57214286Y-118423810D01*
X57214286Y-118280952D01*
X57261905Y-118090476D01*
X57309524Y-117995238D01*
X57404762Y-117900000D01*
X57547620Y-117852381D01*
X57642858Y-117852381D01*
X57785715Y-117900000D01*
X57833334Y-117947619D01*
X58214286Y-117947619D02*
X58261905Y-117900000D01*
X58357143Y-117852381D01*
X58595239Y-117852381D01*
X58690477Y-117900000D01*
X58738096Y-117947619D01*
X58785715Y-118042857D01*
X58785715Y-118138095D01*
X58738096Y-118280952D01*
X58166667Y-118852381D01*
X58785715Y-118852381D01*
X43833334Y-118757143D02*
X43785715Y-118804762D01*
X43642858Y-118852381D01*
X43547620Y-118852381D01*
X43404762Y-118804762D01*
X43309524Y-118709524D01*
X43261905Y-118614286D01*
X43214286Y-118423810D01*
X43214286Y-118280952D01*
X43261905Y-118090476D01*
X43309524Y-117995238D01*
X43404762Y-117900000D01*
X43547620Y-117852381D01*
X43642858Y-117852381D01*
X43785715Y-117900000D01*
X43833334Y-117947619D01*
X44785715Y-118852381D02*
X44214286Y-118852381D01*
X44500000Y-118852381D02*
X44500000Y-117852381D01*
X44404762Y-117995238D01*
X44309524Y-118090476D01*
X44214286Y-118138095D01*
X153052381Y-59742857D02*
X152576190Y-60076191D01*
X153052381Y-60314286D02*
X152052381Y-60314286D01*
X152052381Y-59933333D01*
X152100000Y-59838095D01*
X152147619Y-59790476D01*
X152242857Y-59742857D01*
X152385714Y-59742857D01*
X152480952Y-59790476D01*
X152528571Y-59838095D01*
X152576190Y-59933333D01*
X152576190Y-60314286D01*
X153052381Y-58790476D02*
X153052381Y-59361905D01*
X153052381Y-59076191D02*
X152052381Y-59076191D01*
X152195238Y-59171429D01*
X152290476Y-59266667D01*
X152338095Y-59361905D01*
X152052381Y-58457143D02*
X152052381Y-57790476D01*
X153052381Y-58219048D01*
X146452381Y-59742857D02*
X145976190Y-60076191D01*
X146452381Y-60314286D02*
X145452381Y-60314286D01*
X145452381Y-59933333D01*
X145500000Y-59838095D01*
X145547619Y-59790476D01*
X145642857Y-59742857D01*
X145785714Y-59742857D01*
X145880952Y-59790476D01*
X145928571Y-59838095D01*
X145976190Y-59933333D01*
X145976190Y-60314286D01*
X146452381Y-58790476D02*
X146452381Y-59361905D01*
X146452381Y-59076191D02*
X145452381Y-59076191D01*
X145595238Y-59171429D01*
X145690476Y-59266667D01*
X145738095Y-59361905D01*
X145452381Y-57933333D02*
X145452381Y-58123810D01*
X145500000Y-58219048D01*
X145547619Y-58266667D01*
X145690476Y-58361905D01*
X145880952Y-58409524D01*
X146261905Y-58409524D01*
X146357143Y-58361905D01*
X146404762Y-58314286D01*
X146452381Y-58219048D01*
X146452381Y-58028571D01*
X146404762Y-57933333D01*
X146357143Y-57885714D01*
X146261905Y-57838095D01*
X146023810Y-57838095D01*
X145928571Y-57885714D01*
X145880952Y-57933333D01*
X145833333Y-58028571D01*
X145833333Y-58219048D01*
X145880952Y-58314286D01*
X145928571Y-58361905D01*
X146023810Y-58409524D01*
X188161905Y-100102381D02*
X188161905Y-99102381D01*
X188400000Y-99102381D01*
X188542858Y-99150000D01*
X188638096Y-99245238D01*
X188685715Y-99340476D01*
X188733334Y-99530952D01*
X188733334Y-99673810D01*
X188685715Y-99864286D01*
X188638096Y-99959524D01*
X188542858Y-100054762D01*
X188400000Y-100102381D01*
X188161905Y-100102381D01*
X189114286Y-99197619D02*
X189161905Y-99150000D01*
X189257143Y-99102381D01*
X189495239Y-99102381D01*
X189590477Y-99150000D01*
X189638096Y-99197619D01*
X189685715Y-99292857D01*
X189685715Y-99388095D01*
X189638096Y-99530952D01*
X189066667Y-100102381D01*
X189685715Y-100102381D01*
X186252381Y-102442857D02*
X185776190Y-102776191D01*
X186252381Y-103014286D02*
X185252381Y-103014286D01*
X185252381Y-102633333D01*
X185300000Y-102538095D01*
X185347619Y-102490476D01*
X185442857Y-102442857D01*
X185585714Y-102442857D01*
X185680952Y-102490476D01*
X185728571Y-102538095D01*
X185776190Y-102633333D01*
X185776190Y-103014286D01*
X186252381Y-101490476D02*
X186252381Y-102061905D01*
X186252381Y-101776191D02*
X185252381Y-101776191D01*
X185395238Y-101871429D01*
X185490476Y-101966667D01*
X185538095Y-102061905D01*
X185680952Y-100919048D02*
X185633333Y-101014286D01*
X185585714Y-101061905D01*
X185490476Y-101109524D01*
X185442857Y-101109524D01*
X185347619Y-101061905D01*
X185300000Y-101014286D01*
X185252381Y-100919048D01*
X185252381Y-100728571D01*
X185300000Y-100633333D01*
X185347619Y-100585714D01*
X185442857Y-100538095D01*
X185490476Y-100538095D01*
X185585714Y-100585714D01*
X185633333Y-100633333D01*
X185680952Y-100728571D01*
X185680952Y-100919048D01*
X185728571Y-101014286D01*
X185776190Y-101061905D01*
X185871429Y-101109524D01*
X186061905Y-101109524D01*
X186157143Y-101061905D01*
X186204762Y-101014286D01*
X186252381Y-100919048D01*
X186252381Y-100728571D01*
X186204762Y-100633333D01*
X186157143Y-100585714D01*
X186061905Y-100538095D01*
X185871429Y-100538095D01*
X185776190Y-100585714D01*
X185728571Y-100633333D01*
X185680952Y-100728571D01*
X148381905Y-81632381D02*
X148381905Y-80632381D01*
X148762858Y-80632381D01*
X148858096Y-80680000D01*
X148905715Y-80727619D01*
X148953334Y-80822857D01*
X148953334Y-80965714D01*
X148905715Y-81060952D01*
X148858096Y-81108571D01*
X148762858Y-81156190D01*
X148381905Y-81156190D01*
X149810477Y-80965714D02*
X149810477Y-81632381D01*
X149572381Y-80584762D02*
X149334286Y-81299048D01*
X149953334Y-81299048D01*
X111049523Y-70492381D02*
X111240000Y-70492381D01*
X111335238Y-70540000D01*
X111430476Y-70635238D01*
X111478095Y-70825714D01*
X111478095Y-71159048D01*
X111430476Y-71349524D01*
X111335238Y-71444762D01*
X111240000Y-71492381D01*
X111049523Y-71492381D01*
X110954285Y-71444762D01*
X110859047Y-71349524D01*
X110811428Y-71159048D01*
X110811428Y-70825714D01*
X110859047Y-70635238D01*
X110954285Y-70540000D01*
X111049523Y-70492381D01*
X112335238Y-70825714D02*
X112335238Y-71492381D01*
X111906666Y-70825714D02*
X111906666Y-71349524D01*
X111954285Y-71444762D01*
X112049523Y-71492381D01*
X112192381Y-71492381D01*
X112287619Y-71444762D01*
X112335238Y-71397143D01*
X112668571Y-70825714D02*
X113049523Y-70825714D01*
X112811428Y-70492381D02*
X112811428Y-71349524D01*
X112859047Y-71444762D01*
X112954285Y-71492381D01*
X113049523Y-71492381D01*
X113525714Y-71492381D02*
X113430476Y-71444762D01*
X113382857Y-71349524D01*
X113382857Y-70492381D01*
X113906667Y-71492381D02*
X113906667Y-70825714D01*
X113906667Y-70492381D02*
X113859048Y-70540000D01*
X113906667Y-70587619D01*
X113954286Y-70540000D01*
X113906667Y-70492381D01*
X113906667Y-70587619D01*
X114382857Y-70825714D02*
X114382857Y-71492381D01*
X114382857Y-70920952D02*
X114430476Y-70873333D01*
X114525714Y-70825714D01*
X114668572Y-70825714D01*
X114763810Y-70873333D01*
X114811429Y-70968571D01*
X114811429Y-71492381D01*
X115668572Y-71444762D02*
X115573334Y-71492381D01*
X115382857Y-71492381D01*
X115287619Y-71444762D01*
X115240000Y-71349524D01*
X115240000Y-70968571D01*
X115287619Y-70873333D01*
X115382857Y-70825714D01*
X115573334Y-70825714D01*
X115668572Y-70873333D01*
X115716191Y-70968571D01*
X115716191Y-71063810D01*
X115240000Y-71159048D01*
X116668572Y-71492381D02*
X116097143Y-71492381D01*
X116382857Y-71492381D02*
X116382857Y-70492381D01*
X116287619Y-70635238D01*
X116192381Y-70730476D01*
X116097143Y-70778095D01*
M02*
